<?xml version="1.0" encoding="UTF-8"?>
<svg id="Layer_1" data-name="Layer 1" xmlns="http://www.w3.org/2000/svg" xmlns:xlink="http://www.w3.org/1999/xlink" viewBox="0 0 150 150">
  <defs>
    <style>
      .cls-1 {
        clip-path: url(#clippath-2);
      }

      .cls-2 {
        fill: none;
      }

      .cls-2, .cls-3 {
        stroke-width: 0px;
      }

      .cls-4 {
        clip-path: url(#clippath-1);
      }

      .cls-3 {
        fill: #fff;
      }

      .cls-5 {
        clip-path: url(#clippath);
      }

      .cls-6 {
        clip-path: url(#clippath-3);
      }
    </style>
    <clipPath id="clippath">
      <rect class="cls-2" x="2.57" y="14.88" width="97.03" height="107.08"/>
    </clipPath>
    <clipPath id="clippath-1">
      <rect class="cls-2" x="105.51" y="78.1" width="41.92" height="47.93"/>
    </clipPath>
    <clipPath id="clippath-2">
      <rect class="cls-2" x="99.67" y="87.45" width="43.25" height="47.28"/>
    </clipPath>
    <clipPath id="clippath-3">
      <rect class="cls-2" x="94.99" y="67.31" width="21.04" height="21.31"/>
    </clipPath>
  </defs>
  <g class="cls-5">
    <path class="cls-3" d="M97.69,42.68h-26.87c6.39-2.57,13.06-6.99,17.96-14.63.51-.8.26-1.88-.54-2.39-.8-.52-1.88-.27-2.39.53-6.92,10.85-18.16,14.59-25.98,15.86,5.76-3.26,12.55-8.24,13.49-14.14.56-3.53-.96-6.84-4.56-9.83-3.6-3.02-6.95-3.82-9.92-2.42-4.2,1.97-6.57,8.2-7.9,14.37-1.34-6.16-3.71-12.4-7.91-14.37-2.97-1.38-6.3-.58-9.92,2.42-3.59,2.99-5.11,6.27-4.55,9.83.96,5.92,7.75,10.9,13.51,14.16-7.82-1.25-19.05-4.98-26.02-15.88-.51-.8-1.58-1.05-2.39-.53-.8.51-1.05,1.58-.53,2.39,4.87,7.66,11.55,12.06,17.96,14.63H4.3c-.96,0-1.72.78-1.72,1.72v24.21c0,.96.78,1.72,1.72,1.72h3.46v50.15c0,.96.78,1.72,1.72,1.72h83c.96,0,1.72-.78,1.72-1.72v-50.12h3.46c.96,0,1.72-.78,1.72-1.72v-24.23c.02-.94-.74-1.72-1.7-1.72ZM60.36,18.8c.45-.2.94-.31,1.45-.31,1.38,0,2.97.76,4.78,2.26,2.61,2.16,3.71,4.33,3.35,6.61-.94,5.85-11.1,11.64-17.11,14.38.47-6.86,2.52-20.6,7.53-22.94ZM32.04,27.36c-.36-2.28.74-4.43,3.35-6.61,1.81-1.5,3.42-2.26,4.78-2.26.52,0,1,.11,1.45.31,5.03,2.35,7.06,16.11,7.53,22.94-6.01-2.75-16.17-8.53-17.11-14.38ZM6.04,66.89v-20.75h34.58v20.75H6.04ZM11.22,70.35h29.4v48.42H11.22v-48.42ZM44.08,118.76V46.14h13.85v72.62h-13.85ZM61.37,118.76v-48.41h29.4v48.42h-29.4v-.02ZM95.95,66.89h-34.58v-20.75h34.58v20.75Z"/>
  </g>
  <g class="cls-4">
    <path class="cls-3" d="M147.18,110.11l-7.4,5.54-1.77,1.33-10.29,7.72c-.49.37-1.18.26-1.55-.22l-19.94-26.59c-.05-.05-.09-.11-.13-.17-.26-.36-.29-.83-.09-1.2l2.31-16.65c.08-.61.63-1.03,1.25-.95l1.3.19c.67.7,1.14,1.54,1.46,2.46l-1.97-.29-2.14,15.56,19.06,25.43,11.18-8.38,6.52-4.89-19.07-25.42-9.51-1.41c-.16-.81-.37-1.6-.67-2.34,3.5.51,6.99,1.03,10.49,1.55.41-.09.85.06,1.12.42.05.05.09.11.12.16l19.94,26.6c.37.49.27,1.18-.22,1.55Z"/>
  </g>
  <g class="cls-1">
    <path class="cls-3" d="M141.39,119.66l-19.46,14.59c-.49.37-1.19.28-1.55-.21l-19.94-26.6c-.05-.05-.09-.11-.13-.16-.27-.36-.29-.83-.09-1.2l2.3-16.66c.09-.61.64-1.03,1.25-.95l4.16.53c.67.7-.44,1.35-.12,2.27l-3.24-.44-2.15,15.56,19.07,25.43,17.69-13.27-1.17-1.56,1.77-1.33,1.84,2.45c.37.49.26,1.18-.22,1.55Z"/>
  </g>
  <path class="cls-3" d="M114.61,91.22c-.2,0-.41-.02-.61-.05-1.12-.16-2.11-.74-2.79-1.65-1.4-1.87-1.02-4.53.84-5.93.9-.68,2.02-.96,3.14-.8s2.11.75,2.79,1.65c.68.9.96,2.02.8,3.14s-.74,2.11-1.65,2.79c-.74.56-1.62.85-2.53.85ZM112.99,88.2c.32.43.79.7,1.32.78.53.08,1.06-.06,1.49-.38.43-.32.71-.79.78-1.32.08-.53-.06-1.06-.38-1.49-.32-.43-.79-.71-1.32-.79-.53-.07-1.06.06-1.49.38-.89.66-1.06,1.93-.4,2.81Z"/>
  <g class="cls-6">
    <path class="cls-3" d="M115.69,87.18c-.11.6-.68,1.01-1.29.9-.6-.11-1.01-.68-.9-1.28,0-.02,1.21-6.62-3.58-9.44-.89-.53-2.75-.56-4.72-.59-1.99-.04-4.08-.07-5.78-.62-2.85-.92-4.52-3.01-2.92-7.94.19-.58.81-.9,1.39-.72.58.19.9.81.72,1.39-1.06,3.29-.15,4.62,1.48,5.15,1.4.45,3.31.48,5.14.52,2.27.04,4.42.08,5.81.9,6.13,3.61,4.65,11.71,4.65,11.73Z"/>
  </g>
  <path class="cls-3" d="M128.83,93.79c1.14,1.52,1.06,3.34-.71,4.67-1.77,1.32-3.54.89-4.68-.63-1.13-1.51-1.07-3.36.7-4.68,1.77-1.33,3.56-.87,4.69.64ZM125.54,95.03c-.75.56-.87,1.1-.51,1.58.36.48.92.53,1.67-.03s.88-1.13.52-1.61-.91-.52-1.68.06ZM133.31,100.14c.66.88.14,2.14-.95,2.29l-12.57,1.81c-.53.08-1.05-.14-1.36-.56-.66-.88-.14-2.14.95-2.29l12.58-1.81c.52-.08,1.04.14,1.36.56ZM128.32,106c1.14,1.52,1.08,3.33-.71,4.67-1.77,1.33-3.54.89-4.68-.63s-1.06-3.34.71-4.67c1.79-1.34,3.54-.89,4.68.63ZM125.04,107.25c-.75.56-.87,1.1-.51,1.58.36.48.92.53,1.67-.03s.87-1.13.51-1.6c-.36-.48-.92-.5-1.67.06Z"/>
</svg>