<svg id="Group_875" data-name="Group 875" xmlns="http://www.w3.org/2000/svg" width="46.843" height="37.17" viewBox="0 0 46.843 37.17">
  <path id="Path_943" data-name="Path 943" d="M492.06,418.89a3.558,3.558,0,0,0-2.45-1.27l-32.85-2.74a3.6,3.6,0,0,0-3.88,3.28l-.66,6.11h-2.54a3.613,3.613,0,0,0-3.61,3.6v20.56a3.615,3.615,0,0,0,3.61,3.61h32.96a3.613,3.613,0,0,0,3.6-3.61v-3.22l1.06.08a3.608,3.608,0,0,0,3.89-3.29l1.71-20.49A3.576,3.576,0,0,0,492.06,418.89Zm-7.84,29.54a1.577,1.577,0,0,1-1.58,1.58H449.68a1.579,1.579,0,0,1-1.59-1.58V437.27h36.13Zm0-13.18H448.09v-3.58h36.13Zm0-5.6H448.09v-1.78a1.585,1.585,0,0,1,1.59-1.58h32.96a1.583,1.583,0,0,1,1.58,1.58Zm4.96,12.19a1.59,1.59,0,0,1-.56,1.07,1.555,1.555,0,0,1-1.15.37l-1.23-.1V427.87a3.611,3.611,0,0,0-3.6-3.6H454.26l.63-5.9v-.03a1.578,1.578,0,0,1,1.71-1.44l32.84,2.74a1.561,1.561,0,0,1,1.08.55,1.637,1.637,0,0,1,.37,1.16Z" transform="translate(-446.07 -414.87)"/>
  <path id="Path_944" data-name="Path 944" d="M480.5,439.78h-8.76a1.007,1.007,0,0,0-1.01,1.01v5.72a1.007,1.007,0,0,0,1.01,1.01h8.76a1.016,1.016,0,0,0,1.02-1.01v-5.72A1.016,1.016,0,0,0,480.5,439.78Zm-1.01,5.72h-6.74v-3.7h6.74Z" transform="translate(-446.07 -414.87)"/>
</svg>
