<svg xmlns="http://www.w3.org/2000/svg" width="24.948" height="26" viewBox="0 0 24.948 26">
  <g id="discount" transform="translate(-10.359 0.002)">
    <g id="Group_820" data-name="Group 820" transform="translate(10.359 -0.002)">
      <g id="Group_819" data-name="Group 819" transform="translate(0 0)">
        <path id="Path_924" data-name="Path 924" d="M34.1,13.335a.762.762,0,0,1,0-.674l.97-1.984a2.257,2.257,0,0,0-.974-3l-1.95-1.035a.762.762,0,0,1-.4-.545l-.381-2.175a2.257,2.257,0,0,0-2.55-1.852l-2.186.309A.762.762,0,0,1,26,2.174L24.409.639a2.257,2.257,0,0,0-3.151,0L19.67,2.175a.762.762,0,0,1-.64.208l-2.186-.309a2.257,2.257,0,0,0-2.55,1.852L13.912,6.1a.762.762,0,0,1-.4.545l-1.95,1.035a2.257,2.257,0,0,0-.974,3l.97,1.984a.762.762,0,0,1,0,.674l-.97,1.984a2.257,2.257,0,0,0,.974,3l1.95,1.035a.762.762,0,0,1,.4.545l.381,2.175a2.256,2.256,0,0,0,2.225,1.875,2.319,2.319,0,0,0,.325-.023l2.186-.309a.762.762,0,0,1,.64.208l1.587,1.535a2.257,2.257,0,0,0,3.151,0L26,23.822a.763.763,0,0,1,.64-.208l2.186.309a2.257,2.257,0,0,0,2.55-1.852l.382-2.175a.762.762,0,0,1,.4-.545l1.95-1.035a2.257,2.257,0,0,0,.974-3ZM19.834,6.25A2.749,2.749,0,1,1,17.085,9,2.752,2.752,0,0,1,19.834,6.25ZM18.415,18.477a.75.75,0,0,1-1.06-1.06l9.9-9.9a.75.75,0,1,1,1.06,1.06Zm7.417,1.27A2.749,2.749,0,1,1,28.581,17,2.752,2.752,0,0,1,25.832,19.746Z" transform="translate(-10.359 0.002)" fill="#ff3131"/>
      </g>
    </g>
    <g id="Group_822" data-name="Group 822" transform="translate(24.582 15.747)">
      <g id="Group_821" data-name="Group 821" transform="translate(0)">
        <path id="Path_925" data-name="Path 925" d="M291.7,310.141a1.25,1.25,0,1,0,1.25,1.25A1.251,1.251,0,0,0,291.7,310.141Z" transform="translate(-290.452 -310.141)" fill="#ff3131"/>
      </g>
    </g>
    <g id="Group_824" data-name="Group 824" transform="translate(18.584 7.75)">
      <g id="Group_823" data-name="Group 823">
        <path id="Path_926" data-name="Path 926" d="M173.583,152.646a1.25,1.25,0,1,0,1.25,1.25A1.251,1.251,0,0,0,173.583,152.646Z" transform="translate(-172.333 -152.646)" fill="#ff3131"/>
      </g>
    </g>
  </g>
</svg>
