<?xml version="1.0" encoding="utf-8"?>
<!-- Generator: Adobe Illustrator 26.0.1, SVG Export Plug-In . SVG Version: 6.00 Build 0)  -->
<svg version="1.1" id="Layer_1" xmlns="http://www.w3.org/2000/svg" xmlns:xlink="http://www.w3.org/1999/xlink" x="0px" y="0px"
	 viewBox="0 0 5184 2592" style="enable-background:new 0 0 5184 2592;" xml:space="preserve">
<style type="text/css">
	.st0{clip-path:url(#SVGID_00000161593678624949840370000007687592672956541853_);}
	.st1{clip-path:url(#SVGID_00000038406492505789562180000003842805658787522450_);}
	.st2{clip-path:url(#SVGID_00000000901986611931040790000006228575207366153384_);}
	.st3{clip-path:url(#SVGID_00000102533184805177920840000015912302385130102200_);}
	.st4{clip-path:url(#SVGID_00000039115148769108122720000005442370487017890234_);}
	.st5{clip-path:url(#SVGID_00000161628542963040781280000005693995963528416670_);}
	.st6{clip-path:url(#SVGID_00000163060057296770857450000014404000627920828580_);}
</style>
<g>
	<defs>
		<rect id="SVGID_1_" x="-1968.5" y="-7.9" width="5184" height="2592"/>
	</defs>
	<clipPath id="SVGID_00000106845971957524320830000007461845413553498785_">
		<use xlink:href="#SVGID_1_"  style="overflow:visible;"/>
	</clipPath>
</g>
<g>
	<defs>
		<polyline id="SVGID_00000026129761688766061390000017336011502825234873_" points="-1968.5,-7.9 3215.5,-7.9 3215.5,2584.1 
			-1968.5,2584.1 -1968.5,-7.9 		"/>
	</defs>
	<clipPath id="SVGID_00000140706294746693900930000002112982183162656177_">
		<use xlink:href="#SVGID_00000026129761688766061390000017336011502825234873_"  style="overflow:visible;"/>
	</clipPath>
	<g style="clip-path:url(#SVGID_00000140706294746693900930000002112982183162656177_);">
		<defs>
			<rect id="SVGID_00000148622468241478732890000008801175142638916236_" x="-1968.5" y="-7.9" width="5184" height="2592"/>
		</defs>
		<clipPath id="SVGID_00000078027164105345877860000012103962417427502744_">
			<use xlink:href="#SVGID_00000148622468241478732890000008801175142638916236_"  style="overflow:visible;"/>
		</clipPath>
		<g style="clip-path:url(#SVGID_00000078027164105345877860000012103962417427502744_);">
			<defs>
				<rect id="SVGID_00000040556752899338170930000003556453799627946626_" x="751.5" y="858.3" width="222" height="228.9"/>
			</defs>
			<clipPath id="SVGID_00000157306565532007094220000010859176870558073754_">
				<use xlink:href="#SVGID_00000040556752899338170930000003556453799627946626_"  style="overflow:visible;"/>
			</clipPath>
			<g style="clip-path:url(#SVGID_00000157306565532007094220000010859176870558073754_);">
				<defs>
					<ellipse id="SVGID_00000080184598748007820960000015382170728069211523_" cx="862.5" cy="972.5" rx="111" ry="114.2"/>
				</defs>
				<clipPath id="SVGID_00000067928145178966647170000009517662222198336399_">
					<use xlink:href="#SVGID_00000080184598748007820960000015382170728069211523_"  style="overflow:visible;"/>
				</clipPath>
				<g style="clip-path:url(#SVGID_00000067928145178966647170000009517662222198336399_);">
					<defs>
						<rect id="SVGID_00000020367672598661175120000014117259246711886209_" x="751.5" y="858.3" width="222" height="228.1"/>
					</defs>
					<clipPath id="SVGID_00000111880694140245391950000013632043695813182355_">
						<use xlink:href="#SVGID_00000020367672598661175120000014117259246711886209_"  style="overflow:visible;"/>
					</clipPath>
					<g style="clip-path:url(#SVGID_00000111880694140245391950000013632043695813182355_);">
						<g>
							<defs>
								<rect id="SVGID_00000164473483658859019560000007356643021429632923_" x="751.5" y="858.3" width="222" height="228.3"/>
							</defs>
							<clipPath id="SVGID_00000129918596291986421450000003689651887542819214_">
								<use xlink:href="#SVGID_00000164473483658859019560000007356643021429632923_"  style="overflow:visible;"/>
							</clipPath>
							<g style="clip-path:url(#SVGID_00000129918596291986421450000003689651887542819214_);">
								
									<image style="overflow:visible;" width="926" height="952" xlink:href="78EBCDC7.jpg"  transform="matrix(0.24 0 0 0.24 751.44 858.2399)">
								</image>
							</g>
						</g>
					</g>
				</g>
			</g>
		</g>
	</g>
</g>
<g>
	<defs>
		<rect id="SVGID_00000065767222965770375240000002114908932655728513_" x="807.6" y="916.1" width="124.5" height="124.5"/>
	</defs>
	<clipPath id="SVGID_00000106861580571606441010000013018710398106990482_">
		<use xlink:href="#SVGID_00000065767222965770375240000002114908932655728513_"  style="overflow:visible;"/>
	</clipPath>
	<path style="clip-path:url(#SVGID_00000106861580571606441010000013018710398106990482_);" d="M845.9,943.5c2.3,0,4.2-1.9,4.2-4.2
		c0-2.3-1.9-4.2-4.2-4.2c-2.3,0-4.2,1.9-4.2,4.2C841.7,941.6,843.6,943.5,845.9,943.5"/>
	<path style="clip-path:url(#SVGID_00000106861580571606441010000013018710398106990482_);" d="M885.2,943.5c2.3,0,4.2-1.9,4.2-4.2
		c0-2.3-1.9-4.2-4.2-4.2c-2.3,0-4.2,1.9-4.2,4.2C881,941.6,882.9,943.5,885.2,943.5"/>
	<path style="clip-path:url(#SVGID_00000106861580571606441010000013018710398106990482_);" d="M859.8,962.8c-0.9,0-1.8,0.4-2.5,1
		L831.1,990c-3.9,3.9-6,9-6,14.5c0,5.5,2.1,10.7,6,14.5l5.1,5.1c3.9,3.9,9,6,14.5,6c5.5,0,10.7-2.1,14.5-6l10.4-10.4
		c0.7-0.7,1-1.5,1-2.5c0-0.9-0.4-1.8-1-2.5c-1.2-1.2-3.2-1.4-4.5-0.3c-1.4,1-3.3,0.9-4.5-0.3c-1.2-1.2-1.3-3.1-0.3-4.5
		c1-1.4,0.9-3.3-0.3-4.5c-1.1-1.1-3.3-1.2-4.8-0.3c-1.4,0.9-3.3,0.7-4.4-0.5c-1.1-1.2-1.3-3.1-0.3-4.4c1-1.4,0.9-3.3-0.3-4.5
		c-1.2-1.2-3.2-1.4-4.6-0.4c-1.4,1.1-3.5,0.9-4.7-0.5c-1.2-1.4-1.1-3.4,0.2-4.7l8.1-8.1c0,0,0,0,0.1-0.1l7.1-7.1
		c1.4-1.4,1.4-3.6,0-4.9C861.7,963.1,860.8,962.8,859.8,962.8"/>
	<path style="clip-path:url(#SVGID_00000106861580571606441010000013018710398106990482_);" d="M818.1,974.8h18.5l15.9-15.9
		c2-2,4.6-3,7.3-3c2.8,0,5.4,1.1,7.3,3c4,4,4,10.6,0,14.7l-1.2,1.2h55.7v-48.3H818.1V974.8 M913.3,966.2c-0.5,2.7-3,4.6-6,4.6
		c-2.4,0-4.6-1-6.1-2.6c-0.8-0.9-0.7-2.3,0.2-3.1c0.9-0.8,2.3-0.7,3.1,0.2c0.7,0.7,1.7,1.2,2.9,1.2c1,0,1.6-0.6,1.7-1
		c0.1-0.3-0.5-0.8-1.3-1.1c-2-0.7-3.8-1.5-3.9-1.6c-0.1,0-0.2-0.1-0.3-0.2c-1.5-1-2.3-2.8-2.1-4.6c0.3-1.9,1.7-3.5,3.7-4.1
		c3-0.9,5.9,0.5,7.1,1.5c0.9,0.8,1,2.2,0.2,3.1c-0.8,0.9-2.1,1-3,0.3c0,0-1.5-1.2-3-0.7c-0.4,0.1-0.6,0.3-0.6,0.6
		c0,0.1,0,0.2,0.1,0.3c0.5,0.2,1.9,0.8,3.4,1.4C912.7,961.6,913.6,964.2,913.3,966.2z M897,930.7c1.2-0.2,2.3,0.5,2.6,1.7l1,5.3
		l1.7-5.3c0.2-0.7,0.7-1.3,1.5-1.6c1.2-0.4,2.4,0.3,2.7,1.4l1.7,5.5l1-5.2c0.2-1.2,1.4-1.9,2.6-1.7c1.2,0.2,1.9,1.4,1.7,2.6L911,946
		c0,0.1,0,0.2-0.1,0.3c-0.3,1-1.3,1.7-2.3,1.7c0,0,0,0,0,0c-1,0-2-0.7-2.3-1.6c0,0,0-0.1,0-0.1l-1.8-5.9l-1.8,5.9c0,0,0,0,0,0.1
		c-0.3,1-1.3,1.7-2.3,1.7c0,0,0,0,0,0c-1,0-2-0.7-2.3-1.6c0-0.1-0.1-0.2-0.1-0.3l-2.5-12.6C895.1,932.1,895.9,931,897,930.7z
		 M894.1,955.8c0-1.2,1-2.2,2.2-2.2c1.2,0,2.2,1,2.2,2.2v8.8c0,2.4-1.3,4.3-3.6,5.5c-0.9,0.5-2,0.7-3.1,0.7h0c-1.3,0-2.5-0.3-3.5-1
		c-2-1.3-3-3-3-5.2v-8.8c0-1.2,1-2.2,2.2-2.2c1.2,0,2.2,1,2.2,2.2v8.8c0,0.5,0.1,0.9,1,1.5c0.4,0.2,0.7,0.3,1.2,0.3c0,0,0,0,0,0
		c0.4,0,0.8-0.1,1.1-0.3c1.2-0.6,1.2-1.2,1.2-1.6V955.8z M885.2,930.7c4.7,0,8.6,3.9,8.6,8.6c0,4.7-3.9,8.6-8.6,8.6
		c-4.7,0-8.6-3.9-8.6-8.6C876.6,934.6,880.5,930.7,885.2,930.7z M867.6,932.9c0-1.2,1-2.2,2.2-2.2c1.2,0,2.2,1,2.2,2.2v10.7
		c0.7,0,1.5,0,2.3,0c0,0,0,0,0,0c1.2,0,2.2,1,2.2,2.2c0,1.2-1,2.2-2.2,2.2c-1.5,0-2.5,0-3.2,0c-1.4,0-1.5,0-1.7,0
		c-1-0.2-1.8-1.1-1.8-2.1V932.9z M857,932.9c0-1.2,1-2.2,2.2-2.2c1.2,0,2.2,1,2.2,2.2v10.7c0.7,0,1.5,0,2.3,0c0,0,0,0,0,0
		c1.2,0,2.2,1,2.2,2.2c0,1.2-1,2.2-2.2,2.2c-1.5,0-2.5,0-3.2,0c-1.4,0-1.5,0-1.7,0c-1-0.2-1.8-1.1-1.8-2.1V932.9z M845.9,930.7
		c4.7,0,8.6,3.9,8.6,8.6c0,4.7-3.9,8.6-8.6,8.6c-4.7,0-8.6-3.9-8.6-8.6C837.3,934.6,841.2,930.7,845.9,930.7z M826.2,933
		c0-1.2,1-2.2,2.2-2.2h5.2c1.2,0,2.2,1,2.2,2.2c0,1.2-1,2.2-2.2,2.2h-3v1.9h2.6c1.2,0,2.2,1,2.2,2.2c0,1.2-1,2.2-2.2,2.2h-2.6v4.3
		c0,1.2-1,2.2-2.2,2.2c-1.2,0-2.2-1-2.2-2.2V933z"/>
</g>
<g>
	<defs>
		<rect id="SVGID_00000068666136753001693090000014668759689769753738_" x="807.7" y="916.1" width="124.4" height="124.5"/>
	</defs>
	<clipPath id="SVGID_00000064322101030341336870000007654012869943881352_">
		<use xlink:href="#SVGID_00000068666136753001693090000014668759689769753738_"  style="overflow:visible;"/>
	</clipPath>
	<path style="clip-path:url(#SVGID_00000064322101030341336870000007654012869943881352_);" d="M925.1,916.1H814.6c-3.8,0-7,3.1-7,7
		v55.2c0,3.8,3.1,7,7,7h6.8c-4.4,5.5-6.8,12.2-6.8,19.4c0,8.3,3.2,16.1,9.1,21.9l5.1,5.1c5.8,5.8,13.6,9.1,21.9,9.1
		c8.3,0,16.1-3.2,21.9-9.1l10.4-10.4c2.6-2.6,4.1-6.1,4.1-9.8c0-3.7-1.4-7.2-4.1-9.8c-1.7-1.7-3.8-2.9-6.1-3.6
		c-0.6-2.3-1.8-4.4-3.6-6.1c-1.7-1.7-3.8-2.9-6.2-3.5c-0.3-1.1-0.7-2.1-1.3-3.1h59.2c3.8,0,7-3.1,7-7v-55.2
		C932.1,919.2,928.9,916.1,925.1,916.1 M928.5,978.2c0,1.9-1.5,3.4-3.4,3.4h-66l-0.9,0.9c1,0.5,2,1.2,2.9,2c1.9,1.9,2.9,4.3,3,6.8
		c2.5,0.1,4.9,1.1,6.7,2.9c1.8,1.8,2.8,4.2,3,6.7c2.5,0.2,4.9,1.2,6.7,3c2,2,3,4.6,3,7.3c0,2.8-1.1,5.4-3,7.3l-10.4,10.4
		c-5.4,5.4-12.4,8-19.4,8c-7,0-14.1-2.7-19.4-8l-5.1-5.1c-10.7-10.7-10.7-28.1,0-38.8l3.5-3.5h-15.1c-1.9,0-3.4-1.5-3.4-3.4v-55.2
		c0-1.9,1.5-3.4,3.4-3.4h110.5c1.9,0,3.4,1.5,3.4,3.4V978.2z"/>
</g>
</svg>
