<svg xmlns="http://www.w3.org/2000/svg" width="23.5" height="23.5" viewBox="0 0 23.5 23.5">
  <g id="Group_845" data-name="Group 845" transform="translate(-333.308 -376.65)">
    <path id="Path_927" data-name="Path 927" d="M350.268,380.55a2.56,2.56,0,1,0,2.56,2.56A2.567,2.567,0,0,0,350.268,380.55Zm0,3.75a1.19,1.19,0,1,1,1.18-1.19A1.186,1.186,0,0,1,350.268,384.3Z" fill="none"/>
    <path id="Path_928" data-name="Path 928" d="M354.248,376.65h-6.4a5.189,5.189,0,0,0-3.71,1.55l-10.08,10.1a2.547,2.547,0,0,0,0,3.61l7.48,7.49a2.559,2.559,0,0,0,3.62,0l10.11-10.1a5.22,5.22,0,0,0,1.54-3.71v-6.37A2.567,2.567,0,0,0,354.248,376.65Zm1.19,8.94a3.908,3.908,0,0,1-1.14,2.75l-10.11,10.1a1.2,1.2,0,0,1-.84.34,1.224,1.224,0,0,1-.84-.35l-7.48-7.48a1.2,1.2,0,0,1,0-1.68l10.08-10.11a3.893,3.893,0,0,1,2.74-1.13h6.4a1.186,1.186,0,0,1,1.19,1.19Z"/>
    <path id="Path_929" data-name="Path 929" d="M350.268,380.55a2.56,2.56,0,1,0,2.56,2.56A2.567,2.567,0,0,0,350.268,380.55Zm0,3.75a1.19,1.19,0,1,1,1.18-1.19A1.186,1.186,0,0,1,350.268,384.3Z" fill="#fb3030"/>
  </g>
</svg>
