<svg xmlns="http://www.w3.org/2000/svg" width="24.534" height="24.5" viewBox="0 0 24.534 24.5">
  <g id="Group_856" data-name="Group 856" transform="translate(-420.529 -359.829)">
    <path id="Path_930" data-name="Path 930" d="M434.859,366.963v3.2h8.529v-3.2h-8.511l-.008.005Z" transform="translate(0.611 0.304)" fill="none"/>
    <path id="Path_931" data-name="Path 931" d="M437.574,364.133a1.945,1.945,0,0,0-1.366-3.316,1.959,1.959,0,0,0-1.376.573,8.554,8.554,0,0,0-2.023,4.744v.021h.052A8.641,8.641,0,0,0,437.574,364.133Z" transform="translate(0.524 0.042)" fill="none"/>
    <rect id="Rectangle_195" data-name="Rectangle 195" width="0.014" height="0.008" transform="translate(435.471 367.26)" fill="none"/>
    <path id="Path_932" data-name="Path 932" d="M430.759,366.957v.015h0v3.186h3.2v-3.2h0v-.005Z" transform="translate(0.436 0.304)" fill="none"/>
    <path id="Path_933" data-name="Path 933" d="M429.708,366.957l.022.015h.011v-.015Z" transform="translate(0.392 0.304)" fill="none"/>
    <path id="Path_934" data-name="Path 934" d="M430.056,366.957h-8.507v3.2h8.539v-3.186h-.011Z" transform="translate(0.044 0.304)" fill="none"/>
    <rect id="Rectangle_196" data-name="Rectangle 196" width="7.466" height="11.73" transform="translate(435.471 371.536)" fill="none"/>
    <rect id="Rectangle_197" data-name="Rectangle 197" width="3.201" height="11.73" transform="translate(431.196 371.536)" fill="none"/>
    <rect id="Rectangle_198" data-name="Rectangle 198" width="7.465" height="11.73" transform="translate(422.667 371.536)" fill="none"/>
    <path id="Path_935" data-name="Path 935" d="M432.007,366.155v-.021a8.582,8.582,0,0,0-2.033-4.744,1.935,1.935,0,0,0-1.366-.573,1.945,1.945,0,0,0-1.376,3.316,8.671,8.671,0,0,0,4.713,2.023Z" transform="translate(0.262 0.042)" fill="none"/>
    <path id="Path_936" data-name="Path 936" d="M444.531,365.937h-7.491L435.488,367H444v3.2H435.47v-3.2H434.4v3.2h-3.2v-3.186h-1.063V370.2h-8.539V367H430.1l-1.559-1.064h-7.48a.534.534,0,0,0-.532.532v4.264a.536.536,0,0,0,.532.542h.532v12.262a.53.53,0,0,0,.542.532h21.333a.527.527,0,0,0,.532-.532V371.275h.532a.53.53,0,0,0,.532-.542v-4.264A.527.527,0,0,0,444.531,365.937Zm-14.4,17.068h-7.465v-11.73h7.465Zm4.264,0h-3.2v-11.73h3.2Zm8.539,0H435.47v-11.73h7.465Z" transform="translate(0 0.261)"/>
    <path id="Path_937" data-name="Path 937" d="M429.914,367.261v.015h1.063v-.015h3.2v.005h1.074v-.005h.018l1.553-1.064h-.006a6.767,6.767,0,0,0,1.814-1.272,2.989,2.989,0,0,0,0-4.244,3.067,3.067,0,0,0-4.244,0,8.212,8.212,0,0,0-1.8,3.055,8.354,8.354,0,0,0-1.8-3.055,3.08,3.08,0,0,0-4.254,0,3.008,3.008,0,0,0,0,4.244,7.168,7.168,0,0,0,1.825,1.272h-.027l1.559,1.064Zm3.2-1.084a8.554,8.554,0,0,1,2.023-4.744,1.959,1.959,0,0,1,1.376-.573,1.945,1.945,0,0,1,1.366,3.316,8.641,8.641,0,0,1-4.713,2.023h-.052Zm-5.839-2a1.939,1.939,0,1,1,2.742-2.742,8.582,8.582,0,0,1,2.033,4.744v.021h-.063A8.671,8.671,0,0,1,427.276,364.175Z" transform="translate(0.218)" fill="#fb3030"/>
  </g>
</svg>
