<svg xmlns="http://www.w3.org/2000/svg" width="23.479" height="23.476" viewBox="0 0 23.479 23.476">
  <g id="Group_857" data-name="Group 857" transform="translate(-455.484 -359.806)">
    <path id="Path_938" data-name="Path 938" d="M478.291,370.87h-6.457a3.439,3.439,0,0,0,0,6.878h3.94v3.017a1.174,1.174,0,0,1-1.172,1.173H459.845a3.02,3.02,0,0,1-3.016-3.018V365.086a3.019,3.019,0,0,1,3.016-3.016h1.845a.672.672,0,1,0,0-1.344h-1.845a4.365,4.365,0,0,0-4.361,4.36V378.92a4.366,4.366,0,0,0,4.361,4.362H474.6a2.519,2.519,0,0,0,2.516-2.517v-3.017h1.173a.673.673,0,0,0,.672-.672v-5.534A.673.673,0,0,0,478.291,370.87Zm-.673,5.534h-5.784a2.094,2.094,0,0,1,0-4.189h5.784Z"/>
    <path id="Path_939" data-name="Path 939" d="M459.154,365.23a.669.669,0,0,0,.691.529H474.6a1.174,1.174,0,0,1,1.172,1.172v.923a.672.672,0,0,0,1.344,0v-.923a2.5,2.5,0,0,0-.738-1.778,2.534,2.534,0,0,0-1.779-.738h-.464l-1.677-4.188a.674.674,0,0,0-.867-.376l-11.985,4.609A.68.68,0,0,0,459.154,365.23Zm12.305-3.887,1.224,3.072h-9.214Z" fill="#fb3030"/>
  </g>
</svg>
