<?xml version="1.0" encoding="UTF-8"?>
<!DOCTYPE svg PUBLIC "-//W3C//DTD SVG 1.1//EN" "http://www.w3.org/Graphics/SVG/1.1/DTD/svg11.dtd">
<!-- Creator: CorelDRAW 2019 (64-Bit) -->
<svg xmlns="http://www.w3.org/2000/svg" xml:space="preserve" width="1.48459in" height="1.43279in" version="1.1" style="shape-rendering:geometricPrecision; text-rendering:geometricPrecision; image-rendering:optimizeQuality; fill-rule:evenodd; clip-rule:evenodd"
viewBox="0 0 1091.64 1053.55"
 xmlns:xlink="http://www.w3.org/1999/xlink">
 <defs>
  <style type="text/css">
   <![CDATA[
    .str2 {stroke:#111214;stroke-width:30.64;stroke-miterlimit:2.61313}
    .str1 {stroke:#373435;stroke-width:20.43;stroke-miterlimit:2.61313}
    .str0 {stroke:#111214;stroke-width:20.43;stroke-miterlimit:2.61313}
    .str3 {stroke:#111214;stroke-width:15.32;stroke-miterlimit:2.61313;stroke-dasharray:76.599802 76.599802}
    .fil2 {fill:none}
    .fil1 {fill:#FEFEFE}
    .fil0 {fill:#ED3237}
    .fil6 {fill:#111214}
    .fil3 {fill:#111214}
    .fil4 {fill:#FEFEFE}
    .fil5 {fill:#111214;fill-rule:nonzero}
   ]]>
  </style>
 </defs>
 <g id="Layer_x0020_1">
  <metadata id="CorelCorpID_0Corel-Layer"/>
  <g id="_2187625814752">
   <path class="fil0 str0" d="M51.87 236.36l680.85 -224.17c21.42,-7.05 44.62,5.45 51.31,26.97l94.75 304.86c6.69,21.53 -5.57,44.27 -26.98,51.32l-680.85 224.17c-21.41,7.05 -44.62,-5.45 -51.31,-26.98l-94.74 -304.86c-6.69,-21.53 5.56,-44.26 26.98,-51.31z"/>
   <path class="fil0 str1" d="M43.59 262.98l848.74 -160.39c22.15,-4.19 43.7,10.51 47.89,32.67l59.28 313.69c4.19,22.15 -10.51,43.71 -32.67,47.89l-848.74 160.39c-22.15,4.19 -43.7,-10.52 -47.89,-32.67l-59.28 -313.69c-4.19,-22.15 10.51,-43.7 32.67,-47.89z"/>
   <path class="fil1 str2" d="M72.57 260.02l883.91 0c30.75,0 55.91,25.16 55.91,55.91l0 666.38c0,30.75 -25.16,55.91 -55.91,55.91l-883.91 0c-30.75,0 -55.91,-25.16 -55.91,-55.91l0 -666.38c0,-30.75 25.16,-55.91 55.91,-55.91z"/>
   <path class="fil2 str2" d="M1047.21 560.68l-148.21 0c-52.03,0 -94.59,42.57 -94.59,94.59l0 0c0,52.03 42.57,94.59 94.59,94.59l148.21 0c16.01,0 29.11,-13.1 29.11,-29.11l0 -130.97c0,-16.01 -13.1,-29.11 -29.11,-29.11z"/>
   <path class="fil3" d="M892.86 629.6c13.33,0 24.13,10.8 24.13,24.13 0,13.33 -10.8,24.13 -24.13,24.13 -13.33,0 -24.13,-10.8 -24.13,-24.13 0,-13.33 10.8,-24.13 24.13,-24.13z"/>
   <path class="fil2 str3" d="M122.35 313.28l784.35 0c26.92,0 48.95,22.03 48.95,48.95l0 583.42c0,26.92 -22.03,48.95 -48.95,48.95l-784.35 0c-26.92,0 -48.95,-22.03 -48.95,-48.95l0 -583.42c0,-26.92 22.03,-48.95 48.95,-48.95z"/>
   <g>
    <g>
     <path class="fil4" d="M341.05 615.31l0 211.17c0,0 39.37,61.81 78.53,-0.22 0,0 49.27,67.75 94.15,-12.76 0,0 44.43,51.91 85.79,-19.36l0 -258.25c0,0 -42.68,-110.86 -145.62,-102.06 -102.95,8.8 -133.3,91.4 -133.3,91.4l0 69.07c0,0 0,20.24 20.46,21.01zm14.57 -44.43c0,0 2.97,33.87 -14.57,44.43l14.57 -44.43z"/>
    </g>
    <path class="fil5" d="M346.91 618.35l0 206.36c5.78,8.17 36.79,47.42 67.71,-1.56 1.72,-2.73 5.33,-3.55 8.07,-1.83 0.68,0.43 1.24,0.97 1.67,1.59 2.15,2.88 44.8,58.53 84.25,-12.24 1.57,-2.82 5.13,-3.84 7.95,-2.27 0.65,0.36 1.21,0.83 1.66,1.37 2.12,2.4 39.46,43.22 75.42,-17.21l0 -255.53c-4.48,-10.84 -46.21,-105.31 -139.27,-97.35 -92.83,7.93 -124.2,77.53 -127.92,86.65l0 67.98 -0.01 0.33c0.12,2.24 1.31,13.22 13,14.69 12.8,-9.74 10.34,-37.88 10.33,-37.96 -0.27,-3.23 2.13,-6.06 5.36,-6.33 3.22,-0.26 6.06,2.14 6.32,5.36 0.01,0.1 2.98,33.95 -14.55,47.95zm-11.73 208.13l0 -205.99c-18.35,-3.76 -20.22,-21.77 -20.42,-25.46 -0.03,-0.24 -0.04,-0.48 -0.04,-0.73l0 -69.07c0,-0.69 0.13,-1.4 0.39,-2.08 0.1,-0.25 31.63,-86.04 138.3,-95.15 105.03,-8.98 149.5,100.56 151.48,105.56 0.32,0.72 0.49,1.51 0.49,2.35l0 258.25 -0.01 0c0,1 -0.25,2.01 -0.79,2.93 -36.34,62.63 -75.31,38.24 -89.6,25.81 -39.17,63.38 -80.6,28.54 -94.9,13.05 -40.62,56.01 -80.05,-0.43 -83.67,-5.85 -0.77,-1 -1.24,-2.25 -1.24,-3.6z"/>
    <path class="fil6" d="M462.34 558.99c13.85,0 25.08,16.55 25.08,36.96 0,20.41 -11.23,36.95 -25.08,36.95 -13.85,0 -25.08,-16.54 -25.08,-36.95 0,-20.41 11.23,-36.96 25.08,-36.96z"/>
    <path class="fil6" d="M549.12 565.33c10.57,0 19.14,12.63 19.14,28.2 0,15.57 -8.57,28.2 -19.14,28.2 -10.57,0 -19.14,-12.63 -19.14,-28.2 0,-15.57 8.57,-28.2 19.14,-28.2z"/>
   </g>
  </g>
 </g>
</svg>
