<?xml version="1.0" encoding="UTF-8"?>
<!DOCTYPE svg PUBLIC "-//W3C//DTD SVG 1.1//EN" "http://www.w3.org/Graphics/SVG/1.1/DTD/svg11.dtd">
<!-- Creator: CorelDRAW 2019 (64-Bit) -->
<svg xmlns="http://www.w3.org/2000/svg" xml:space="preserve" width="2.44893in" height="3.12237in" version="1.1" style="shape-rendering:geometricPrecision; text-rendering:geometricPrecision; image-rendering:optimizeQuality; fill-rule:evenodd; clip-rule:evenodd"
viewBox="0 0 2448.94 3122.37"
 xmlns:xlink="http://www.w3.org/1999/xlink"
 enable-background="new 0 35.8 595.3 764">
 <defs>
  <style type="text/css">
   <![CDATA[
    .fil0 {fill:#696B79}
    .fil1 {fill:#E01B24}
   ]]>
  </style>
 </defs>
 <g id="Layer_x0020_1">
  <metadata id="CorelCorpID_0Corel-Layer"/>
  <g id="_2187425426944">
   <g>
    <path id="Shape" class="fil0" d="M2226.38 1043.54c-22.25,-182.99 -142.6,-307.87 -334.66,-307.87l-169.39 0c-22.26,-414.61 -120.35,-735.67 -490.86,-735.67 -379.17,0 -468.19,321.06 -490.86,736.08l-187.52 0c-191.65,0 -316.52,129.41 -334.66,307.87l-218.43 1721.51 0 9.07c0,191.65 156.2,347.85 334.66,347.85l1779.62 0c182.99,0 334.66,-160.74 334.66,-347.85l-222.56 -1730.99 0 0zm-999.03 -856.01c214.31,0 285.61,182.99 307.87,548.56l-615.74 0c17.72,-365.57 84.9,-548.56 307.87,-548.56zm883.21 2756.39l-1780.03 0c-80.37,0 -151.67,-71.3 -151.67,-160.74l218.43 -1730.57c13.19,-93.56 80.37,-129.41 151.67,-129.41l182.99 0c0,44.51 0,160.74 0,240.69 0,49.05 39.98,93.56 89.02,93.56 49.05,0 93.56,-44.51 93.56,-93.56 0,-84.9 0,-191.64 0,-240.69l629.34 0c0,44.51 4.53,156.2 4.53,240.69 0,49.05 39.98,93.56 89.02,93.56 49.04,0 89.02,-44.51 89.02,-93.56 0,-80.37 0,-147.13 0,-240.69l164.86 0c71.3,0 138.48,31.32 151.67,129.41l218.43 1730.57c-3.71,84.9 -70.47,160.74 -150.84,160.74l0 0z"/>
    <path class="fil1" d="M1075.68 2636.05c-17.72,0 -35.85,-4.54 -53.58,-17.72 -39.98,-26.79 -49.04,-84.9 -22.25,-124.88l285.61 -396.89 -272.01 0c-31.32,0 -62.65,-17.72 -75.83,-44.51 -17.72,-26.79 -13.19,-62.65 0,-89.02l356.91 -575.34c26.79,-39.98 80.37,-53.58 124.88,-31.32 39.98,26.79 53.58,80.37 26.79,124.88l-272.01 437.28 285.61 0c35.86,0 62.65,17.72 80.37,49.04 13.19,31.32 13.19,66.77 -9.07,93.56l-388.23 539.9c-13.6,21.43 -40.39,35.04 -67.18,35.04z"/>
   </g>
  </g>
 </g>
</svg>
