<?xml version="1.0" encoding="UTF-8"?>
<!DOCTYPE svg PUBLIC "-//W3C//DTD SVG 1.1//EN" "http://www.w3.org/Graphics/SVG/1.1/DTD/svg11.dtd">
<!-- Creator: CorelDRAW 2019 (64-Bit) -->
<svg xmlns="http://www.w3.org/2000/svg" xml:space="preserve" width="2.42132in" height="2.47737in" version="1.1" style="shape-rendering:geometricPrecision; text-rendering:geometricPrecision; image-rendering:optimizeQuality; fill-rule:evenodd; clip-rule:evenodd"
viewBox="0 0 2421.32 2477.37"
 xmlns:xlink="http://www.w3.org/1999/xlink"
 enable-background="new 0 111.7 595.3 609.8">
 <defs>
  <style type="text/css">
   <![CDATA[
    .fil1 {fill:#696B79}
    .fil0 {fill:#E01B24}
   ]]>
  </style>
 </defs>
 <g id="Layer_x0020_1">
  <metadata id="CorelCorpID_0Corel-Layer"/>
  <g id="_2187287483072">
   <g>
    <path class="fil0" d="M1476.29 993.26l-138.48 0c-7.83,-43.69 -27.61,-86.96 -55.22,-118.69l193.71 0c31.74,0 55.22,-23.91 55.22,-55.23 0,-31.32 -23.9,-55.22 -55.22,-55.22l-542.38 -0c-31.73,0 -55.22,23.91 -55.22,55.23 0,31.32 23.91,55.22 55.22,55.22l122.82 0c75.01,0 142.6,47.39 166.09,118.69l-284.79 0c-31.73,0 -55.22,23.91 -55.22,55.23 0,31.73 23.91,55.22 55.22,55.22l284.79 0c-23.91,71.3 -91.08,118.69 -166.09,118.69l-122.82 0c-19.78,0 -39.56,11.95 -51.52,31.74 -7.83,19.78 -7.83,43.69 4.12,59.35l352.38 466.54c11.95,15.66 27.61,23.9 43.69,23.9 11.95,0 23.9,-4.12 31.73,-11.95 11.95,-7.83 19.78,-23.9 23.91,-35.44 4.12,-15.66 0,-31.74 -11.95,-43.69l-281.08 -375.87 7.83 0c138.48,0 253.06,-98.91 281.08,-233.27l138.07 0c31.74,0 55.23,-23.91 55.23,-55.23 0.41,-31.32 -19.78,-55.23 -51.11,-55.23z"/>
    <path class="fil1" d="M1207.16 0c-664.78,0 -1207.16,534.13 -1207.16,1187.38 0,653.24 541.97,1186.96 1206.75,1186.96 173.92,0 348.26,-39.56 506.52,-110.87l-19.78 91.08c-11.95,51.52 19.78,106.75 75.01,118.7 7.83,0 15.66,4.12 23.9,4.12 43.69,0 86.96,-31.73 94.79,-75.01l79.13 -340.43c11.95,-43.69 -11.95,-91.08 -55.22,-110.87l-284.79 -134.35c-47.4,-23.91 -106.74,-4.12 -130.65,47.39 -23.91,47.4 -4.12,106.74 47.4,130.65l142.6 67.18c-146.31,75.01 -304.57,114.57 -471.08,114.57 -558.04,0 -1008.92,-443.05 -1008.92,-989.14 0,-546.08 451.29,-989.14 1008.92,-989.14 557.63,0 1008.92,443.05 1008.92,989.14 0,55.23 43.69,98.91 98.91,98.91 55.22,0 98.91,-43.69 98.91,-98.91 -7.42,-656.95 -549.38,-1187.38 -1214.16,-1187.38z"/>
   </g>
  </g>
 </g>
</svg>
