<?xml version="1.0" encoding="UTF-8"?>
<!DOCTYPE svg PUBLIC "-//W3C//DTD SVG 1.1//EN" "http://www.w3.org/Graphics/SVG/1.1/DTD/svg11.dtd">
<!-- Creator: CorelDRAW 2019 (64-Bit) -->
<svg xmlns="http://www.w3.org/2000/svg" xml:space="preserve" width="2.4139in" height="2.78153in" version="1.1" style="shape-rendering:geometricPrecision; text-rendering:geometricPrecision; image-rendering:optimizeQuality; fill-rule:evenodd; clip-rule:evenodd"
viewBox="0 0 2413.91 2781.53"
 xmlns:xlink="http://www.w3.org/1999/xlink"
 enable-background="new 0 83.5 595.3 677.1">
 <defs>
  <style type="text/css">
   <![CDATA[
    .fil1 {fill:#696B79}
    .fil0 {fill:#E01B24}
   ]]>
  </style>
 </defs>
 <g id="Layer_x0020_1">
  <metadata id="CorelCorpID_0Corel-Layer"/>
  <g id="_2187423730960">
   <g>
    <path class="fil0" d="M2208.25 2623.27c-589.77,-47.4 -886.51,-459.12 -902.17,-1258.27l249.34 158.26c11.95,7.83 27.61,11.95 43.69,11.95 27.61,0 51.52,-11.95 67.18,-35.44 23.9,-35.44 11.95,-86.96 -23.91,-110.87l-387.82 -245.22c-27.61,-15.66 -59.35,-15.66 -83.25,0l-387.82 245.22c-35.44,23.91 -47.4,71.3 -23.91,110.87 23.91,39.57 71.3,47.4 110.87,23.91l272.84 -173.93c-11.54,806.56 -308.28,1226.12 -901.76,1273.51 -43.69,4.12 -75.01,43.69 -71.3,86.96 4.12,39.57 39.56,71.3 79.13,71.3 4.12,0 4.12,0 7.83,0 510.64,-43.69 834.99,-324.35 973.47,-834.99 138.48,514.35 462.84,795.43 973.47,834.99 4.12,0 4.12,0 7.83,0 39.57,0 75.01,-31.73 79.13,-71.3 -7.83,-43.28 -39.57,-82.84 -82.84,-86.96z"/>
    <path class="fil1" d="M1206.75 2421.74c-664.78,0 -1206.75,-542.38 -1206.75,-1210.87 0,-668.49 541.97,-1210.87 1206.75,-1210.87 664.78,0 1207.16,541.97 1207.16,1210.87 0,668.9 -542.38,1210.87 -1207.16,1210.87zm0 -2223.91c-558.04,0 -1008.92,455 -1008.92,1013.04 0,558.04 451.29,1013.04 1008.92,1013.04 557.63,0 1008.92,-455 1008.92,-1013.04 0,-558.04 -450.88,-1013.04 -1008.92,-1013.04z"/>
   </g>
  </g>
 </g>
</svg>
