<?xml version="1.0" encoding="UTF-8"?>
<!DOCTYPE svg PUBLIC "-//W3C//DTD SVG 1.1//EN" "http://www.w3.org/Graphics/SVG/1.1/DTD/svg11.dtd">
<!-- Creator: CorelDRAW 2019 (64-Bit) -->
<svg xmlns="http://www.w3.org/2000/svg" xml:space="preserve" width="2.45267in" height="2.60926in" version="1.1" style="shape-rendering:geometricPrecision; text-rendering:geometricPrecision; image-rendering:optimizeQuality; fill-rule:evenodd; clip-rule:evenodd"
viewBox="0 0 2452.67 2609.25"
 xmlns:xlink="http://www.w3.org/1999/xlink"
 enable-background="new 0 104.4 595.3 644">
 <defs>
  <style type="text/css">
   <![CDATA[
    .fil0 {fill:#696B79}
    .fil1 {fill:#E01B24}
   ]]>
  </style>
 </defs>
 <g id="Layer_x0020_1">
  <metadata id="CorelCorpID_0Corel-Layer"/>
  <g id="_2187423751920">
   <g>
    <path id="Shape" class="fil0" d="M1224.9 2609.25c-109.22,0 -206.48,-58.52 -257.17,-155.79l-7.83 -11.54c-15.67,-31.32 -42.86,-74.18 -70.07,-81.61 -23.49,-7.83 -54.4,0 -101.39,23.49l-11.54 3.71c-97.26,46.57 -210.19,35.03 -300.04,-31.32 -85.31,-66.35 -131.88,-171.45 -120.34,-276.54l0 -11.54c15.66,-105.09 -3.71,-136.42 -105.1,-152.08l-15.66 -3.71c-105.09,-23.49 -190.82,-97.26 -222.14,-202.36 -31.32,-105.09 -7.83,-214.31 62.23,-295.92l7.83 -11.54c74.18,-74.18 74.18,-112.93 0,-190.82l-7.83 -11.54c-69.65,-82.43 -93.14,-191.65 -61.82,-296.74 31.32,-105.09 116.63,-179.28 222.14,-202.36l15.66 -3.71c101.39,-15.66 120.76,-46.57 105.1,-152.08l0 -15.66c-11.54,-109.22 31.32,-214.31 120.76,-276.55 85.72,-66.35 198.65,-77.89 300.03,-31.32l11.54 3.71c42.86,23.49 77.89,31.32 101.39,23.49 27.2,-7.83 54.4,-50.69 70.06,-81.6l7.83 -11.54c54.4,-97.27 152.08,-155.79 257.18,-155.79 109.22,0 206.48,58.52 257.17,155.79l7.83 11.54c15.66,31.32 42.86,74.18 70.07,81.6 23.49,7.83 54.4,0 101.39,-23.49l11.54 -3.71c97.26,-46.57 210.19,-35.03 300.03,31.32 85.73,66.35 132.3,171.45 120.76,276.55l0 15.66c-15.66,105.09 3.71,136.42 105.09,152.08l15.66 3.71c105.09,23.49 190.82,97.26 222.14,202.36 31.32,105.09 7.83,214.31 -62.23,295.91l-7.83 11.54c-74.18,74.18 -74.18,112.93 0,190.82l7.83 11.54c70.06,81.6 97.26,190.82 62.23,295.92 -31.32,105.09 -116.63,179.28 -222.14,202.36l-15.66 3.71c-101.39,15.66 -120.76,46.57 -105.09,152.08l0 15.66c11.54,109.22 -31.32,214.31 -120.76,276.54 -85.72,66.35 -198.65,77.89 -300.03,31.32l-11.54 -3.71c-46.57,-23.49 -77.89,-31.32 -101.39,-23.49 -27.2,7.83 -54.41,50.69 -70.07,81.6l-7.83 11.54c-55.23,93.96 -152.91,152.49 -258,152.49zm-120.76 -241.51c23.49,46.57 70.06,77.89 120.76,77.89 50.69,0 97.26,-31.32 120.76,-77.89l7.83 -11.54c42.86,-81.61 93.55,-132.3 159.5,-152.08 62.23,-19.37 132.3,-11.54 214.31,27.2l11.54 3.71c46.57,23.49 97.26,19.37 140.13,-11.54 42.86,-30.91 62.23,-81.61 54.4,-136.42l0 -11.54c-23.49,-179.28 54.4,-288.08 229.56,-323.12l11.54 -3.71c50.69,-7.83 93.55,-42.86 109.22,-93.55 15.66,-50.69 3.71,-105.09 -35.03,-144.25l-7.83 -11.54c-120.76,-132.3 -120.76,-265.01 0,-397.3l7.83 -11.54c38.74,-38.74 50.69,-93.55 35.03,-144.25 -15.66,-50.69 -58.52,-85.72 -109.22,-93.55l-11.54 -3.71c-175.16,-35.03 -253.05,-140.13 -229.56,-323.12l0 -11.54c7.83,-54.4 -11.54,-105.09 -54.4,-136.42 -38.74,-31.32 -93.55,-35.03 -140.13,-11.54l-11.54 3.71c-81.61,38.74 -152.08,50.69 -214.31,27.2 -62.23,-19.37 -116.63,-70.06 -159.5,-152.08l-7.83 -11.54c-23.49,-46.57 -70.07,-77.89 -120.76,-77.89 -50.69,0 -97.26,31.32 -120.76,77.89l-7.83 11.54c-42.86,81.61 -93.55,132.3 -159.5,152.08 -62.23,19.37 -132.3,11.54 -214.31,-27.2l-11.54 -3.71c-46.57,-23.49 -97.27,-19.37 -140.13,11.54 -42.86,31.32 -62.23,81.61 -54.4,136.42l0 11.54c23.49,179.28 -54.4,288.09 -229.56,323.12l-11.54 3.71c-50.69,7.83 -93.55,42.86 -109.22,93.55 -15.66,50.69 -3.71,105.09 35.03,144.25l7.83 11.54c120.76,132.3 120.76,265.01 0,397.3l-7.83 11.54c-38.74,38.74 -50.69,93.55 -35.03,144.25 15.66,50.69 58.52,85.72 109.22,93.55l11.54 3.71c175.16,35.03 253.05,140.13 229.56,323.12l0 11.54c-7.83,54.4 11.54,105.09 54.4,136.42 38.74,31.32 93.55,35.03 140.13,11.54l11.54 -3.71c81.6,-38.74 152.08,-50.69 214.31,-27.2 62.23,19.37 116.64,70.06 159.5,152.08l7.83 11.54z"/>
    <g>
     <path class="fil1" d="M891.07 1263.62c-136.42,0 -245.22,-109.22 -245.22,-245.22 0,-136 109.22,-245.22 245.22,-245.22 136.01,0 245.22,109.22 245.22,245.22 0,136.01 -108.8,245.22 -245.22,245.22zm0 -330.95c-50.69,0 -89.43,38.74 -89.43,89.43 0,50.69 38.74,89.44 89.43,89.44 50.69,0 89.44,-38.74 89.44,-89.44 0,-50.69 -38.74,-89.43 -89.44,-89.43z"/>
     <path class="fil1" d="M1560.79 1836.08c-136.42,0 -245.22,-109.22 -245.22,-245.22 0,-136.01 109.22,-245.22 245.22,-245.22 136,0 245.22,109.22 245.22,245.22 0,136 -112.93,245.22 -245.22,245.22zm0 -330.95c-50.69,0 -89.43,38.74 -89.43,89.44 0,50.69 38.74,89.43 89.43,89.43 50.69,0 89.43,-38.74 89.43,-89.43 0,-50.28 -42.86,-89.44 -89.43,-89.44z"/>
     <path class="fil1" d="M828.83 1758.19c-19.37,0 -38.74,-7.83 -54.4,-23.49 -31.32,-31.32 -31.32,-81.6 0,-109.22l790.07 -782.24c31.32,-31.32 81.61,-31.32 109.22,0 31.32,31.32 31.32,81.6 0,109.22l-790.48 782.65c-15.67,15.25 -35.04,23.08 -54.41,23.08z"/>
    </g>
   </g>
  </g>
 </g>
</svg>
