<?xml version="1.0" encoding="UTF-8"?>
<!DOCTYPE svg PUBLIC "-//W3C//DTD SVG 1.1//EN" "http://www.w3.org/Graphics/SVG/1.1/DTD/svg11.dtd">
<!-- Creator: CorelDRAW 2019 (64-Bit) -->
<svg xmlns="http://www.w3.org/2000/svg" xml:space="preserve" width="3.95766in" height="3.95766in" version="1.1" style="shape-rendering:geometricPrecision; text-rendering:geometricPrecision; image-rendering:optimizeQuality; fill-rule:evenodd; clip-rule:evenodd"
viewBox="0 0 4399.84 4399.84"
 xmlns:xlink="http://www.w3.org/1999/xlink">
 <defs>
  <style type="text/css">
   <![CDATA[
    .str2 {stroke:#111214;stroke-width:61.76;stroke-linecap:round;stroke-linejoin:round;stroke-miterlimit:2.61313}
    .str1 {stroke:#111214;stroke-width:180.58;stroke-miterlimit:2.61313}
    .str0 {stroke:#111214;stroke-width:154.41;stroke-miterlimit:2.61313}
    .fil0 {fill:none}
    .fil1 {fill:#ED3237}
    .fil3 {fill:#111214}
    .fil2 {fill:#FEFEFE}
   ]]>
  </style>
 </defs>
 <g id="Layer_x0020_1">
  <metadata id="CorelCorpID_0Corel-Layer"/>
  <g id="_2187621578000">
   <g>
    <path class="fil0 str0" d="M2199.92 77.2c1172.34,0 2122.72,950.37 2122.72,2122.71 0,1172.34 -950.37,2122.72 -2122.72,2122.72 -1172.34,0 -2122.71,-950.37 -2122.71,-2122.72 0,-1172.34 950.37,-2122.71 2122.71,-2122.71z"/>
   </g>
   <g>
    <path class="fil0 str1" d="M2199.92 600.64c883.26,0 1599.28,716.02 1599.28,1599.28 0,883.26 -716.02,1599.27 -1599.28,1599.27 -883.26,0 -1599.27,-716.02 -1599.27,-1599.27 0,-883.26 716.02,-1599.28 1599.27,-1599.28z"/>
    <path id="1" class="fil1" d="M2199.92 600.64c883.26,0 1599.28,716.02 1599.28,1599.28 0,883.26 -716.02,1599.27 -1599.28,1599.27 -883.26,0 -1599.27,-716.02 -1599.27,-1599.27 0,-883.26 716.02,-1599.28 1599.27,-1599.28z"/>
   </g>
   <g>
    <path class="fil2" d="M1594.13 2071.41l0 1111.73c0,0 207.28,325.42 413.41,-1.16 0,0 259.4,356.68 495.65,-67.17 0,0 233.93,273.31 451.64,-101.91l0 -1359.57c0,0 -224.67,-583.65 -766.64,-537.33 -541.97,46.32 -701.78,481.17 -701.78,481.17l0 363.63c0,0 -0.01,106.54 107.71,110.6zm76.73 -233.92c0,0 15.62,178.33 -76.73,233.92l76.73 -233.92z"/>
    <path id="1" class="fil0 str2" d="M1594.13 2071.41l0 1111.73c0,0 207.28,325.42 413.41,-1.16 0,0 259.4,356.68 495.65,-67.17 0,0 233.93,273.31 451.64,-101.91l0 -1359.57c0,0 -224.67,-583.65 -766.64,-537.33 -541.97,46.32 -701.78,481.17 -701.78,481.17l0 363.63c0,0 -0.01,106.54 107.71,110.6zm76.73 -233.92c0,0 15.62,178.33 -76.73,233.92"/>
   </g>
   <path class="fil3" d="M2232.69 1774.91c72.91,0 132.02,87.1 132.02,194.55 0,107.45 -59.11,194.55 -132.02,194.55 -72.91,0 -132.02,-87.1 -132.02,-194.55 0,-107.45 59.11,-194.55 132.02,-194.55z"/>
   <path class="fil3" d="M2689.55 1808.26c55.64,0 100.75,66.48 100.75,148.47 0,82 -45.11,148.47 -100.75,148.47 -55.64,0 -100.75,-66.48 -100.75,-148.47 0,-82 45.11,-148.47 100.75,-148.47z"/>
  </g>
 </g>
</svg>
