<svg xmlns="http://www.w3.org/2000/svg" xmlns:xlink="http://www.w3.org/1999/xlink" width="98.454" height="98.454" viewBox="0 0 98.454 98.454">
  <defs>
    <radialGradient id="radial-gradient" cx="0.205" cy="0.874" r="1.103" gradientUnits="objectBoundingBox">
      <stop offset="0" stop-color="#fae100"/>
      <stop offset="0.054" stop-color="#fadc04"/>
      <stop offset="0.117" stop-color="#fbce0e"/>
      <stop offset="0.183" stop-color="#fcb720"/>
      <stop offset="0.251" stop-color="#fe9838"/>
      <stop offset="0.305" stop-color="#ff7950"/>
      <stop offset="0.492" stop-color="#ff1c74"/>
      <stop offset="1" stop-color="#6c1cd1"/>
    </radialGradient>
    <linearGradient id="linear-gradient" x1="0.369" y1="0.426" x2="-1.54" y2="-0.648" gradientUnits="objectBoundingBox">
      <stop offset="0" stop-color="#a1b5d8" stop-opacity="0"/>
      <stop offset="0.309" stop-color="#90a2bd" stop-opacity="0.31"/>
      <stop offset="0.755" stop-color="#7c8b9c" stop-opacity="0.757"/>
      <stop offset="1" stop-color="#748290"/>
    </linearGradient>
    <linearGradient id="linear-gradient-2" x1="0.5" y1="0.413" x2="0.5" y2="1.193" gradientUnits="objectBoundingBox">
      <stop offset="0" stop-color="#fae100" stop-opacity="0"/>
      <stop offset="0.307" stop-color="#fca800" stop-opacity="0.306"/>
      <stop offset="0.627" stop-color="#fe7300" stop-opacity="0.627"/>
      <stop offset="0.868" stop-color="#ff5200" stop-opacity="0.867"/>
      <stop offset="1" stop-color="#ff4500"/>
    </linearGradient>
    <linearGradient id="linear-gradient-3" x1="0.316" y1="0.311" x2="0.012" y2="0.005" gradientUnits="objectBoundingBox">
      <stop offset="0" stop-color="#833ab4" stop-opacity="0"/>
      <stop offset="1" stop-color="#833ab4"/>
    </linearGradient>
    <linearGradient id="linear-gradient-4" x1="0.582" y1="0.887" x2="0.418" y2="0.113" xlink:href="#linear-gradient-3"/>
    <linearGradient id="linear-gradient-5" x1="0.605" y1="0.605" x2="-0.16" y2="-0.16" xlink:href="#linear-gradient-3"/>
    <linearGradient id="linear-gradient-6" x1="0.376" y1="0.332" x2="-0.072" y2="-0.063" xlink:href="#linear-gradient-3"/>
    <linearGradient id="linear-gradient-7" x1="0.816" y1="0.182" x2="0.172" y2="0.835" gradientUnits="objectBoundingBox">
      <stop offset="0" stop-color="#833ab4"/>
      <stop offset="0.092" stop-color="#9c3495"/>
      <stop offset="0.293" stop-color="#dc2546"/>
      <stop offset="0.392" stop-color="#fd1d1d"/>
      <stop offset="0.559" stop-color="#fc6831"/>
      <stop offset="0.689" stop-color="#fc9b40"/>
      <stop offset="0.752" stop-color="#fcaf45"/>
      <stop offset="0.781" stop-color="#fdb750"/>
      <stop offset="0.866" stop-color="#fecb6a"/>
      <stop offset="0.942" stop-color="#ffd87a"/>
      <stop offset="1" stop-color="#ffdc80"/>
    </linearGradient>
  </defs>
  <g id="instagram_1_" data-name="instagram (1)" transform="translate(0)">
    <path id="Path_905" data-name="Path 905" d="M96.768,17.61A17.926,17.926,0,0,0,80.844,1.686a297.367,297.367,0,0,0-63.234,0A17.927,17.927,0,0,0,1.685,17.61a297.367,297.367,0,0,0,0,63.234A17.927,17.927,0,0,0,17.609,96.769a297.375,297.375,0,0,0,63.234,0A17.926,17.926,0,0,0,96.768,80.843a297.365,297.365,0,0,0,0-63.234Zm0,0" transform="translate(0)" fill="url(#radial-gradient)"/>
    <path id="Path_906" data-name="Path 906" d="M114.7,44.461a15.907,15.907,0,0,0-14.131-14.131,263.978,263.978,0,0,0-56.112,0A15.91,15.91,0,0,0,30.329,44.461a263.971,263.971,0,0,0,0,56.111A15.908,15.908,0,0,0,44.46,114.7a263.872,263.872,0,0,0,56.111,0A15.907,15.907,0,0,0,114.7,100.572a263.873,263.873,0,0,0,0-56.111Zm0,0" transform="translate(-23.29 -23.29)" fill="url(#linear-gradient)"/>
    <path id="Path_907" data-name="Path 907" d="M7.672,409.8q.1,1.021.21,2.042a17.927,17.927,0,0,0,15.925,15.924,297.369,297.369,0,0,0,63.234,0,17.926,17.926,0,0,0,15.924-15.924q.109-1.021.211-2.042Zm0,0" transform="translate(-6.197 -331.002)" fill="url(#linear-gradient-2)"/>
    <path id="Path_908" data-name="Path 908" d="M173.573,159.448a297.626,297.626,0,0,0,1.675-33.978l-22.5-22.5A16.118,16.118,0,0,0,141,97.579c-9.923-.358-19.878-.34-29.8,0-8.243.284-14.007,5.824-15.486,13.968-.261,1.438-.417,2.894-.622,4.342v23.873c.113.774.28,1.544.332,2.322a17.356,17.356,0,0,0,5.625,12.066l22.9,22.9a297.638,297.638,0,0,0,33.7-1.678,17.926,17.926,0,0,0,15.924-15.925Zm0,0" transform="translate(-76.805 -78.604)" fill="url(#linear-gradient-3)"/>
    <path id="Path_909" data-name="Path 909" d="M198.744,183.234a17.927,17.927,0,0,1-15.924,15.924,297.8,297.8,0,0,1-33.7,1.678L126.254,177.97a16.033,16.033,0,0,0,10.116,3.884c9.923.373,19.88.363,29.8.005,8.975-.324,15.469-6.967,15.749-15.942.3-9.529.3-19.083,0-28.612a16.611,16.611,0,0,0-3.991-10.54l22.49,22.49a298.159,298.159,0,0,1-1.676,33.978Zm0,0" transform="translate(-101.976 -102.39)" fill="url(#linear-gradient-4)"/>
    <path id="Path_910" data-name="Path 910" d="M201.379,179.1A15.768,15.768,0,1,0,179.1,201.379l36.485,36.485q2.9-.252,5.792-.561A17.927,17.927,0,0,0,237.3,221.379q.309-2.895.561-5.792Zm0,0" transform="translate(-140.535 -140.535)" fill="url(#linear-gradient-5)"/>
    <path id="Path_911" data-name="Path 911" d="M359.383,181.588,330.02,152.225a3.748,3.748,0,1,0-5.251,5.251l34.09,34.091q.347-4.988.525-9.979Zm0,0" transform="translate(-261.12 -121.755)" fill="url(#linear-gradient-6)"/>
    <path id="Path_912" data-name="Path 912" d="M95.09,115.889c.205-1.448.361-2.9.622-4.342,1.478-8.143,7.243-13.684,15.486-13.968,9.925-.341,19.88-.359,29.8,0,8.972.323,15.469,6.966,15.749,15.941q.447,14.295,0,28.613c-.28,8.975-6.775,15.617-15.749,15.941-9.923.358-19.881.367-29.8-.005-8.973-.337-15.176-7-15.776-15.984-.052-.777-.219-1.548-.332-2.322V115.889Zm30.95,36.864c4.541,0,9.087.136,13.623-.032,7.111-.264,11.485-4.508,11.651-11.612q.309-13.278,0-26.569c-.166-7.1-4.543-11.446-11.651-11.6q-13.533-.286-27.076,0c-7.054.148-11.441,4.4-11.632,11.428q-.365,13.446,0,26.908c.192,7.024,4.578,11.181,11.633,11.442,4.478.167,8.968.032,13.452.032Zm0,0" transform="translate(-76.805 -78.603)" fill="url(#linear-gradient-7)"/>
    <g id="Group_779" data-name="Group 779" transform="translate(18.285 18.713)">
      <path id="Path_913" data-name="Path 913" d="M95.09,115.889c.205-1.448.361-2.9.622-4.342,1.478-8.143,7.243-13.684,15.486-13.968,9.925-.341,19.88-.359,29.8,0,8.972.323,15.469,6.966,15.749,15.941q.447,14.295,0,28.613c-.28,8.975-6.775,15.617-15.749,15.941-9.923.358-19.881.367-29.8-.005-8.973-.337-15.176-7-15.776-15.984-.052-.777-.219-1.548-.332-2.322V115.889Zm30.95,36.864c4.541,0,9.087.136,13.623-.032,7.111-.264,11.485-4.508,11.651-11.612q.309-13.278,0-26.569c-.166-7.1-4.543-11.446-11.651-11.6q-13.533-.286-27.076,0c-7.054.148-11.441,4.4-11.632,11.428q-.365,13.446,0,26.908c.192,7.024,4.578,11.181,11.633,11.442,4.478.167,8.968.032,13.452.032Zm0,0" transform="translate(-95.09 -97.317)" fill="#fff"/>
      <path id="Path_914" data-name="Path 914" d="M189.762,174a15.769,15.769,0,1,0,15.77,15.769A15.77,15.77,0,0,0,189.762,174Zm0,26.109a10.34,10.34,0,1,1,10.34-10.34A10.34,10.34,0,0,1,189.762,200.1Zm0,0" transform="translate(-158.82 -159.251)" fill="#fff"/>
      <path id="Path_915" data-name="Path 915" d="M330.789,154.494a3.752,3.752,0,1,1-3.751-3.752A3.751,3.751,0,0,1,330.789,154.494Zm0,0" transform="translate(-279.405 -140.469)" fill="#fff"/>
    </g>
  </g>
</svg>
