<?xml version="1.0" encoding="UTF-8"?>
<svg id="Layer_1" data-name="Layer 1" xmlns="http://www.w3.org/2000/svg" xmlns:xlink="http://www.w3.org/1999/xlink" viewBox="0 0 150 150">
  <defs>
    <style>
      .cls-1 {
        fill: none;
      }

      .cls-1, .cls-2 {
        stroke-width: 0px;
      }

      .cls-2 {
        fill: #fff;
      }

      .cls-3 {
        clip-path: url(#clippath);
      }
    </style>
    <clipPath id="clippath">
      <rect class="cls-1" x="16.58" y="18.06" width="116.84" height="116.84"/>
    </clipPath>
  </defs>
  <g class="cls-3">
    <path class="cls-2" d="M75.15,135.2c-32.3,0-58.57-26.27-58.57-58.57s26.27-58.57,58.57-58.57,58.57,26.28,58.57,58.57-26.27,58.57-58.57,58.57ZM75.15,22.94c-29.6,0-53.69,24.09-53.69,53.69s24.09,53.69,53.69,53.69,53.69-24.08,53.69-53.69-24.09-53.69-53.69-53.69Z"/>
  </g>
  <path class="cls-2" d="M101.36,101.03h-52.42c-1.19,0-2.21-.86-2.41-2.03l-5.52-32.54c-.15-.91.21-1.82.95-2.36.73-.55,1.71-.65,2.54-.23l15.84,7.81,12.67-23.06c.85-1.55,3.42-1.55,4.27,0l12.67,23.06,15.84-7.81c.82-.42,1.81-.32,2.54.23.73.55,1.1,1.46.95,2.36l-5.52,32.54c-.2,1.17-1.22,2.03-2.41,2.03ZM51,96.15h48.3l4.37-25.8-13.65,6.73c-1.18.58-2.59.13-3.21-1.01l-11.66-21.22-11.66,21.22c-.63,1.14-2.04,1.59-3.21,1.01l-13.65-6.73,4.37,25.8Z"/>
</svg>