<?xml version="1.0" encoding="UTF-8"?>
<svg id="Layer_1" data-name="Layer 1" xmlns="http://www.w3.org/2000/svg" xmlns:xlink="http://www.w3.org/1999/xlink" viewBox="0 0 150 150">
  <defs>
    <style>
      .cls-1 {
        fill: none;
      }

      .cls-1, .cls-2 {
        stroke-width: 0px;
      }

      .cls-2 {
        fill: #fff;
      }

      .cls-3 {
        clip-path: url(#clippath);
      }
    </style>
    <clipPath id="clippath">
      <rect class="cls-1" x="16.14" y="16.08" width="117.72" height="117.84"/>
    </clipPath>
  </defs>
  <g class="cls-3">
    <path class="cls-2" d="M74.85,133.5c-.73,0-1.36-.26-1.89-.78l-10.76-10.76-14.69,3.94c-.34.09-.69.11-1.04.07-.35-.05-.68-.16-.99-.33s-.57-.41-.78-.69-.37-.59-.46-.94l-3.94-14.69-14.69-3.94c-.34-.09-.66-.24-.93-.46-.28-.21-.51-.47-.69-.78s-.29-.64-.34-.99c-.04-.35-.02-.69.07-1.04l3.93-14.69-10.76-10.76c-.25-.25-.44-.54-.58-.86s-.2-.67-.2-1.02.07-.7.2-1.02c.14-.33.33-.62.58-.87l10.76-10.75-3.93-14.69c-.09-.34-.11-.69-.07-1.04.05-.35.16-.68.34-.98s.41-.57.69-.78c.28-.22.59-.37.93-.46l14.69-3.94,3.94-14.69c.09-.34.24-.65.46-.93s.48-.51.78-.69c.31-.18.64-.29.99-.33.35-.05.7-.03,1.04.07l14.69,3.94,10.75-10.76c.25-.25.54-.44.87-.58.32-.14.67-.2,1.02-.2s.69.07,1.02.2c.32.14.61.33.86.58l10.76,10.76,14.69-3.94c.34-.09.69-.11,1.04-.07.35.04.68.16.99.33s.57.41.78.69.37.59.46.93l3.94,14.69,14.69,3.94c.34.09.66.24.94.46.28.21.51.47.68.78s.29.64.34.98.02.7-.07,1.04l-3.94,14.69,10.76,10.76c.25.25.44.54.58.86s.2.67.2,1.02-.07.69-.2,1.02-.33.61-.58.86l-10.76,10.76,3.94,14.69c.09.34.11.69.07,1.04-.05.35-.16.68-.34.98s-.4.57-.68.78c-.28.22-.59.37-.94.46l-14.69,3.93-3.94,14.69c-.09.34-.24.65-.46.93s-.47.51-.78.69-.64.29-.99.33c-.35.05-.69.03-1.04-.07l-14.69-3.94-10.76,10.76c-.52.52-1.15.78-1.89.78ZM63.01,116.32c.73,0,1.36.26,1.89.78l9.95,9.96,9.96-9.96c.34-.33.73-.57,1.2-.69.46-.13.92-.13,1.38,0l13.6,3.64,3.65-13.6c.12-.46.35-.86.69-1.19s.74-.57,1.2-.69l13.6-3.65-3.65-13.6c-.12-.46-.12-.92,0-1.38.13-.46.35-.86.69-1.2l9.96-9.95-9.96-9.96c-.34-.34-.57-.73-.69-1.19-.12-.46-.12-.92,0-1.39l3.65-13.6-13.6-3.65c-.46-.12-.86-.35-1.2-.69-.33-.34-.57-.73-.69-1.2l-3.65-13.6-13.6,3.65c-.46.13-.92.13-1.38,0-.46-.13-.86-.35-1.2-.69l-9.96-9.95-9.95,9.95c-.34.34-.73.57-1.2.69-.46.13-.92.13-1.38,0l-13.6-3.65-3.65,13.6c-.12.46-.35.86-.69,1.2-.34.34-.74.57-1.2.69l-13.6,3.65,3.65,13.6c.12.46.12.92,0,1.39-.13.46-.35.85-.69,1.19l-9.96,9.96,9.96,9.95c.34.34.57.74.69,1.2.12.46.12.92,0,1.38l-3.65,13.6,13.6,3.65c.46.13.86.35,1.2.69s.57.73.69,1.19l3.65,13.6,13.6-3.64c.22-.06.46-.09.69-.09Z"/>
  </g>
  <path class="cls-2" d="M61.51,72.12c-.7,0-1.4-.07-2.08-.2s-1.35-.34-2.01-.61c-.65-.27-1.26-.59-1.84-.98s-1.12-.83-1.62-1.33c-.49-.49-.94-1.04-1.32-1.61-.39-.58-.72-1.2-.99-1.85-.27-.65-.47-1.31-.6-2-.14-.69-.21-1.38-.21-2.08s.07-1.4.21-2.08c.14-.69.34-1.35.6-2,.27-.65.6-1.27.99-1.85.39-.58.83-1.12,1.32-1.61.5-.49,1.04-.94,1.62-1.33s1.2-.72,1.84-.98c.65-.27,1.32-.47,2.01-.61s1.38-.2,2.08-.2,1.39.07,2.08.2,1.36.34,2.01.61c.65.27,1.26.59,1.84.98s1.13.83,1.62,1.33.94,1.03,1.33,1.61c.39.58.72,1.2.98,1.85.27.65.47,1.31.61,2,.14.69.2,1.38.2,2.08s-.07,1.4-.21,2.08c-.14.69-.34,1.35-.61,2-.27.65-.59,1.26-.98,1.84s-.83,1.12-1.33,1.61c-.49.5-1.03.94-1.61,1.33-.58.39-1.2.72-1.84.99-.65.27-1.32.47-2.01.61-.69.14-1.38.2-2.08.2ZM61.51,56.11c-.35,0-.7.04-1.04.1s-.68.17-1,.3c-.33.14-.64.3-.93.49s-.56.42-.81.66c-.25.25-.47.52-.66.81-.2.29-.36.6-.49.92s-.23.66-.3,1c-.07.34-.1.69-.1,1.04s.03.7.1,1.04c.07.34.17.68.3,1s.3.63.49.92c.19.29.41.56.66.81.25.24.52.47.81.66s.6.36.93.49c.32.13.66.23,1,.3s.69.1,1.04.1.7-.04,1.04-.1.68-.17,1-.3c.32-.14.63-.3.92-.49s.56-.42.81-.66.47-.52.67-.81c.19-.29.36-.6.49-.92.14-.32.24-.66.31-1s.1-.69.1-1.04-.03-.7-.1-1.04c-.07-.34-.17-.68-.31-1s-.3-.63-.49-.92c-.19-.29-.41-.56-.66-.81-.25-.25-.52-.47-.81-.67-.29-.19-.6-.36-.92-.49-.32-.14-.66-.24-1.01-.31-.34-.07-.69-.1-1.04-.1Z"/>
  <path class="cls-2" d="M88.19,98.8c-.7,0-1.4-.07-2.08-.2-.69-.14-1.35-.34-2-.61-.65-.27-1.26-.6-1.84-.98-.58-.39-1.13-.83-1.62-1.33s-.94-1.04-1.33-1.62-.72-1.2-.98-1.84c-.27-.65-.47-1.32-.61-2.01s-.2-1.38-.2-2.08.07-1.4.2-2.08.34-1.35.61-2.01c.27-.65.59-1.26.98-1.84s.83-1.12,1.33-1.62c.49-.49,1.04-.94,1.62-1.32.58-.39,1.2-.72,1.84-.99.65-.27,1.31-.47,2-.6.69-.14,1.39-.21,2.08-.21s1.4.07,2.08.21c.69.14,1.35.34,2.01.6.65.27,1.26.6,1.84.99.58.39,1.12.83,1.61,1.32s.94,1.04,1.33,1.62c.39.58.72,1.2.99,1.84.27.65.47,1.32.6,2.01.14.69.21,1.38.21,2.08s-.07,1.39-.21,2.08-.34,1.35-.61,2.01c-.27.65-.6,1.26-.98,1.84-.39.58-.83,1.12-1.33,1.61s-1.04.94-1.62,1.33c-.58.39-1.2.72-1.84.98-.65.27-1.31.47-2,.61-.69.14-1.38.21-2.08.21ZM88.19,82.79c-.35,0-.7.03-1.04.1-.34.07-.68.17-1,.3s-.63.3-.92.49c-.29.19-.56.41-.81.66-.25.25-.47.52-.67.81-.19.29-.36.6-.49.92-.14.33-.24.66-.31,1.01s-.1.69-.1,1.04.03.7.1,1.04.17.68.31,1c.13.32.3.63.49.92.2.29.42.56.67.81.24.25.52.47.81.67.29.19.6.36.92.49.32.14.66.24,1,.31s.69.1,1.04.1.7-.03,1.04-.1.68-.17,1-.31c.33-.13.64-.3.93-.49.29-.2.56-.42.81-.67s.47-.52.66-.81c.2-.29.36-.6.49-.92s.23-.66.3-1,.1-.69.1-1.04-.04-.7-.1-1.04-.17-.68-.3-1c-.14-.33-.3-.64-.49-.92-.19-.29-.42-.56-.66-.81-.25-.24-.52-.47-.81-.66-.29-.2-.6-.36-.92-.49s-.66-.23-1-.3-.69-.1-1.04-.1Z"/>
  <path class="cls-2" d="M58.84,98.8c-.51,0-.97-.14-1.4-.4-.43-.27-.76-.63-.98-1.07-.22-.45-.32-.93-.27-1.43.05-.51.22-.96.52-1.36l32.03-42.7c.21-.28.47-.51.78-.69.3-.18.63-.29.98-.34s.7-.03,1.04.06c.34.09.65.24.94.45.28.21.52.47.69.78.18.31.3.63.35.98.05.35.03.69-.06,1.04s-.24.66-.45.94l-32.03,42.7c-.53.71-1.24,1.07-2.14,1.07Z"/>
</svg>