<?xml version="1.0" encoding="UTF-8"?>
<svg id="Layer_1" data-name="Layer 1" xmlns="http://www.w3.org/2000/svg" xmlns:xlink="http://www.w3.org/1999/xlink" viewBox="0 0 150 150">
  <defs>
    <style>
      .cls-1 {
        fill: none;
      }

      .cls-1, .cls-2 {
        stroke-width: 0px;
      }

      .cls-2 {
        fill: #fff;
      }

      .cls-3 {
        clip-path: url(#clippath);
      }
    </style>
    <clipPath id="clippath">
      <rect class="cls-1" x="13.59" y="13.45" width="122.83" height="122.67"/>
    </clipPath>
  </defs>
  <g class="cls-3">
    <path class="cls-2" d="M82.31,104.78v14.79c0,1.09.89,1.97,1.97,1.97.37,0,.72-.1,1.02-.28l14.5-7.33c.72-.36,1.12-1.1,1.08-1.86v-14.69c0-1.08-.88-1.96-1.96-1.96-.32,0-.62.08-.89.21l-14.63,7.4c-.69.35-1.09,1.04-1.09,1.76ZM86.25,105.98l10.69-5.41v10.39l-10.69,5.41v-10.39ZM44.21,109.51c-.49.97-1.68,1.36-2.65.87l-9.95-5.03c-.97-.49-1.36-1.67-.88-2.64.49-.97,1.68-1.36,2.65-.88l9.95,5.04c.97.49,1.36,1.67.88,2.64ZM135.59,66.48l-8.01-8.31,8.01-8.31c.75-.79.72-2.03-.06-2.78-.15-.14-.31-.26-.48-.34l-31.8-16.08v-1.91c0-.51-.19-.97-.51-1.32-3.21-3.9-23.56-12.06-26.89-13.74-.54-.27-1.19-.29-1.77,0-3.33,1.68-23.68,9.84-26.89,13.73-.32.35-.52.82-.52,1.33v1.91l-31.8,16.08c-.17.09-.33.2-.47.34-.79.76-.81,2-.06,2.78l8,8.31-7.99,8.31c-.76.78-.73,2.03.05,2.78.15.14.31.25.48.34l8.23,4.16v34.75c-.05.76.35,1.5,1.07,1.86l49.77,25.16s.02.01.02.02c.06.04.13.07.19.09,0,0,.02.01.02.01.07.03.15.06.22.08.02.01.04.01.06.02.06.02.12.03.18.04.02,0,.04.01.06.01.08.01.17.02.24.02.08,0,.17,0,.24-.02.03,0,.05,0,.07-.01.06,0,.13-.02.18-.04.02,0,.04,0,.06-.02.08-.02.15-.05.22-.08,0,0,.02,0,.02-.01.06-.03.13-.06.19-.09,0-.01.01-.01.02-.02l49.76-25.16c.72-.36,1.12-1.11,1.08-1.86v-34.75s8.23-4.17,8.23-4.17c.17-.08.33-.2.47-.34.8-.74.82-1.99.07-2.78ZM76.94,43.3c4.24-1.93,16.17-6.88,22.38-10.63v21.48l-22.38,11.31v-22.17ZM73,43.26v22.2l-22.38-11.31v-22.2l22.38,11.31ZM74.97,81.19l-1.65-.83-43.89-22.19,17.24-8.71v5.91c0,.72.4,1.42,1.08,1.76l26.19,13.24s.02,0,.02.01c.06.04.13.07.2.1,0,0,.01,0,.01,0,.07.03.15.06.23.08.02,0,.04.01.05.01.06.02.13.03.19.04.02,0,.04,0,.06,0,.08.01.17.02.25.02h.02c.08,0,.15,0,.22-.02.03,0,.05,0,.08-.01.06-.01.11-.02.17-.04.02,0,.05-.02.07-.02.07-.02.15-.05.22-.08.02,0,.02-.01.04-.01.06-.03.12-.06.18-.09,0,0,.02-.01.03-.02l26.19-13.24c.69-.34,1.08-1.04,1.09-1.76v-5.91l17.24,8.71-34.76,17.57-10.77,5.45ZM103.26,35.07l27.65,13.98-6.46,6.71-2.22-1.13-18.97-9.59v-9.97ZM74.97,17.64l21.95,11.1-21.95,11.1-21.96-11.1,21.96-11.1ZM46.68,35.07v9.97l-20.79,10.51-.4.21-6.46-6.71,27.65-13.98ZM25.49,60.58l46.21,23.36-6.46,6.71-46.21-23.37,6.46-6.7ZM27.04,75.75l37.72,19.08c.81.41,1.78.2,2.35-.44l5.88-6.1v42.36l-45.95-23.23v-31.66ZM122.9,107.41l-45.96,23.23v-42.36l5.88,6.1c.58.65,1.54.85,2.35.44l37.72-19.07v31.66ZM84.69,90.66l-6.46-6.71,6.98-3.53,39.23-19.83,6.46,6.71-46.22,23.37Z"/>
  </g>
</svg>