<svg id="Group_874" data-name="Group 874" xmlns="http://www.w3.org/2000/svg" width="26.639" height="36.952" viewBox="0 0 26.639 36.952">
  <path id="Path_940" data-name="Path 940" d="M509.989,376.375l-6.457-14.205-1.819,6.728,3.3,7.274a1.031,1.031,0,0,1-.209,1.15l-7.359,7.359-1.594,5.9Z" transform="translate(-485.603 -358.12)" fill="none"/>
  <path id="Path_941" data-name="Path 941" d="M505.427,376.376l-6.446-14.211-7.764,28.422Z" transform="translate(-488.181 -358.123)" fill="none"/>
  <path id="Path_942" data-name="Path 942" d="M515.814,377.619l-7.932-17.448a1.026,1.026,0,0,0-1.925.157l-1.914,7.079-3.282-7.235a1.026,1.026,0,0,0-1.925.151l-9.534,34.9a1.025,1.025,0,0,0,.473,1.156,1.045,1.045,0,0,0,1.243-.16l7.176-7.177-1.67,6.183a1.027,1.027,0,0,0,1.718.993l17.364-17.45A1.032,1.032,0,0,0,515.814,377.619Zm-7.347,1.15a1.031,1.031,0,0,0,.209-1.15l-3.3-7.274,1.819-6.728,6.457,14.205-14.138,14.205,1.594-5.9Zm-1.955-.948L492.3,392.031l7.766-28.421Z" transform="translate(-489.266 -359.568)"/>
</svg>
