<svg id="Group_876" data-name="Group 876" xmlns="http://www.w3.org/2000/svg" width="36.986" height="36.982" viewBox="0 0 36.986 36.982">
  <path id="Path_945" data-name="Path 945" d="M475.326,432.512h-10.17a5.417,5.417,0,1,0,0,10.835h6.2V448.1a1.848,1.848,0,0,1-1.847,1.847H446.269a4.757,4.757,0,0,1-4.752-4.752V423.4a4.757,4.757,0,0,1,4.752-4.752h2.906a1.058,1.058,0,1,0,0-2.117h-2.906a6.877,6.877,0,0,0-6.87,6.869v21.793a6.878,6.878,0,0,0,6.87,6.87h23.245a3.97,3.97,0,0,0,3.965-3.965v-4.752h1.847a1.061,1.061,0,0,0,1.059-1.059v-8.717A1.061,1.061,0,0,0,475.326,432.512Zm-1.06,8.717h-9.11a3.3,3.3,0,0,1,0-6.6h9.11Z" transform="translate(-439.399 -415.082)"/>
  <path id="Path_946" data-name="Path 946" d="M445.18,423.627a1.052,1.052,0,0,0,1.089.833h23.245a1.849,1.849,0,0,1,1.847,1.847v1.453a1.059,1.059,0,0,0,2.118,0v-1.453a3.943,3.943,0,0,0-1.163-2.8,3.989,3.989,0,0,0-2.8-1.163h-.732l-2.64-6.6a1.065,1.065,0,0,0-1.367-.593L445.9,422.415A1.07,1.07,0,0,0,445.18,423.627Zm19.384-6.122,1.928,4.838H451.978Z" transform="translate(-439.399 -415.082)"/>
</svg>
