<svg xmlns="http://www.w3.org/2000/svg" xmlns:xlink="http://www.w3.org/1999/xlink" width="281.324" height="79.071" viewBox="0 0 281.324 79.071">
  <defs>
    <clipPath id="clip-path">
      <rect id="Rectangle_17" data-name="Rectangle 17" width="95.356" height="79.071" transform="translate(0)" fill="none"/>
    </clipPath>
  </defs>
  <g id="Group_641" data-name="Group 641" transform="translate(-683.423 -50.563)">
    <g id="Group_44" data-name="Group 44" transform="translate(683.423 50.563)" clip-path="url(#clip-path)">
      <g id="Group_43" data-name="Group 43" transform="translate(0.853 0)">
        <path id="Path_26" data-name="Path 26" d="M757.642,112.748c8.675-5.671,12.319-10.561,15.05-14.732,1.427-2.175,8.272-13.326,3.306-19.587-2.658-3.345-5.292-4.047-7.037-4.047a5.128,5.128,0,0,0-1.919.332,1.59,1.59,0,0,0-.892.825,2.986,2.986,0,0,1-2.7,1.229,6.975,6.975,0,0,1-1.772-.252c-.936-.248-2.49-1.312-4.567-4.97a71.252,71.252,0,0,1-3.839-8.406c-.315-.782-.588-1.456-.829-2.023a18.05,18.05,0,0,0-14.631-10.547c-.054,0-.111-.006-.168-.006a1.774,1.774,0,0,0-1.772,1.621,19.547,19.547,0,0,1-1.261,5.238c-.725,1.762-1.768,3.178-3.141,3.178h-.1c-.205-.006-.41-.014-.611-.014s-.406.007-.611.014h-.1c-2.742,0-4.141-5.621-4.4-8.379a1.852,1.852,0,0,0-.268-.825,1.785,1.785,0,0,0-1.51-.832c-.054,0-.111,0-.164.006a18.05,18.05,0,0,0-14.631,10.547c-.242.567-.513,1.241-.833,2.023a70.774,70.774,0,0,1-3.835,8.406c-2.077,3.658-3.631,4.721-4.567,4.97a7,7,0,0,1-1.772.252,2.984,2.984,0,0,1-2.7-1.229,1.593,1.593,0,0,0-.893-.825,5.144,5.144,0,0,0-1.919-.332c-1.745,0-4.379.7-7.037,4.047-4.966,6.262,1.879,17.413,3.306,19.587a44.045,44.045,0,0,0,9.839,10.966,13.9,13.9,0,0,0-5.651,1.695,44.141,44.141,0,0,0-3.641,2.571h-.1a4.24,4.24,0,1,0,0,8.48,4.2,4.2,0,0,0,2.332-.7H700a4.066,4.066,0,0,0,.134,1.439,4.325,4.325,0,0,0,1.846,2.406,5.966,5.966,0,0,0,2.7.953l4.547.5c-1.151-1.161-2.869-2.916-2.168-4.389.141-.292.3-.6.463-.909h9.359A6.4,6.4,0,0,0,718.367,123l.03.027c1.479,1.208,3.963,3.232,4.319,4.057.62,1.426,2.553,2.463,4.59,2.463a5.78,5.78,0,0,0,1.678-.245,6.066,6.066,0,0,1,3.557,0,5.781,5.781,0,0,0,1.678.245c2.037,0,3.97-1.037,4.591-2.463.355-.825,2.836-2.849,4.318-4.057l.03-.027a6.4,6.4,0,0,0,1.483-1.966H774.6l-3.037-3.037c-4.309-4.309-11.061-5.108-13.92-5.245" transform="translate(-683.746 -50.563)"/>
      </g>
    </g>
    <path id="Path_27" data-name="Path 27" d="M742.027,84.571a9.839,9.839,0,0,1,3.792.359c-.225-.124-7.5-4.121-14.074-4.083-6.574-.037-13.849,3.96-14.074,4.083a9.84,9.84,0,0,1,3.792-.359c-2.99.712-6.436,4.893-6.544,5.024.037-.017.5-.225,3.94-1.842,2.3-1.077,6.866-1.778,9.9-2.144a24.749,24.749,0,0,1,5.974,0c3.034.366,7.6,1.067,9.9,2.144,3.443,1.617,3.9,1.826,3.94,1.842C748.463,89.463,745.017,85.283,742.027,84.571Zm33.56-4.05c-2.255-2.846-4.372-3.379-5.644-3.379a3.415,3.415,0,0,0-1.228.195,4.673,4.673,0,0,1-4.282,2.191,8.65,8.65,0,0,1-2.225-.312c-4.919-1.3-8.681-12.366-10.416-16.417a16.278,16.278,0,0,0-13.164-9.473s-.886,10.037-6.175,10.037c-.057,0-.11,0-.168,0-.181-.006-.359-.01-.54-.01s-.359,0-.54.01c-.057,0-.111,0-.168,0-5.289,0-6.175-10.037-6.175-10.037A16.278,16.278,0,0,0,711.7,62.8c-1.735,4.051-5.5,15.114-10.416,16.417a8.669,8.669,0,0,1-2.225.312,4.673,4.673,0,0,1-4.282-2.191,3.441,3.441,0,0,0-1.228-.195c-1.272,0-3.39.533-5.644,3.379-3.615,4.554.651,13.306,3.4,17.5a43.121,43.121,0,0,0,11.027,11.766h.1l-.292-.39c-.3-.393-.6-.785-.9-1.188a.042.042,0,0,1,.007-.057.045.045,0,0,1,.05,0,10.049,10.049,0,0,1,1.118,1.016c.171.181.339.373.5.564l.041.05c.094,0,.184,0,.279,0-.111-.138-.219-.275-.326-.417a12.027,12.027,0,0,1-.688-.99.042.042,0,0,1,.014-.057.041.041,0,0,1,.047,0,11.546,11.546,0,0,1,.893.812c.144.141.282.282.419.43l.205.219.01.013c.138,0,.269.01.4.017-.074-.1-.144-.2-.222-.308-.228-.306-.463-.6-.7-.916a.039.039,0,0,1,.01-.057.045.045,0,0,1,.047,0,5.247,5.247,0,0,1,.913.748c.137.137.271.285.4.436l.1.131c.141.01.282.021.423.034a8.98,8.98,0,0,0-.766-.637.043.043,0,0,1-.006-.061.041.041,0,0,1,.043-.014,3.308,3.308,0,0,1,.994.477,3.8,3.8,0,0,1,.379.3c.248.027.489.061.721.094-7.668-5.111-10.929-9.494-13.382-13.238-.42-.637-.822-1.305-1.2-1.99,0,.006,0,.01,0,.017-.2-.353-.39-.712-.577-1.074a1.5,1.5,0,0,0,.161.1s-2.8-4.608-1.789-8.638,3.507-4.372,3.507-4.372,4.064,3.232,6.621,2.664c.735-.161,2.044-1.232,3.588-2.819,2.278-1.285,4.182-3.873,5.866-7.04a43.376,43.376,0,0,0,4.99-8.255,13.871,13.871,0,0,1,7.839-7.725s4.574,9.98,9.577,9.832c5,.148,9.577-9.832,9.577-9.832a13.871,13.871,0,0,1,7.839,7.725,43.164,43.164,0,0,0,4.986,8.255c1.692,3.168,3.591,5.755,5.869,7.04,1.544,1.587,2.852,2.658,3.588,2.819,2.557.568,6.617-2.664,6.617-2.664s2.51.346,3.51,4.372-1.789,8.638-1.789,8.638c.054-.03.1-.064.158-.1-.094.177-.184.359-.282.537-.07.131-.141.259-.215.39v0c-.024.05-.05.1-.077.148,0-.007,0-.01,0-.014-.382.681-.785,1.349-1.2,1.986-2.654,4.054-6.255,8.856-15.369,14.517a39.61,39.61,0,0,1-4.51,2.379h.913l.02-.01.732-.416c.248-.137.5-.268.745-.4s.5-.255.762-.373a.039.039,0,0,1,.054.021.035.035,0,0,1-.01.046c-.222.181-.45.346-.674.517s-.457.329-.688.486l-.192.128h.5l.2-.144.725-.5c.245-.164.49-.329.738-.487s.5-.315.758-.463a.042.042,0,0,1,.054.014.041.041,0,0,1-.006.05c-.211.208-.437.4-.658.6s-.446.386-.675.571l-.45.366h.56l.292-.235.655-.517c.218-.171.44-.339.664-.506s.453-.329.688-.484a.044.044,0,0,1,.057.014.045.045,0,0,1,0,.05c-.188.208-.386.406-.577.607s-.4.393-.6.584c-.172.168-.349.326-.524.487h.809c.275-.161.547-.322.815-.49,9.547-5.929,13.309-10.993,16.057-15.188S779.2,85.074,775.588,80.521Zm-71.662,36.648H693.121a2.356,2.356,0,0,0-.151.225.681.681,0,0,0-.04.074,1.792,1.792,0,0,0-.081.161.77.77,0,0,0-.034.081c-.024.054-.041.108-.061.164l-.02.074a1.192,1.192,0,0,0-.037.154c0,.017-.01.037-.013.057s0,.017,0,.027a1.513,1.513,0,0,0-.03.245.143.143,0,0,0,0,.04c0,.071-.006.138-.006.205,0,.02,0,.037,0,.057a1.736,1.736,0,0,0,.01.192c0,.017,0,.03,0,.047s0,.034.006.054c.007.057.017.114.024.171l.879.332.034.691h.964l.641-.822h1.164l.121.822h1.141l.486-.728h1.111l.151.728h.681l.5-.654,1.6.037.111.617h.154a16.909,16.909,0,0,1,.967-2.2A7.692,7.692,0,0,1,703.926,117.168Zm6.678-3.47a6.907,6.907,0,0,0-3.674-1.782,16.187,16.187,0,0,0-1.987-.272c-.533-.043-1.1-.074-1.681-.08-.137,0-.275,0-.413,0q-.539,0-1.087.021c-2.571.1-5.231.573-6.8,1.574-.994.634-1.823,1.215-2.48,1.7a4.142,4.142,0,0,1,.7.537h1.107a10.132,10.132,0,0,1,4.292-2.333,60.651,60.651,0,0,1,8.255-.09,3.065,3.065,0,0,1,1.963,1.171l-2,2-.993,1.03-2.231,3.064h0a4.388,4.388,0,0,0-.526.886,3.528,3.528,0,0,0-.262.893c-.131.95.218,2.08,2.1,2.852l.017.006a.182.182,0,0,1,.034.014l2.067.822c-1.265-1.1-.473-3.675-.433-3.8.125-.255.259-.517.406-.785.161-.292.335-.591.52-.889a36.836,36.836,0,0,1,2.6-3.49c.208-.262.4-.5.568-.715s.3-.393.4-.547a2.211,2.211,0,0,0,.117-.192.559.559,0,0,0,.077-.212,1.317,1.317,0,0,0-.081-.486A2.637,2.637,0,0,0,710.6,113.7ZM741.99,92.185a8.344,8.344,0,0,1,.8,4.916,6.579,6.579,0,0,1-2.332,3.94,3.29,3.29,0,0,1-.675.417c.074-.144.144-.292.218-.443,1.474-3.155,1.839-7.96,1.9-8.849,0-.09.006-.141.006-.141s.03.057.081.161" transform="translate(-0.452 -0.981)" fill="#fff"/>
    <path id="Path_28" data-name="Path 28" d="M736.335,133.38l.014-.074V133.3l.034-.184h-2.628a.21.21,0,0,1,0,.043l-.01.1-.013.1c-.01.07-.017.137-.027.2a1.33,1.33,0,0,1-.319.695,6.621,6.621,0,0,0,1.939-.4A6.023,6.023,0,0,0,736.335,133.38Zm-4.111-.265h-3.07c0,.017.027.111.027.111l.034.181a5.553,5.553,0,0,0,.661.332,6.564,6.564,0,0,0,1.913.5h.023a6.567,6.567,0,0,0,.675.034h.117a1.365,1.365,0,0,1-.154-.212,1.472,1.472,0,0,1-.171-.5c-.017-.1-.034-.208-.044-.312v-.023l-.006-.014v-.041C732.228,133.152,732.224,133.132,732.224,133.115Zm33.393-5.467c-.061-.02-.125-.037-.2-.06l-.362-.1c-.094-.027-.185-.051-.279-.074-.269-.07-.544-.137-.819-.2-.09-.02-.178-.04-.268-.057-.178-.041-.353-.074-.524-.108s-.346-.064-.513-.09-.332-.057-.493-.081c-.443-.067-.9-.124-1.349-.168-.137-.017-.268-.027-.4-.041-.306-.027-.6-.047-.906-.061l-.137-.006-.205-.01c-.288-.01-.5-.013-.634-.013l-.1,0H743.9l-.02,0H742.66c-.02.037-.04.074-.07.121a.335.335,0,0,0-.027.04H742.1a.328.328,0,0,1-.034.044c-.02.027-.04.057-.064.084s-.037.041-.057.061v0a1.711,1.711,0,0,1-.195.184c-.047.037-.094.074-.148.111-.034.02-.064.037-.09.05,0,0,0,0,0,0-.034.017-.067.034-.1.047a0,0,0,0,0,0,0c.487.151.845.289.853.289s-.437.077-.869.168c-.037.006-.077.017-.117.023a3.943,3.943,0,0,0-.681.188c-.024.013-.037.026-.027.037a0,0,0,0,0,0,0,.12.12,0,0,0,.05.02c.064.01.2.037.386.077.52.114,1.426.322,2.228.507l1.624.376h.044l-.044.375H734.144c-.081.01-.161.017-.245.024l-.05.006-.154.014-.228.02-.269.014-.493-.03c-.051,0-.1-.006-.144-.014l-.138-.01-.184-.02-.03,0H719.318l-.054-.375h.054l.093-.027.121-.037,1.06-.312,2.765-.812.02-.007.7-.2-.946-.232-.121-.027.567-.221.742-.289,0,0-.067-.081c-.252,0-.5,0-.745-.006l.218-.084c-.02-.03-.04-.063-.061-.1h-9.4l-.027.08c0,.007-.006.01-.006.017-.144,0-.279,0-.406-.006-.014.03-.027.057-.04.087-.047.094-.1.188-.164.289-.091.148-.2.3-.322.473-.077.1-.164.215-.255.332-.03.04-.064.081-.094.121-.07.087-.141.175-.215.268l-.024.034c-.07.084-.144.175-.218.269-.026.034-.054.067-.084.1-.006.01-.017.02-.027.034-.087.111-.181.224-.275.342h.483l-.192.235c-.295.366-.664.832-1.036,1.325h59.943A15.814,15.814,0,0,0,765.617,127.648Zm-27.1,5.467h-.58v.067a2.581,2.581,0,0,1-.05.382c0,.007,0,.017,0,.027l.13.121.054-.054A6.677,6.677,0,0,0,738.516,133.115Zm-10.863.446c0-.02-.02-.094-.02-.094-.017-.081-.03-.164-.044-.248,0-.017-.006-.09-.01-.1h-.591c.107.144.2.268.3.376.077.09.144.164.2.221Zm-35.863-6.379a2.113,2.113,0,0,0-.533-.07,2.087,2.087,0,0,0-1.95,1.349.414.414,0,0,1,.3-.128.383.383,0,0,1,.218.064.41.41,0,0,1,.178.473,3.539,3.539,0,0,0-.144.956,3.046,3.046,0,0,0,.014.406l.01.07a2.91,2.91,0,0,1,.275-1.134.42.42,0,0,1,.376-.238l.1,0,.077.037a.419.419,0,0,1,.232.447,3,3,0,0,0-.037.386.4.4,0,0,1,.265-.094h.037l.027,0a.408.408,0,0,1,.279.175,4.741,4.741,0,0,1,.466-2.641C691.919,127.222,691.855,127.2,691.791,127.182Zm48.393-3.655c-.05.037-.1.077-.144.118A.517.517,0,0,0,740.184,123.527Zm-5.52-23.332c-.131.024-.275.041-.426.057l-.175-.131-.275-.208h0c-.188.014-.376.021-.564.021h-.967c-.275,0-.547-.014-.822-.041-.188-.017-.375-.037-.56-.067l-.375-.057h0l.675.476c.846.594,1.862,1.289,2.826,1.9a20.6,20.6,0,0,0,2.251,1.285c.007,0,.01,0,.014,0,.03.014.057.026.084.037l.074.034a.961.961,0,0,0,.09.034c.02.01.037.017.054.024s.047.017.071.023l.063.023c.021.007.041.01.061.017s.044.014.064.017a.554.554,0,0,0,.094.021.018.018,0,0,1,.014,0c.728.114,1.892-.718,3.228-.909a7.147,7.147,0,0,1,1.6-.024c.168.014.329.034.477.05a.334.334,0,0,0,0-.05v0s0-.01,0-.01l.013-.282.071-1.4.037-.731.634,1.195.5.94c.01.017.06.114.131.268.04.087.087.191.137.309l.49.046a7.579,7.579,0,0,0,1.328.4,5.934,5.934,0,0,0,1.154.124,10.392,10.392,0,0,0,2.081-.342h0l0,0c-.071-.114-.148-.221-.225-.332-.027-.034-.054-.067-.081-.1-.077-.1-.154-.205-.238-.306a3.189,3.189,0,0,1-.383.137,8.145,8.145,0,0,0-3.678-2.345c-.2-.064-.413-.124-.637-.178l-.269-.446c-.157-.03-.322-.057-.489-.084-.148-.023-.3-.044-.45-.064a.566.566,0,0,0-.077-.006c-.091-.014-.181-.024-.275-.034-.034,0-.067-.01-.1-.014l-.111.369c-.178-.017-.356-.03-.533-.04-.433-.027-.873-.04-1.306-.04-.469,0-.969.013-1.5.04-.96.05-1.97.148-3,.288C735.154,100.121,734.882,100.161,734.664,100.195Zm-9.624,8.191a1.091,1.091,0,1,0-1.091-1.091A1.093,1.093,0,0,0,725.04,108.386Zm-2.641-6.279a4.73,4.73,0,0,0-3.178,1.772l-.248.315.329.228a1.976,1.976,0,0,1,.308.3c-.05-.353-.093-.6-.093-.6a2.512,2.512,0,0,1,.453.446,2.718,2.718,0,0,1,.588,1.849,1.738,1.738,0,0,1-1.238,1.463,4.262,4.262,0,0,1-1.057.272,5.8,5.8,0,0,0,.852-.595,4.043,4.043,0,0,1-.889.222l-.8.077.571.564a15.322,15.322,0,0,0,1.191,1.027,3.912,3.912,0,0,1-.926-1.295,14.288,14.288,0,0,0,1.188,1.023,12.56,12.56,0,0,0,2.073,1.325,5.682,5.682,0,0,0,2.01.614h.014a8.711,8.711,0,0,0,4.634-1.118l-.188.52a5.826,5.826,0,0,1-.6.356,5.229,5.229,0,0,1-1.42.506c-.248.057-.5.074-.762.117a5.457,5.457,0,0,0-.825.192,1.721,1.721,0,0,0,.809.382,3.093,3.093,0,0,0,.88.024,4.268,4.268,0,0,0,1.7-.507,3.6,3.6,0,0,0,.4-.242,4.062,4.062,0,0,0,1.875-1.879,7.18,7.18,0,0,1-.352.769,4.661,4.661,0,0,1-1.352,1.584,3.531,3.531,0,0,1-1.963.7.044.044,0,0,0-.041.037.042.042,0,0,0,.041.044,3.525,3.525,0,0,0,2.1-.581A4.9,4.9,0,0,0,730,110.4a7.884,7.884,0,0,0,.822-2.053c.03-.128.061-.252.088-.379a1.345,1.345,0,0,0,.151-.242,3.583,3.583,0,0,0,.3-1.426,9.181,9.181,0,0,1,.081,1.5,4.141,4.141,0,0,0,.3-1.49,6.453,6.453,0,0,0-.021-.853l-.043-.446-.433.124a10.694,10.694,0,0,1-2.38.39c-.057,0-.114,0-.168,0a5.087,5.087,0,0,1-1.775-1,.349.349,0,0,0,.007-.064.4.4,0,0,0-.108-.3,11.287,11.287,0,0,0-.9-.886,5.588,5.588,0,0,0-1.1-.755,3.979,3.979,0,0,0-1.328-.426,3.382,3.382,0,0,0-.446-.03c-.094,0-.188.006-.285.014-.077.006-.152.02-.225.034C722.489,102.111,722.442,102.107,722.4,102.107Zm10.044,7.87c-.064.09-1.483,2.2-1.846,2.882l-.014.024a17.694,17.694,0,0,1,2.167-2.7s-1.466,2.178-1.822,2.846l-.02.04c-.275.544-.836,2.148-1.168,3.074-.108.3-.195.527-.239.624a.45.45,0,0,0,.041.308,7.344,7.344,0,0,0,1.118,1.517s1.292-1.114,1.336-1.647a7.561,7.561,0,0,0,0-1.067l.755.49.758-.49a6.936,6.936,0,0,0,0,1.067c.044.533,1.332,1.647,1.332,1.647a7.439,7.439,0,0,0,1.121-1.517.423.423,0,0,0,.037-.308c-.043-.1-.127-.326-.235-.624-.335-.929-.9-2.543-1.171-3.081a.166.166,0,0,1-.017-.034c-.356-.667-1.826-2.846-1.826-2.846a17.674,17.674,0,0,1,2.168,2.7l-.01-.024c-.362-.678-1.785-2.792-1.846-2.882l-.312-.463Zm3.9,6.644c-.043-.094-.137-.356-.218-.581.077.41.154.758.225,1.057A.675.675,0,0,0,736.345,116.622Zm-7.191.476c.07-.3.148-.647.225-1.057-.077.212-.175.487-.218.581A.676.676,0,0,0,729.154,117.1Zm-5.929-5.647.258-.091a8.723,8.723,0,0,1-2.091-.513A6.307,6.307,0,0,0,723.224,111.45Zm-7.9-.342c-.006-.315-.006-.647-.01-.993,0-.6.006-1.241.014-1.933a10.863,10.863,0,0,1,.439-3A7.782,7.782,0,0,1,720.972,100c.047.037.1.074.148.108.07.057.141.111.212.164.188.144.376.285.57.419.067.047.135.094.2.138l.074.05c.131.09.262.181.4.268-.151.044-.3.094-.45.148l.379.259a3.631,3.631,0,0,0,.486.282,2.392,2.392,0,0,0,.628.184l.534.084-.108-.53a1.447,1.447,0,0,0-.043-.178,2,2,0,0,0-.125-.312c-.037-.07-.073-.137-.114-.2a.157.157,0,0,0-.014-.017c-.131.027-.265.05-.4.081a.152.152,0,0,0-.02-.024c-.054-.064-.108-.124-.164-.184a.061.061,0,0,1-.014-.017l-.02-.02c-.027-.024-.054-.05-.081-.074a6.963,6.963,0,0,0-.668-.59.113.113,0,0,1-.017-.01h0a4.372,4.372,0,0,0-.446-.3c.171-.041.349-.074.527-.108l.238-.04c.054-.01.1-.02.158-.027.067.061.131.117.2.175.108.09.215.181.322.268.164.141.335.275.509.4.024.02.047.037.068.054s.02.017.03.023c.138.1.279.195.42.289-.172.023-.353.05-.54.084.114.081.225.157.339.235.161.108.325.212.49.312l.091.061a3.366,3.366,0,0,0,.946.43,2.921,2.921,0,0,0,.366.067l.534.057-.134-.55s-.03-.077-.044-.1c.084.054.168.1.251.157a3.672,3.672,0,0,0,1.238.517l-1.436-1.051-.272-.2-.181-.134s-.222,0-.584.017h0c-.027-.027-.054-.05-.081-.074-.087-.08-.178-.154-.265-.232-.02-.017-.04-.034-.061-.054a.191.191,0,0,0-.026-.02c-.184-.158-.37-.312-.564-.46a.073.073,0,0,0-.017-.014c-.074-.057-.151-.111-.228-.164s-.168-.124-.252-.181c-.017-.01-.03-.023-.047-.034.094-.006.191-.01.285-.017s.164-.01.248-.017c.064.061.131.114.2.172a1.482,1.482,0,0,0,.114.1c.151.128.3.252.457.373.026.023.057.047.084.067.077.061.157.117.235.175s.171.131.259.194c.141.1.288.2.436.3.094.061.188.124.282.181.128.081.251.161.379.239a3.149,3.149,0,0,0,1.191.486l.064.01-.03-.061a2.988,2.988,0,0,0-.6-.782c-.017-.014-.034-.03-.05-.044-.057-.054-.117-.107-.178-.157-.145-.124-.288-.245-.436-.366-.192-.154-.386-.308-.584-.456-.107-.081-.215-.161-.325-.235s-.205-.141-.312-.212h0c.1,0,.208,0,.312,0h.037c3.02,1.9,9,6.282,10.044,7.051a.268.268,0,0,0,0,.05l.03.238c.023.158.047.312.081.466.047.219.107.429.174.641.007.027.017.05.024.077.023.064.04.131.064.195a6.481,6.481,0,0,0,.4.856,5.679,5.679,0,0,0,.527.775.035.035,0,0,0,.046.01.04.04,0,0,0,.021-.054l-.021-.047a7.98,7.98,0,0,1-.349-.792,8.512,8.512,0,0,1-.285-.859c-.02-.081-.041-.164-.057-.248a12.369,12.369,0,0,0,.94,1.735,7.663,7.663,0,0,0,.48.668,4.35,4.35,0,0,0,2.087,1.423c.05.017.1.027.154.04-.043.091-.09.181-.134.269l-.587,1.107-.275.52,1.7-.7a4.889,4.889,0,0,0,1.53-1.134,8.05,8.05,0,0,0,.973-.221c.2-.057.393-.121.584-.195a7.247,7.247,0,0,0,1.167-.557,4.8,4.8,0,0,0,1.611-1.463,2.827,2.827,0,0,0,.282-.564c.758-2.12,1.2-3.644,1.2-3.644l.564-.2.577-.208c.057.148.108.3.158.453a10.122,10.122,0,0,1,.439,2.339c.017.252.034.507.037.772.046,3.9,0,6.446-.836,7.191a.9.9,0,0,1-.181.121.329.329,0,0,1-.087.037.018.018,0,0,1-.014.007,1.3,1.3,0,0,1-.4.05h-.057c-.006,0-.013,0-.02,0h-.037l.014-.021.05-.067.034-.046c.057-.077.108-.161.158-.245a3.937,3.937,0,0,0,.446-1.061,4.245,4.245,0,0,0,.111-1.436,2.009,2.009,0,0,0-.568-1.305,8.259,8.259,0,0,0-.09.926l-.02.393a5.157,5.157,0,0,1-.061.517,6.022,6.022,0,0,1-.154.7,6.406,6.406,0,0,1-.437,1.144l-.027.047-.124.224-.081.141-.1-.02c-.107-.02-.211-.041-.322-.067.006-.01.013-.021.02-.034a2.535,2.535,0,0,0,.174-.309l.01-.02a2.3,2.3,0,0,0,.114-.286,2.915,2.915,0,0,0,.141-1,1.213,1.213,0,0,0-.4-.933v0a3.205,3.205,0,0,0-.154.379,3.482,3.482,0,0,0-.1.406v0c-.007.03-.014.061-.02.094-.027.134-.061.265-.1.4l0,0c-.037.131-.08.255-.127.382a6.24,6.24,0,0,1-.326.738c-.107-.027-.221-.054-.335-.081l-.473-.11a.909.909,0,0,0,.057-.094c.024-.037.044-.074.068-.114l.04-.081a2.109,2.109,0,0,0,.084-.221,1.91,1.91,0,0,0,.1-.5.947.947,0,0,0,0-.1.682.682,0,0,0-.342-.607c-.047.063-.084.124-.117.177a1.808,1.808,0,0,0-.174.319.66.66,0,0,0-.034.081c-.067.164-.155.322-.245.493-.037.071-.074.144-.111.222-.006.017-.014.03-.02.047-.034.067-.064.137-.1.212-.164-.034-.326-.057-.483-.081a6.219,6.219,0,0,0-.866-.074,3.034,3.034,0,0,0-.4.027,1.714,1.714,0,0,0-.54.154.957.957,0,0,0-.121.061,3.089,3.089,0,0,0-.382.3,10.541,10.541,0,0,0-2.024,3.382,15.6,15.6,0,0,1,3.185-.366c.047,0,.094,0,.141,0,.067,0,.134,0,.2,0a.469.469,0,0,1,.053.07,1.246,1.246,0,0,1,.077.121,5.011,5.011,0,0,1,.288.527v0c.03.057.057.114.084.172.047.1.091.215.134.322.061.144.114.292.172.44.017.054.037.1.053.154a2.426,2.426,0,0,0,.53.95h0a1.946,1.946,0,0,0,.1-.306,2.089,2.089,0,0,0,.026-.8c-.023-.158-.053-.315-.09-.477a3.906,3.906,0,0,0-.188-.6c-.034-.077-.07-.154-.107-.232-.027-.05-.057-.1-.088-.151-.01-.017-.023-.037-.034-.054a.224.224,0,0,0-.026-.047l.034,0c.144.024.282.054.419.084l.037.01c.03.061.06.121.093.178.088.168.195.315.275.48a5.04,5.04,0,0,1,.373,1.037,10.02,10.02,0,0,1,.208,1.141,3.288,3.288,0,0,0,.329,1.215,2.013,2.013,0,0,0,.211-.45,2.792,2.792,0,0,0,.134-.792,5.753,5.753,0,0,0-.006-.684,4.284,4.284,0,0,0-.091-.615,3.3,3.3,0,0,0-.44-1.063,2.186,2.186,0,0,1,.755.782,1.94,1.94,0,0,1,.148.333,11.723,11.723,0,0,1-.01,4.815c-.493-.088-1-.168-1.527-.239-.09-.01-.184-.02-.279-.034l-.48-.061a3.117,3.117,0,0,1-.2-.4c-.195-.02-.386-.04-.571-.057l-.094-.01h-.268c.087-.292.161-.564.228-.832s.117-.513.157-.738l-.7-.252-.014.03.014-.026-.329.638c-.034.067-.07.13-.1.2.064-.054.124-.108.181-.158.335-.3.577-.493.577-.493l-.322.624c-.134.268-.275.537-.413.8-.1.194-.208.392-.312.584-.02.034-.04.067-.06.1-.061.111-.124.222-.188.332-.037.061-.07.124-.1.185h0l.01-.067.007-.057a1.782,1.782,0,0,0-.007-.3.048.048,0,0,0-.006-.023,1.14,1.14,0,0,0-.034-.152.012.012,0,0,1,0-.01.021.021,0,0,1,0-.014.627.627,0,0,0-.027-.07c-.01-.027-.024-.054-.034-.081a.063.063,0,0,0-.01-.017.828.828,0,0,0-.077-.138c-.021-.026-.044-.057-.067-.084-.021.024-.034.044-.051.067a1.21,1.21,0,0,0-.13.192s0,.006,0,.01c-.026.043-.047.08-.067.121s-.026.057-.037.087a.293.293,0,0,0-.02.047,1.252,1.252,0,0,0-.081.239.012.012,0,0,0,0,.01l-.03.1-.037.114-.01.037c-.03.087-.064.175-.1.262-.044.114-.09.228-.141.342,0,0,0,0,0,.006-.046.111-.1.222-.151.329-.017.037-.037.074-.057.111s-.03.054-.044.081l-.01.02a.028.028,0,0,1-.007.014c-.073.141-.154.282-.242.419,0,0,0,.007,0,.01h0c-.067.017-.134.026-.2.037l-.108.01a1.177,1.177,0,0,1-.151,0c-.188,0-.4-.03-.635-.047-.04,0-.084,0-.124-.007-.02,0-.04,0-.061,0,.01-.05.014-.1.021-.157v0c.006-.037.013-.077.017-.117a.679.679,0,0,0,0-.081.559.559,0,0,0,0-.074c0-.067,0-.134,0-.2a3.267,3.267,0,0,0-.094-.651c0-.014-.006-.026-.01-.037a1.446,1.446,0,0,0-.248-.517,1.028,1.028,0,0,0-.326-.282,2.357,2.357,0,0,0-.064.335,3.262,3.262,0,0,0-.027.463.108.108,0,0,0,0,.034v.1c0,.088,0,.175,0,.262-.006.164-.017.329-.034.493,0,.014,0,.027-.006.044v.034c-.024.171-.047.342-.077.513h0a.105.105,0,0,0-.03.014c-.03.017-.064.034-.1.05-.006-.027-.017-.057-.026-.091-.037-.128-.091-.285-.152-.463a2.255,2.255,0,0,1-.034.242c-.05.03-.1.057-.151.094l-.215.155a1.7,1.7,0,0,1-.232.164.536.536,0,0,1-.178.074h-.01a1.13,1.13,0,0,1-.2.02c0-.013,0-.05,0-.05l0-.023a2.747,2.747,0,0,0-.1-.56l-.013-.044c-.023-.07-.047-.141-.074-.208,0,0-.017-.044-.02-.057l-.024-.057a2.019,2.019,0,0,0-.094-.195.692.692,0,0,0-.043-.07c-.02.121-.041.245-.057.366-.006.037-.01.07-.013.1-.01.077-.021.155-.027.232a.014.014,0,0,0,0,.01s0-.006,0-.01c-.021-.064-.041-.127-.068-.191a.231.231,0,0,0-.017-.047c0-.01-.01-.02-.013-.034s0-.01-.007-.014c-.023-.057-.05-.114-.077-.168-.021-.034-.041-.064-.061-.094s-.024-.034-.037-.047l-.014-.014a1,1,0,0,0-.128-.1c-.014-.01-.03-.023-.047-.034a.7.7,0,0,0-.231-.084,1.23,1.23,0,0,0-.1.3,1.029,1.029,0,0,0-.014.242.1.1,0,0,1,0,.03v0c.01.07.021.137.034.208.026.2.046.4.067.6a.386.386,0,0,1,.006.061c0,.034.006.064.01.1,0,0,0,0,0,.006v0c.01.108.023.219.034.326-.091.02-.178.034-.265.054l-.041.01c-.026-.081-.057-.188-.1-.309a.385.385,0,0,1-.017-.05l-.339.081c-.181.044-.373.077-.537.108l-.238.04c-.225.037-.48.07-.772.1l-.017,0v-.017a.465.465,0,0,0-.006-.063l0-.077v0c-.006-.1-.017-.2-.03-.3s-.021-.164-.034-.239a1.353,1.353,0,0,0-.094-.346,1.15,1.15,0,0,0-.114-.208c-.01.087-.02.177-.027.265-.017.191-.026.382-.034.564,0,.117,0,.232,0,.339,0,.185,0,.353.006.49l-.03,0h-.017l-.01,0v0c0-.04.006-.084.01-.124.006-.074.006-.148.006-.222,0-.023,0-.047,0-.067a.669.669,0,0,1-.006-.077,2.686,2.686,0,0,0-.03-.329v0l-.03-.221a1.243,1.243,0,0,0-.07-.265h0a.883.883,0,0,0-.158-.255.737.737,0,0,0-.07-.074.2.2,0,0,0-.037-.037,1.013,1.013,0,0,0-.205.245.339.339,0,0,0-.026.046.95.95,0,0,0-.074.2.172.172,0,0,0-.014.044c-.006.03-.014.064-.02.1-.014.094-.027.192-.04.288s-.021.205-.024.306v.037a3.086,3.086,0,0,0,.017.393v.014l-.084-.007c-.02-.127-.044-.278-.074-.442-.041-.222-.091-.473-.151-.725a.675.675,0,0,0-.013.081c-.017.1-.03.2-.044.3-.014.121-.023.232-.027.342v.037l-.332-.041c-.137-.02-.268-.037-.4-.06-.285-.047-.54-.1-.772-.152l-.4-.1.034-.094h-.027c.007-.03.01-.061.017-.088.007-.046.017-.1.024-.144.047-.2.09-.406.134-.611l.02-.081c.02-.1.044-.195.07-.289l0-.02c.037-.148.077-.3.117-.446a2.325,2.325,0,0,0-.2.443,7.611,7.611,0,0,0-.329,1.6l-.01.081a.273.273,0,0,0-.054-.014h0c-.094-.02-.192-.04-.286-.057h0c.017-.041.03-.077.044-.114a.268.268,0,0,0,.017-.047,3.771,3.771,0,0,0,.114-.52c.043-.208.087-.413.134-.614.026-.131.057-.262.09-.39v0s0,0,0-.006c.041-.164.085-.329.131-.49v0c.047-.164.1-.326.161-.483.041-.091.074-.181.108-.275.026-.02.054-.044.081-.064s.054-.044.08-.067c.071-.061.138-.121.208-.181a.838.838,0,0,1,.51-.245,1.559,1.559,0,0,1,.735.332c.043.034.09.064.134.094l.141.111h0c.027.023.054.043.081.067a1.752,1.752,0,0,1,.148.121.583.583,0,0,0,.3.131h0a.525.525,0,0,0,.2-.01.586.586,0,0,0,.242-.121c.11-.094.241-.2.376-.3.046-.034.1-.07.147-.1a1.514,1.514,0,0,1,.718-.322.881.881,0,0,1,.547.279c.057.047.114.1.172.148a1.964,1.964,0,0,0,.275.208.613.613,0,0,0,.51.08.748.748,0,0,0,.128-.05,1.041,1.041,0,0,0,.309-.238c.037-.041.07-.081.1-.124.2-.265.339-.57.58-.681a.2.2,0,0,1,.215.027c.212.157.386.658.8.778.023.006.054.01.077.017a.116.116,0,0,1,.034,0,.8.8,0,0,0,.185,0c.02,0,.04-.01.06-.013h.007v0a.184.184,0,0,0,.037-.006,1.247,1.247,0,0,0,.443-.2,2.507,2.507,0,0,0,.248-.2l.171-.161c.02-.02.041-.037.061-.057.054-.054.111-.107.168-.157a.475.475,0,0,0,.151-.121,0,0,0,0,1,0,0l.091.413a.817.817,0,0,0,.164-.134c.02-.014.047-.03.07-.047a.716.716,0,0,1,.125-.064.476.476,0,0,1,.1-.037l.03-.01a.666.666,0,0,1,.144-.017,1.228,1.228,0,0,1,.437.107.993.993,0,0,0,.342.084.485.485,0,0,0,.1-.01l-.047.061a1.589,1.589,0,0,0-.161.242l-.007.01a1.529,1.529,0,0,0-.077.141c-.014.03-.027.061-.037.09l-.03.064a2.147,2.147,0,0,0-.094.275l-.014.04c.01-.01.014-.017.024-.026.067-.087.144-.181.231-.275.11-.128.238-.262.372-.393.111-.114.225-.224.342-.335l-.175-.195a.587.587,0,0,0,.024-.235,1.84,1.84,0,0,0-.057-.306,1.213,1.213,0,0,0-1.181-.926.875.875,0,0,0-.816.45.664.664,0,0,0-.248-.051.534.534,0,0,0-.1.01.568.568,0,0,0-.463.52.712.712,0,0,1-.023.09.588.588,0,0,1-.292.05l-.041,0a1.092,1.092,0,0,1-.815-.362.9.9,0,0,0-.6-.305c-.319,0-.594.282-1.014.748-.09.1-.211.232-.3.322-.084-.084-.181-.2-.259-.292-.359-.419-.671-.778-1.023-.778-.2,0-.443.1-1.027.624-.044.037-.088.074-.128.114-.114.1-.225.208-.322.3a.2.2,0,0,1-.137.057.167.167,0,0,1-.107-.034.141.141,0,0,1-.03-.023c-.158-.151-.39-.369-.614-.557-.477-.4-.691-.483-.866-.483-.352,0-.664.359-1.023.778-.074.091-.175.208-.255.292-.094-.091-.215-.225-.3-.322-.422-.466-.7-.748-1.013-.748a.911.911,0,0,0-.6.305,1.086,1.086,0,0,1-.815.362l-.041,0a.591.591,0,0,1-.292-.05.481.481,0,0,1-.02-.09.742.742,0,0,0-.124-.319l-.01-.017-.037-.037a.529.529,0,0,0-.292-.148.567.567,0,0,0-.1-.01.651.651,0,0,0-.248.051.622.622,0,0,0-.091-.141l-.034-.067-.067-.034a.963.963,0,0,0-.62-.208,1.214,1.214,0,0,0-1.185.926.78.78,0,0,0,.03.668l.04.057.03.021a.445.445,0,0,0,.3.107.96.96,0,0,0,.342-.084,1.249,1.249,0,0,1,.437-.107.6.6,0,0,1,.158.02l.03.01a1.793,1.793,0,0,1,.648.467,2.4,2.4,0,0,0,.882.62l-.077.03a1.193,1.193,0,0,0-.419.282,1.663,1.663,0,0,0-.125.155l-.017.026a1.167,1.167,0,0,0-.121.268l-.006.024c-.017.061-.034.114-.047.171l-.017.067c-.013.077-.027.151-.037.228l-.021.181a.664.664,0,0,1-.006.081l-.117.01c-.111.01-.208.02-.3.023-.024-.07-.091-.255-.091-.255l-.077-.228-.245-.688-.017-.061a1.531,1.531,0,0,0-.568-.849l-.255-.195-.235.222c-.014.017-.027.026-.041.043a1.2,1.2,0,0,0-.2.268.9.9,0,0,0-.043.088c-.074-.131-.148-.262-.225-.4l-.034-.061c-.155-.279-.309-.56-.463-.842l-.064-.121c-.044-.081-.215-.39-.215-.39l-.074-.134c-.06-.111-.121-.222-.184-.332l-.07-.131-.7.224,0,.024c.026.2.063.406.11.651.064.309.138.618.225.92h-1.309c.026.057.05.111.073.164a.8.8,0,0,1,.061.212h-.695c0-.017-.01-.03-.014-.047-.044-.225-.091-.446-.155-.664a.021.021,0,0,0,0-.014.063.063,0,0,0-.006-.023c-.061-.215-.134-.426-.2-.641a2.016,2.016,0,0,0-.074-.195,1.232,1.232,0,0,0-.1-.178,1.259,1.259,0,0,0-.212-.252.214.214,0,0,0-.043-.037,1.082,1.082,0,0,0-.239.775,3.853,3.853,0,0,0,.067.614c.007.047.017.094.027.137.006.027.017.054.023.081a3.594,3.594,0,0,0,.151.443h-.533c-.006-.188-.023-.373-.037-.564,0-.01,0-.02,0-.034-.017-.252-.027-.5-.034-.752-.007-.2-.014-.393-.017-.591-.007-.46-.021-.919,0-1.383a5.256,5.256,0,0,0-.061-1.325c-.006-.037-.014-.074-.023-.114a2.513,2.513,0,0,0-.329.517v0a3.419,3.419,0,0,0-.259.842,9.239,9.239,0,0,0-.134,1.214c0,.084-.01.168-.007.252,0,.107,0,.215.007.322,0,.024,0,.047,0,.071.007.151.024.3.041.45.023.212.057.419.1.624.013.074.027.148.047.224,0,.007,0,.017,0,.027s.014.047.021.074c.014.047.023.094.037.141h-.406s-.006-.01-.01-.014a.6.6,0,0,1-.041-.061l-.006-.006a1,1,0,0,1-.1-.192c0-.02,0-.037-.007-.054v-.01c-.014-.114-.026-.225-.04-.336,0-.043-.01-.087-.014-.131-.01-.11-.02-.221-.03-.329l-.01-.131c-.01-.1-.017-.211-.023-.315,0-.043,0-.087-.006-.131-.007-.1-.01-.2-.014-.3,0-.047,0-.094,0-.137,0-.094,0-.184,0-.275v-.151c0-.081,0-.164,0-.242,0-.06.006-.121.01-.177s.007-.135.01-.2c.01-.121.02-.239.034-.35a4.45,4.45,0,0,1,.181-.855,2.531,2.531,0,0,1,1.936-1.547c.144-.037.3-.071.446-.1v0c-.064.137-.117.279-.168.416.05-.01.1-.023.144-.034l.087-.014a8.136,8.136,0,0,1,1.366-.107,15.274,15.274,0,0,1,3.094.355l.681.164-.238-.657a10.771,10.771,0,0,0-2.121-3.531,3.286,3.286,0,0,0-.429-.339.838.838,0,0,0-.137-.074l-.03-.013a2.055,2.055,0,0,0-.635-.185,3.286,3.286,0,0,0-.466-.034,13,13,0,0,0-2.775.457l-.192-.184c-.111-.108-.228-.218-.359-.332a.418.418,0,0,0-.275-.1h-.027l-.034,0a.415.415,0,0,0-.225.107c-.034-.057-.07-.117-.1-.181a.416.416,0,0,0-.728-.014,3.4,3.4,0,0,1-.212-.527.42.42,0,0,0-.393-.291H716.5a4.27,4.27,0,0,1,.077-.829.419.419,0,0,0-.255-.459l-.067-.027-.091,0a.41.41,0,0,0-.386.262.7.7,0,0,0-.037.1c-.024-.406-.037-.822-.044-1.218-.006-.289-.006-.594-.006-.906-.232.553-.366.906-.37.913Zm2.124,8.443a6.014,6.014,0,0,0,.92-3.375c-.4.13-.833.265-1.252.359a3.569,3.569,0,0,1-.51,1.47c-.806,1.323-2.235,1.923-3.195,1.339s-1.087-2.128-.282-3.453a3.4,3.4,0,0,1,1.457-1.345c-.007-.044-.01-.088-.017-.128l-.084.023-.2.074a3.672,3.672,0,0,0-.745.406,3.709,3.709,0,0,0-.634.581,3.527,3.527,0,0,0-.493.731.04.04,0,0,1-.053.017.043.043,0,0,1-.024-.047,3.037,3.037,0,0,1,.373-.849,3.321,3.321,0,0,1,.614-.708,3.4,3.4,0,0,1,.8-.517l.222-.09.171-.057c-.006-.046-.01-.09-.017-.137-.087.03-.174.057-.262.091-.265.1-.52.221-.788.352a.037.037,0,0,1-.054-.017.036.036,0,0,1,0-.044,2.4,2.4,0,0,1,.681-.607,3.073,3.073,0,0,1,.386-.2l-.01-.131a5.761,5.761,0,0,0-3.088,2.567c-1.409,2.319-1.191,5.024.49,6.043S716.04,121.866,717.446,119.551Zm12,7.2c0-.041.007-.084.007-.124v0c.01-.134.02-.272.037-.41s.04-.262.067-.39c.017-.074.034-.148.053-.218.014-.047.03-.094.044-.141h0v0c.014-.046.027-.094.044-.137a4.256,4.256,0,0,1,.312-.675.762.762,0,0,1-.181-.128.786.786,0,0,1-.1-.09,2.788,2.788,0,0,1-.268-.362c-.027-.04-.05-.077-.077-.111a.914.914,0,0,0-.339-.332,1.352,1.352,0,0,0-.335.151c-.014.02-.03.041-.044.064s-.033.041-.047.061l-.081.11v0a.1.1,0,0,0-.017.02c-.03.04-.064.081-.1.121,0,0,0,.007-.006.007a.96.96,0,0,1-.245.208s0,0-.006,0a2.049,2.049,0,0,1,.53.044,1.387,1.387,0,0,1-.332.275l-.021.01a.907.907,0,0,1-.168.077l-.017.007-.02,0a.628.628,0,0,1-.111.026l0,0-.09.01c-.037,0-.074,0-.111,0a.913.913,0,0,1-.131-.006h0l.07.1.037.057c.024.041.044.081.067.128a.468.468,0,0,1,.03.067l.017.03.007.017c.013.037.026.07.037.111l.006.02a.982.982,0,0,1,.03.134,1,1,0,0,1,.023.175v.013c0,.044,0,.084,0,.128v.114c0,.091.006.178.013.275l.01.171.014.195a.757.757,0,0,1,.114.074l.221.161.067.05a1.833,1.833,0,0,0,.164.111.478.478,0,0,0,.181.064,2.225,2.225,0,0,0,.239.02l.03,0a.037.037,0,0,1,0-.02v-.288c0-.027.007-.131.007-.131.01-.172.023-.309.04-.437s.041-.272.074-.422l0-.024c.017-.074.033-.148.053-.215.01-.03.02-.061.03-.087,0,.1.01.218.013.335.006.279.006.574,0,.862,0,.088,0,.172-.007.255,0,.061,0,.121-.006.178-.007.134-.014.262-.017.375.081.007.168.01.251.021h0c-.014-.041-.026-.081-.037-.121s-.006-.057-.01-.081a1.133,1.133,0,0,1-.013-.181.222.222,0,0,1,0-.05c0-.046,0-.094,0-.141Zm-4.258,8.678-.02-.084a.6.6,0,0,0-.125.054Zm15.537-2.685h3.809a3.057,3.057,0,0,1-.527.588c-1.013.829-2.1,1.708-2.99,2.537a8.173,8.173,0,0,0-1.87,2.215,1.328,1.328,0,0,1-.295.413,3.919,3.919,0,0,1-2.661.983c-.114,0-.232-.006-.349-.017-.01,0-.017,0-.023,0s-.041-.006-.061-.006c-.064-.007-.128-.017-.188-.027a.667.667,0,0,1-.084-.01l-.1-.024a2.485,2.485,0,0,1-.258-.06c-.024,0-.05-.017-.077-.024a0,0,0,0,1,0,0c-.088-.024-.175-.054-.259-.084,0,0,0,0-.006,0s-.007,0-.01,0c-.09-.037-.184-.07-.279-.1a5.152,5.152,0,0,0-.6-.157l-.04-.01-.044-.01,0,0c-.061-.047-.117-.1-.178-.148-.108-.094-.208-.194-.306-.3a5.975,5.975,0,0,0-.6-.034,6.038,6.038,0,0,0-1.826.286s-.043.014-.057.02c-.091.03-.188.064-.282.1l-.03.01-.006,0-.01,0-.017.006a4,4,0,0,1-.44.128,3.6,3.6,0,0,1-.782.091,3.512,3.512,0,0,1-2.423-.9.932.932,0,0,1-.188-.265,7.185,7.185,0,0,0-1.628-2.03l-.178-.168,0,0-.027-.054-.064-.034s0,0-.006,0a1.312,1.312,0,0,0-.154.259.526.526,0,0,0-.03.084l-.024-.024h0c-.087-.084-.178-.168-.268-.251-.014-.01-.027-.023-.044-.037s-.023-.024-.037-.034c-.111-.1-.225-.2-.339-.3-.01-.01-.02-.017-.03-.026-.117-.1-.235-.205-.359-.309l-.024-.023c-.124-.1-.244-.208-.369-.316-.01-.006-.02-.017-.03-.023l-.372-.312-.05-.04-.353-.292c-.067-.054-.134-.111-.2-.168s-.128-.1-.192-.155c-.137-.114-.279-.228-.416-.342a3.2,3.2,0,0,1-.53-.588h1.016a.7.7,0,0,1,.047.054l.242.272c.181.2.366.4.56.587.111.1.228.205.342.309.073.064.148.128.224.192.091.081.185.157.279.235a2.37,2.37,0,0,0,1.034.54c0-.01-.006-.017-.01-.027a1.982,1.982,0,0,0-.084-.265c0-.006,0-.01-.006-.017a2.6,2.6,0,0,0-.46-.715c-.175-.205-.352-.406-.537-.6-.026-.03-.057-.06-.084-.09-.043-.047-.084-.094-.131-.138-.114-.117-.232-.228-.349-.335h.289c.093.131.194.262.3.382v0l.077.088c.034.04.068.081.1.117.073.077.151.151.228.221.1.1.215.192.325.286l.054.043a.055.055,0,0,0,.02.014s0,0,0,0a1.291,1.291,0,0,0,.154.1,1.121,1.121,0,0,0,.228.1,1.266,1.266,0,0,0,.292.054c0-.041,0-.081,0-.121a1.2,1.2,0,0,0-.205-.588.726.726,0,0,0-.047-.07c-.057-.084-.117-.164-.177-.248-.088-.117-.178-.235-.275-.342-.014-.017-.03-.03-.044-.047h.376a22.178,22.178,0,0,0,3.077,3.081c.04.026.077.054.114.081a2.489,2.489,0,0,0,.366.208l.037-.584.017-.289.014-.2.01-.161,0-.07v0a10,10,0,0,0,1.943,1.031,5.363,5.363,0,0,0,4.879,0,9.979,9.979,0,0,0,1.943-1.031v0l.01.449.014.682a13.065,13.065,0,0,0,2.828-2.393C740.271,133.232,740.533,132.95,740.728,132.739Zm11.651-16.849c.806,1.326.678,2.869-.282,3.453s-2.389-.017-3.195-1.339a3.622,3.622,0,0,1-.513-1.47c-.1-.023-.208-.05-.315-.077.01.121.02.241.04.362a4.448,4.448,0,0,0,.2.8,4.614,4.614,0,0,0,.335.762,5.023,5.023,0,0,0,.47.708.042.042,0,0,1-.007.057.047.047,0,0,1-.05,0,3.444,3.444,0,0,1-.617-.631,3.948,3.948,0,0,1-.46-.766,4.256,4.256,0,0,1-.282-.859c-.027-.148-.05-.3-.067-.446a.689.689,0,0,0-.006-.117.014.014,0,0,0-.01,0l0,.208.014.329.04.329a4.976,4.976,0,0,0,.376,1.272,5.123,5.123,0,0,0,.7,1.145,4.825,4.825,0,0,0,.987.933.042.042,0,0,1,.006.057.038.038,0,0,1-.05.014,4.434,4.434,0,0,1-1.127-.839,4.792,4.792,0,0,1-.829-1.154,4.945,4.945,0,0,1-.47-1.352l-.054-.359-.027-.359c.007-.117-.01-.242,0-.362l-.037-.01a6.009,6.009,0,0,0,.916,3.375c1.409,2.316,3.913,3.37,5.594,2.345s1.9-3.724.49-6.043a5.772,5.772,0,0,0-3.088-2.567.636.636,0,0,1-.006.077l.081.047a2.98,2.98,0,0,1,.382.3,2.336,2.336,0,0,1,.554.782.04.04,0,0,1-.024.054.043.043,0,0,1-.044-.007,6.043,6.043,0,0,0-.707-.553c-.091-.057-.185-.114-.279-.164,0,.04-.007.081-.013.124l.043.034c.114.1.225.195.336.3a7.144,7.144,0,0,1,.624.648.045.045,0,0,1-.007.06.042.042,0,0,1-.043.007,6.606,6.606,0,0,1-.789-.433c-.074-.046-.148-.094-.222-.144-.006.043-.01.087-.017.131A3.424,3.424,0,0,1,752.379,115.89ZM727.151,87.809a2.038,2.038,0,0,1,1.859-1.305,1.289,1.289,0,0,1,.964.382l2.124-.98-1.806-.869a1.758,1.758,0,0,1-1.01.315c-.731,0-1.174-.449-1-.966a1.517,1.517,0,0,1,1.433-.849c.641,0,1.1.366,1.034.849a.769.769,0,0,1-.091.262l2.084.963,2.084-.963a.768.768,0,0,1-.091-.262c-.07-.484.393-.849,1.031-.849a1.519,1.519,0,0,1,1.436.849c.171.517-.272.966-1,.966a1.758,1.758,0,0,1-1.01-.315l-1.806.869,2.124.98a1.288,1.288,0,0,1,.963-.382,2.042,2.042,0,0,1,1.859,1.305,1.14,1.14,0,0,1-1.178,1.547,1.972,1.972,0,0,1-1.916-1.547,1.194,1.194,0,0,1,.006-.393l-2.5-1.2-2.5,1.2a1.176,1.176,0,0,1,.006.393,1.971,1.971,0,0,1-1.916,1.547,1.14,1.14,0,0,1-1.178-1.547" transform="translate(-1.445 -11.709)" fill="#f61414"/>
    <path id="Path_29" data-name="Path 29" d="M723.978,135.49c-.151-.192-.248-.564-.524-.58-.359-.02-.735.017-1.1.017h-6.95c-.433,0-.876.026-1.309,0-.1-.006-.285-.064-.376.006-.057.044-.047.111-.061.175a1.434,1.434,0,0,1-.107.282q4.067.05,8.131.081Zm-31.742.312a2.452,2.452,0,0,0-.627-.262,2.457,2.457,0,0,0-2.728,3.655,3.375,3.375,0,0,1,.275-1.5c.024-.057.1-.292.188-.265s-.021.3-.034.362a3.644,3.644,0,0,0-.03,1.584.879.879,0,0,0,.262.54,1.961,1.961,0,0,0,.651.329,3,3,0,0,1-.181-1.5,2.377,2.377,0,0,1,.07-.373c.021-.067.061-.268.128-.3.094-.044.067.1.064.184a4.2,4.2,0,0,0,.137,1.413,1.675,1.675,0,0,0,.239.574c.144.191.359.141.567.121a2.552,2.552,0,0,1-.329-.829,2.2,2.2,0,0,1-.054-.389c0-.061-.02-.288.047-.322s.131.235.141.282a3.3,3.3,0,0,0,.37.815c.1.154.235.393.453.306.239-.1.02-.467-.026-.641a5.471,5.471,0,0,1-.208-1.923A4.062,4.062,0,0,1,692.236,135.8Zm40.064.2c-.064-.326-.141-.644-.235-.963-.125-.43-.359-1.349-.967-1.279-.54.067-.718.792-.819,1.225-.077.329-.121.665-.181,1-.017.1-.06.225.014.315.094.111.282.074.409.108a15.242,15.242,0,0,0,1.983.3.4.4,0,0,1-.081-.044c-.037-.04-.034-.121-.04-.174C732.354,136.329,732.331,136.164,732.3,136Zm5.268.07a1.6,1.6,0,0,0,.336-.191,3.481,3.481,0,0,0,.312-.205c.2-.171.026-.422-.05-.611-.114-.282-.2-.57-.319-.849-.1-.228-.3-.8-.611-.8-.386,0-.466.829-.5,1.094a3.2,3.2,0,0,0-.088.688c.014.151.081.306.1.46a3.407,3.407,0,0,1,.007.52A2.831,2.831,0,0,0,737.569,136.07Zm-3.7-2.285c-.46.282-.463,1.04-.5,1.513-.026.322-.023.648-.04.973,0,.074-.087.4-.023.443a16.888,16.888,0,0,0,2.385-.382,9.919,9.919,0,0,0-.678-1.765C734.814,134.188,734.391,133.463,733.868,133.785Zm3.406,8.224a.988.988,0,0,1-.04.222c-.017.057-.061.107-.054.171.013.124.168.184.248.259s.157.225.285.242.211-.121.289-.205c.107-.117.218-.232.315-.355.228-.282.422-.594.641-.883H737.27C737.27,141.641,737.29,141.825,737.274,142.01Zm5.682-4.644.769.178C743.465,137.483,743.21,137.422,742.955,137.366Zm-15.993,5.342c.077.081.168.224.3.2s.178-.164.255-.242.221-.131.268-.248c.057-.141-.05-.291-.081-.426a2.378,2.378,0,0,1-.04-.533H726a7.287,7.287,0,0,0,.6.842C726.71,142.443,726.834,142.574,726.962,142.708Zm5.484,3.614a1.811,1.811,0,0,1-.135-.373c-.026-.094-.034-.181-.127-.228a.794.794,0,0,0-.3-.02,3.548,3.548,0,0,1-.423-.064,7.918,7.918,0,0,1-2.842-1.231c.081.3.208.587.282.889a.53.53,0,0,1-.265.617,1.668,1.668,0,0,1-1.6-.315,3.744,3.744,0,0,1-.678-.591,3.789,3.789,0,0,0-.621-.607,1.728,1.728,0,0,0-.765-.349.632.632,0,0,0-.47.3c-.04.057-.235.252-.225.326s.252.239.312.3c.121.117.242.232.359.352a8.2,8.2,0,0,1,.614.7,6.951,6.951,0,0,1,.473.775,3.459,3.459,0,0,0,3.2,1.379,17.229,17.229,0,0,0,2.037-.51,5.674,5.674,0,0,1,2.255-.024c-.061-.047-.117-.1-.178-.148A3.584,3.584,0,0,1,732.445,146.322Zm.671-4.712c0,.155-.117,1.47-.507,1.185-.154-.111-.2-.4-.238-.574a2.348,2.348,0,0,1-.047-.436c0-.084.044-.232-.017-.3s-.141-.037-.224-.03c-.144.013-.292.006-.44.006H728.4c.041.148.084.3.114.453a1.141,1.141,0,0,0,.1.439.688.688,0,0,0,.3.2c.158.074.312.155.47.225a6.862,6.862,0,0,0,1.939.53,8.235,8.235,0,0,0,4.02-.436,3.78,3.78,0,0,0,.923-.443.523.523,0,0,0,.192-.39,3.433,3.433,0,0,0,.1-.58h-3.44A1.175,1.175,0,0,1,733.116,141.61Zm38.7-2.114c-2.658-2.54-6.3-3.738-9.873-4.269a43.943,43.943,0,0,0-6.577-.3H744.932c-.624,0-1.249.006-1.873,0a3.323,3.323,0,0,0-.792-.007c-.215.057-.322.383-.446.544h10.04c1.692,0,3.383-.04,5.071,0a23.476,23.476,0,0,1,4.822.751q2.673.635,5.275,1.524H748.16c-.873,0-1.742,0-2.614,0a6.369,6.369,0,0,1-1.312-.081c-.171-.037-.342-.077-.51-.117.282.067.57.13.855.2-3.345,0-6.688-.01-10.033,0-.39,0-.775.02-1.165.043a8.642,8.642,0,0,1-1.218-.03c-.835-.057-1.671-.017-2.51-.013-1.661,0-3.322,0-4.983,0h-5.627a.686.686,0,0,1,.094-.027,3.224,3.224,0,0,1-.932.027c-.336-.007-.675,0-1.01,0H715.2c-.651,0-1.3,0-1.953,0-.312,0-.631.013-.943,0a1.347,1.347,0,0,0-.406-.014c-.121.037-.177.151-.248.248-.409.584-.885,1.121-1.3,1.7h36.108q6.015,0,12.023,0H772C771.939,139.617,771.875,139.557,771.811,139.5Zm-48.155-30.326c.08.061.164.121.244.174-.026-.02-.054-.037-.08-.06C723.774,109.248,723.727,109.171,723.657,109.171Zm.4.279c-.054-.034-.1-.067-.158-.1C723.951,109.382,724.005,109.416,724.059,109.449Zm21.01,23.849-.453-.061a.211.211,0,0,0,.02.014A1.557,1.557,0,0,0,745.069,133.3Zm-9.322-23c.279.208.567.406.835.624a1,1,0,0,0,.353.252c.144.034.3-.071.43-.121a9.347,9.347,0,0,1,1.973-.51,6.849,6.849,0,0,1,1.013-.094c.225,0,.56.131.661-.131a2.994,2.994,0,0,0,.091-.353c.05-.195.114-.386.174-.58.117-.4.235-.805.356-1.2a24.759,24.759,0,0,0-4.114-.006q-1.017.075-2.027.2c-.661.084-1.315.212-1.98.252.148.114.3.225.45.339C734.556,109.416,735.15,109.862,735.747,110.3Zm8.678.3a5.186,5.186,0,0,0,1.141.587,3.364,3.364,0,0,0,1.413.285,2.959,2.959,0,0,0,1.017-.255,8.7,8.7,0,0,0-4.967-2.832c.259.43.524.856.772,1.289A2.669,2.669,0,0,0,744.425,110.6Zm-19.661,6.882a1.467,1.467,0,1,0-1.433-1.158A1.495,1.495,0,0,0,724.764,117.483Zm-6.779-.617a4.624,4.624,0,0,0,2.04,2.164,7.623,7.623,0,0,0,3.181,1.05c-.4.138-.8.275-1.2.413a6.91,6.91,0,0,0,5.258,1.285,4.454,4.454,0,0,0,2.433-1.154,5.062,5.062,0,0,0,1.308-2.634,8.677,8.677,0,0,0,.161-1.839c-.006-.312-.034-.62-.057-.933-.027-.329-.014-.665-.044-.994a10.073,10.073,0,0,1-2.141.41,2.319,2.319,0,0,1-.97-.117,4.5,4.5,0,0,1-.882-.507c-1.131-.751-2.175-1.644-3.37-2.3a5.5,5.5,0,0,1,1.725.889c.208.148.4.309.591.473.05.043.235.208.228.064,0-.084-.144-.2-.195-.252-.114-.121-.239-.228-.366-.339-.252-.218-.513-.43-.779-.635a3.947,3.947,0,0,0-3.026-.7,3.75,3.75,0,0,0-1.722.745c-.238.181-.463.379-.684.574a.665.665,0,0,0-.218.282,1.18,1.18,0,0,0,.064.5c.06.382.1.775.137,1.161a2.661,2.661,0,0,1-.037,1.057A2.888,2.888,0,0,1,717.985,116.866Zm13.476,3.171a14.5,14.5,0,0,0-1.383,1.936,6.357,6.357,0,0,0-.865,2.168c-.064.382-.138.762-.219,1.141a7.932,7.932,0,0,0-.2,1.007,2,2,0,0,0,.591,1.651,1.935,1.935,0,0,0,1.755.473,2.6,2.6,0,0,0,1.336-1.094,2.666,2.666,0,0,0,1.346,1.1,1.887,1.887,0,0,0,1.651-.39,2,2,0,0,0,.711-1.594,4.994,4.994,0,0,0-.195-1.02c-.084-.349-.137-.7-.2-1.057a8.783,8.783,0,0,0-1.708-3.588c-.433-.58-.913-1.114-1.389-1.654-.077-.087-.151-.205-.282-.158-.114.044-.181.2-.252.292C731.935,119.523,731.683,119.768,731.462,120.037Zm-16.376.987c-.017-.289-.047-.577-.05-.869a2.108,2.108,0,0,1,.195-.792c.224-.567.463-1.127.707-1.688.473-1.1.984-2.2,1.554-3.252a13.9,13.9,0,0,1,1.832-2.778,6.475,6.475,0,0,1,2.973-1.779c-.134-.087-.265-.178-.4-.268.2-.037.406.271.55.372a2.285,2.285,0,0,0,.947.4,1.388,1.388,0,0,0-.349-.729,8.117,8.117,0,0,0,1.057-.157c-.017-.01-.034-.024-.047-.034v0c.188.121.376.248.567.366a2.962,2.962,0,0,0,1.212.477,2.592,2.592,0,0,0-.668-.909,1.271,1.271,0,0,1,.755.1c.3.175.564.416.842.621.564.419,1.134.832,1.7,1.249q1.762,1.293,3.521,2.583.855.624,1.7,1.249c.473.349,1.057.644,1.3,1.2a11.167,11.167,0,0,0,2.077,3.141c.268.286.547.557.842.816a5.2,5.2,0,0,0,.416.342c.094.067.242.124.279.245.047.137-.06.308-.1.439-.05.181-.084.373-.124.557-.088.393-.178.785-.265,1.178a9.289,9.289,0,0,0,3.208-.976c.262-.128.517-.262.769-.406a3.019,3.019,0,0,1,.675-.342c.564-.172,1.127-.322,1.677-.537-.134.379-.271.758-.386,1.145a1.7,1.7,0,0,1-.148.449c-.077.114-.208.107-.332.124a5.315,5.315,0,0,0-4.342,3.722c-.108.362-.128.735-.215,1.1-.064.252-.121.57.154.721.359.2.869-.107,1.221-.2a2.956,2.956,0,0,1,2.97,1.534,6.676,6.676,0,0,1,.7,2.292,7.187,7.187,0,0,0,.342,1.178.571.571,0,0,0,.2.325c-.2-.026-.4-.054-.6-.07-.359-.026-.721-.02-1.083-.02a12.552,12.552,0,0,0,.53-2.01l-.322.624.322-.624a22.4,22.4,0,0,0-1.705,1.527,12.054,12.054,0,0,0-1.379,1.755c-.091-.416-.181-.829-.268-1.245-.037-.175-.068-.353-.114-.524-.034-.121-.124-.279-.077-.406.074-.184.4-.235.567-.258a1.084,1.084,0,0,1,.429.026,2.234,2.234,0,0,0,.42.148c.3.02.141-.382.064-.52a.894.894,0,0,0-.611-.484c-.292-.06-.621.027-.658.356-.014.1-.017.255-.151.248-.114-.01-.2-.141-.289-.192-.3-.164-.315.262-.433.423a.831.831,0,0,1-.812.208,1.767,1.767,0,0,1-.906-.5c-.248-.221-.467-.154-.688.064-.235.235-.44.5-.661.738s-.406.2-.608-.023c-.265-.3-.614-1.061-1.107-.893a1.991,1.991,0,0,0-.681.55c-.205.2-.43.469-.735.49s-.56-.239-.769-.437a2.979,2.979,0,0,0-.667-.57c-.524-.266-.879.5-1.158.818-.181.208-.366.309-.6.114a4.433,4.433,0,0,1-.51-.6c-.168-.2-.4-.463-.691-.359s-.464.393-.749.513a1.239,1.239,0,0,1-.943.04.578.578,0,0,1-.255-.238c-.057-.1-.064-.285-.172-.349-.215-.131-.483.355-.624.1a2.648,2.648,0,0,1-.073-.272.4.4,0,0,0-.285-.235.844.844,0,0,0-.775.245.935.935,0,0,0-.272.6c.02.306.449.044.607.01a1.224,1.224,0,0,1,.946.221c.443.3.778.856,1.339.95a.742.742,0,0,0,.41-.044.843.843,0,0,1,.507-.034.743.743,0,0,1,.607.5,4.1,4.1,0,0,1,.124,1.091,7.988,7.988,0,0,1-.057,1.1c-.01.077-.081.279-.01.339a.025.025,0,0,0,.017.007,2.689,2.689,0,0,1-.59-.054,2.224,2.224,0,0,1-.6-.339c-.137-.087-.329-.134-.4-.3a1.044,1.044,0,0,1-.024-.352c-.006-.141-.017-.282-.023-.42a1.435,1.435,0,0,0-.137-.751c-.131-.172-.312.057-.4.174a1.81,1.81,0,0,0-.235,1.232c-.279-.01-.55.054-.825.057-.2,0-.282-.107-.352-.282-.188-.469-.289-.97-.5-1.43-.117-.268-.366-.617-.56-.184a1.779,1.779,0,0,0,.07,1.185,31.359,31.359,0,0,1-2.06-3.547,11.478,11.478,0,0,0,.473,2.01c-.44,0-.883-.027-1.322,0-.118.006-.292.057-.376-.054a.477.477,0,0,1-.057-.178,2.471,2.471,0,0,0-.134-.339,12.078,12.078,0,0,1-.829-2.393,5.335,5.335,0,0,1,.081-2.533,1.39,1.39,0,0,1,.161-.46c.1-.128.252-.117.4-.131A12.676,12.676,0,0,1,722.1,127a14.17,14.17,0,0,1,2.93.362,11.882,11.882,0,0,0-.967-2.023,4.911,4.911,0,0,0-1.235-1.507c-1.225-.879-2.634-.134-3.939.061-.4.061-.524-.379-.826-.544-.127-.07-.137.017-.11.134a1.668,1.668,0,0,0,.271.554c-.188.046-.372-.192-.477-.312-.151-.181-.275-.383-.413-.571-.02-.023-.081-.134-.121-.134-.077,0-.044.164-.037.212a1.915,1.915,0,0,0,.419.943c-.191.04-.329-.137-.439-.265a5.067,5.067,0,0,1-.44-.564,2.609,2.609,0,0,1-.329-.665c-.017-.06-.061-.319-.158-.3-.161.044.024.584.05.688a2.828,2.828,0,0,0,.658,1.208c-.131.014-.279.081-.406.014-.108-.057-.158-.195-.208-.3a4.706,4.706,0,0,1-.335-.893,6,6,0,0,1-.077-1.9c.006-.061.017-.178-.073-.111-.061.041-.081.215-.1.279a4.167,4.167,0,0,0-.155.953,3.74,3.74,0,0,0,.356,1.809.153.153,0,0,0-.061-.047,2.255,2.255,0,0,1-.587-1.265A12.007,12.007,0,0,1,715.086,121.023Zm13.976,15.127a1.433,1.433,0,0,1,.175.01C729.223,136.111,729.129,136.14,729.062,136.151Zm-.05,0c.017,0,.034,0,.05,0a.232.232,0,0,1-.05,0" transform="translate(-1.169 -20.43)" fill="#fff"/>
    <path id="Path_30" data-name="Path 30" d="M695.5,121.634h2.207a3.7,3.7,0,0,1,.353-1.023h-2.128A3.549,3.549,0,0,0,695.5,121.634Zm77.245-25.389c0-.007,0-.01,0-.017v0S772.748,96.238,772.748,96.245Zm3.228-10.04v-.034c-.006-.2-.023-.39-.047-.577a5.067,5.067,0,0,0-.1-.618.067.067,0,0,0-.007-.026c-.026-.114-.057-.225-.09-.336,0-.014-.007-.023-.01-.037-.033-.108-.07-.212-.114-.315a.083.083,0,0,1-.006-.027,3.835,3.835,0,0,0-.533-.923c-1.708-2.154-3.125-2.52-3.849-2.533a7.224,7.224,0,0,1-5.56,2.385,11.055,11.055,0,0,1-2.8-.386c-4.919-1.3-8.181-8.5-11.1-15.752-.305-.762-.567-1.416-.792-1.94a14.1,14.1,0,0,0-9.255-7.776c-.7,3.564-2.688,9.685-8.041,9.685-.084,0-.171,0-.255,0q-.226-.011-.453-.01t-.453.01c-.087,0-.171,0-.255,0-5.353,0-7.339-6.121-8.041-9.685a14.1,14.1,0,0,0-9.255,7.776c-.225.524-.487,1.178-.792,1.94-2.916,7.255-6.178,14.45-11.1,15.752a11.056,11.056,0,0,1-2.8.386,7.224,7.224,0,0,1-5.56-2.385c-.725.013-2.141.379-3.853,2.533a3.816,3.816,0,0,0-.527.923c0,.01-.01.017-.01.027-.044.1-.081.208-.114.315,0,.014-.007.023-.01.037-.037.111-.064.222-.09.336a.08.08,0,0,0-.007.026,5.293,5.293,0,0,0-.1.574c-.026.2-.043.41-.05.621V86.2c0,.121-.006.248,0,.375,0,.034,0,.071,0,.108,0,.1.007.2.01.309,0,.05.006.1.01.144.007.094.014.192.024.289.006.054.01.107.017.164.01.09.023.181.034.275.01.06.017.117.026.177.013.091.027.181.044.272.01.064.02.124.034.192.017.087.034.177.054.268.03.151.064.305.1.46.013.057.023.114.037.171l.081.3c.013.054.026.108.043.161.027.1.057.212.088.315.017.05.03.1.043.151.034.111.067.222.1.333.013.043.026.087.043.134.037.117.077.235.117.352a1.019,1.019,0,0,0,.034.1c.044.131.091.262.138.4a.026.026,0,0,1,.006.017c.091.242.188.487.285.735,0,0,0,.01.007.017.026.067.057.137.084.2.081.195.161.39.248.584.023.057.05.118.073.175.1.228.208.457.316.681.034.074.067.144.1.219l.04.08c.067.144.138.289.212.429.053.1.1.212.161.316.02.046.047.09.07.134s.03.057.044.087c.067.128.134.255.2.379s.144.262.218.393c.027.047.05.1.077.144l-.041-.081a.446.446,0,0,0,.037.064c-.148-.319-.282-.638-.413-.956-.01-.024-.021-.05-.03-.077-.053-.131-.108-.265-.158-.4-.06-.158-.117-.315-.171-.473-.03-.057-.057-.114-.084-.171a15.011,15.011,0,0,1-1.081-3.044c-.047-.212-.09-.422-.124-.634-.024-.161-.053-.322-.074-.48l-.04-.487-.017-.245,0-.241v-.487a8.615,8.615,0,0,1,.3-1.922,6.834,6.834,0,0,1,.8-1.769c.084-.137.184-.265.275-.4s.2-.255.312-.369a4.256,4.256,0,0,1,.722-.648.039.039,0,0,1,.057.01.046.046,0,0,1-.006.054l0,0a6.024,6.024,0,0,0-1.916,3.181,8.546,8.546,0,0,0-.238,1.866l.02.7.027.235.05.466c.023.157.057.312.084.466.037.208.087.42.137.624a6.287,6.287,0,0,1,.161-2.484c0-.134.02-.268.02-.4l.047-.406.074-.4a6.1,6.1,0,0,1,.557-1.52,6.391,6.391,0,0,1,.933-1.312,5.456,5.456,0,0,1,1.252-.987.039.039,0,0,1,.054.014.041.041,0,0,1-.01.054,5.956,5.956,0,0,0-1.107,1.083,6.02,6.02,0,0,0-.805,1.3,6.412,6.412,0,0,0-.463,1.45l-.006.03c1.52-2.077,2.859-2.433,3.553-2.45a7.316,7.316,0,0,0,5.5,2.353,10.3,10.3,0,0,0,2.688-.379c2.5-.681,4.51-3.023,6.238-6.174-.4.557-.812,1.107-1.245,1.637a13.063,13.063,0,0,1-3.252,2.967,6.878,6.878,0,0,1-4.218,1.04.041.041,0,0,1-.037-.044.038.038,0,0,1,.041-.037,6.192,6.192,0,0,0,2.138-.259,7.9,7.9,0,0,0,1.95-.913,12.63,12.63,0,0,0,3.1-2.973,39.116,39.116,0,0,0,2.476-3.574c.188-.309.376-.624.557-.94.913-2.057,1.755-4.3,2.574-6.564.282-.782.527-1.46.735-2,1.285-3.319,2.288-6.886,6.859-8.124a15.316,15.316,0,0,0,4.057,7.1c-.289-.426-.56-.866-.816-1.316a21.89,21.89,0,0,1-1.389-2.947,19.935,19.935,0,0,1-.906-3.117.04.04,0,0,1,.03-.05.044.044,0,0,1,.047.03,23,23,0,0,0,1.057,3.047,21.622,21.622,0,0,0,1.463,2.862,23.315,23.315,0,0,0,1.845,2.625l.071.084a8.146,8.146,0,0,0,4.835,1.772c.084,0,.168,0,.251-.006.151-.007.3-.007.45-.007s.3,0,.446.007c.087,0,.168.006.252.006h0a7.67,7.67,0,0,0,3.9-1.147,12.368,12.368,0,0,0,1.023-.813,13.412,13.412,0,0,0,2.155-2.436,13.233,13.233,0,0,0,1.506-2.893,13.755,13.755,0,0,0,.786-3.185.042.042,0,0,1,.047-.034.043.043,0,0,1,.037.04,12.887,12.887,0,0,1-.638,3.262,13.411,13.411,0,0,1-1.295,2.762,14.6,14.6,0,0,0,2.778-5.651c4.571,1.238,5.574,4.805,6.859,8.124.208.54.453,1.218.735,2,0,0,0,.006,0,.01q1.224,2.376,2.386,4.785a35.824,35.824,0,0,0,2.983,5.58A10.472,10.472,0,0,0,759.1,83.8a7.175,7.175,0,0,0,2.829,1.339.041.041,0,0,1,.034.047.044.044,0,0,1-.047.034A7.3,7.3,0,0,1,759,83.936a10.653,10.653,0,0,1-2.268-2.258,36.389,36.389,0,0,1-3.1-5.574c-.3-.6-.6-1.194-.9-1.792,2.376,6.165,5.114,11.578,9.151,12.675a10.3,10.3,0,0,0,2.688.379,7.321,7.321,0,0,0,5.5-2.353c.7.017,2.053.376,3.591,2.5a4.117,4.117,0,0,1,.7,2.124,6.606,6.606,0,0,0,.054-.732,4.232,4.232,0,0,0-.9-2.876A5.453,5.453,0,0,0,772.346,85c-.44-.289-.906-.544-1.376-.792a.04.04,0,0,1-.017-.054.041.041,0,0,1,.05-.021,7.885,7.885,0,0,1,2.7,1.728,4.047,4.047,0,0,1,.812,1.419,5.424,5.424,0,0,1,.252,1.617,9.339,9.339,0,0,1-.577,3.037c-.034.168-.067.336-.108.507-.023.1-.05.2-.073.3-.021.077-.037.151-.057.225-.006.02-.01.037-.017.057-.034.114-.067.235-.1.353-.014.04-.023.08-.037.121-.047.157-.1.319-.155.48-.006.017-.01.037-.017.054-.241.715-.533,1.443-.865,2.178l-.01.021c.027-.041.05-.084.074-.128.074-.131.144-.259.215-.39.111-.2.215-.4.322-.6.034-.067.071-.138.1-.208.017-.034.034-.067.05-.1.074-.144.148-.289.218-.433.014-.03.027-.06.04-.087.033-.07.068-.137.1-.208.107-.228.211-.453.315-.682.023-.057.047-.114.073-.174.084-.195.168-.39.248-.584V92.62c.03-.074.061-.144.091-.215.006-.024.017-.047.023-.07.091-.222.178-.443.259-.668l.01-.02c.047-.131.091-.259.138-.39.014-.034.023-.067.034-.1.04-.117.081-.235.117-.352.017-.044.03-.091.044-.134.037-.111.07-.222.1-.329.017-.054.03-.1.047-.155.03-.1.06-.212.087-.315.017-.054.03-.107.043-.161.027-.1.054-.2.077-.3.017-.057.027-.117.041-.175.037-.154.07-.308.1-.459.02-.091.037-.178.054-.265.014-.064.023-.128.034-.192.013-.091.03-.181.044-.272.01-.06.017-.121.023-.177.014-.094.027-.185.037-.275,0-.057.01-.111.017-.164.01-.1.017-.195.024-.289,0-.046.006-.094.01-.144.007-.1.01-.205.01-.309,0-.037,0-.074,0-.111C775.983,86.453,775.98,86.328,775.976,86.2ZM693.909,120.61a.061.061,0,0,1,0,.024c.017.087.034.174.054.262a.189.189,0,0,1,.007.02,4.371,4.371,0,0,0,.144.486c.007.014.01.027.017.041.023.067.05.134.073.191h.614a3.678,3.678,0,0,1,.353-1.023Zm7.808,0a3.65,3.65,0,0,0-.436,1.023h2.211a1.76,1.76,0,0,1,.047-.215,4.068,4.068,0,0,1,.305-.809Zm6.336-6.228a60.651,60.651,0,0,0-8.255.09,10.132,10.132,0,0,0-4.292,2.333h1.614s.469-.333.986-.635a.107.107,0,0,1,.027-.014,4.761,4.761,0,0,1,.778-.382.014.014,0,0,1,.007,0,1.566,1.566,0,0,1,.184-.057c.006,0,.017,0,.027,0a.011.011,0,0,1,.006,0,32.929,32.929,0,0,1,4.779-.419h.11c.383,0,.766,0,1.134.013h.01c1.765.064,3.49.164,4.322.219.329.02.524.034.524.034A3.065,3.065,0,0,0,708.053,114.383Zm-9.661,7.251H700.6a3.794,3.794,0,0,1,.355-1.023h-2.128A3.558,3.558,0,0,0,698.392,121.634Zm52.849-24.714.389,2.345a4.463,4.463,0,0,0,.531-.034,2.859,2.859,0,0,0,2.2-1.141,12.473,12.473,0,0,1-2.292-.671A2.978,2.978,0,0,1,751.241,96.919Zm5.973-4.162s-1.235,3.087-2.943,3.584a4.224,4.224,0,0,1-2.393-.046,4.149,4.149,0,0,1-.8-.326l-.1-1.1-.007-.054a1.206,1.206,0,0,0,.155,0c.081,0,.184,0,.322-.01s.272-.014.457-.027a2.3,2.3,0,0,0,1.926-1.107,10.607,10.607,0,0,1-3.145-.58l-.151-.906a3.74,3.74,0,0,1,3.453,0,4.847,4.847,0,0,0,3.228.577" transform="translate(-1.673 -2.396)" fill="#f61414"/>
    <path id="Path_31" data-name="Path 31" d="M857.024,74.716l-.46,23.249,21.333.161V87.377l-3.493-.755L877.9,84.81V74.716ZM862.007,79l9.957-.2-.168,4.953H862.1Zm9.957,15.134-10.158-.2.3-4.748,10.024-.161Zm27.4,3.889-.426-17.147-17.809-.128-.064,17.413Zm-12.4-12.665,6-.127-.137,7.222h-5.6Zm29.342,12.568-.362-12.759-6.228-.138.523,12.93-7.352.127-.359-17.54,20.608-.195.392,17.446Zm17.481-24.272-6.7-.128-.4,24.433,6.859-.131V93.679l1.259-1.393,4.248,5.776h6.957l-7.456-9.856,6.168-7.262-7.02-.127-3.919,4.252Zm22.154,17.413.259,2.607h9.4l.557,4.154-15.99.131-.99-17.446,16.359-.3.789,10.456Zm-.53-3.725,5.772-.332-.3-3.131-5.836.127Zm22.557.168h4.611l.265-7.487-13.353.128.064,17.775h6.232l-.067-13.517,2.248.067Zm8.172-7.721-.131,5.346,11.97-.232-11.01,4.218-.5,8.839h20.51V92.1l-13.483.523,12.855-4.976.265-7.977Z" transform="translate(-60.838 -8.156)" fill="none" stroke="#000" stroke-width="7.222"/>
    <g id="Group_47" data-name="Group 47" transform="translate(795.724 66.572)">
      <g id="Group_46" data-name="Group 46" transform="translate(0 0)">
        <path id="Path_32" data-name="Path 32" d="M857.03,75.387l-.469,23.235,21.329.161V88.045l-3.49-.765,3.49-1.812V75.387ZM862,79.669l9.96-.2-.161,4.94H862.1Zm9.96,15.127-10.147-.2.3-4.738,10.013-.175Z" transform="translate(-856.561 -75.387)" fill="#ff3131"/>
      </g>
    </g>
    <g id="Group_50" data-name="Group 50" transform="translate(820.221 72.598)">
      <g id="Group_49" data-name="Group 49" transform="translate(0 0)">
        <path id="Path_33" data-name="Path 33" d="M912.843,102.008l-.43-17.141-17.8-.135-.067,17.41ZM900.453,89.35l6-.135-.134,7.222h-5.611Z" transform="translate(-894.547 -84.732)" fill="#ff3131"/>
      </g>
    </g>
    <g id="Group_53" data-name="Group 53" transform="translate(841.686 72.196)">
      <g id="Group_52" data-name="Group 52" transform="translate(0 0)">
        <path id="Path_34" data-name="Path 34" d="M941.615,101.692l-.362-12.765-6.228-.134.523,12.926-7.356.134-.362-17.544,20.6-.2.4,17.45Z" transform="translate(-927.83 -84.108)" fill="#ff3131"/>
      </g>
    </g>
    <g id="Group_56" data-name="Group 56" transform="translate(865.854 65.377)">
      <g id="Group_55" data-name="Group 55" transform="translate(0 0)">
        <path id="Path_35" data-name="Path 35" d="M972.393,73.669l-6.685-.134-.4,24.429,6.859-.134V93.682l1.248-1.382,4.255,5.758h6.953l-7.45-9.853,6.175-7.248-7.034-.134-3.919,4.255Z" transform="translate(-965.306 -73.535)" fill="#ff3131"/>
      </g>
    </g>
    <g id="Group_59" data-name="Group 59" transform="translate(888.34 72.075)">
      <g id="Group_58" data-name="Group 58">
        <path id="Path_36" data-name="Path 36" d="M1006.939,94.766l.255,2.6h9.4l.564,4.148-15.986.134-.993-17.436,16.349-.3.792,10.443Zm-.537-3.731,5.772-.322-.3-3.141-5.839.134Z" transform="translate(-1000.174 -83.921)" fill="#ff3131"/>
      </g>
    </g>
    <g id="Group_62" data-name="Group 62" transform="translate(908.65 71.874)">
      <g id="Group_61" data-name="Group 61">
        <path id="Path_37" data-name="Path 37" d="M1040.137,91.085h4.618l.268-7.476-13.356.134.067,17.771h6.228L1037.9,88l2.242.054Z" transform="translate(-1031.667 -83.609)" fill="#ff3131"/>
      </g>
    </g>
    <g id="Group_65" data-name="Group 65" transform="translate(925.169 71.512)">
      <g id="Group_64" data-name="Group 64" transform="translate(0 0)">
        <path id="Path_38" data-name="Path 38" d="M1057.416,83.181l-.134,5.342,11.973-.242-11.021,4.228-.483,8.833h20.5V95.476L1064.772,96l12.846-4.98.268-7.973Z" transform="translate(-1057.282 -83.047)" fill="#ff3131"/>
      </g>
    </g>
    <path id="Path_39" data-name="Path 39" d="M842.291,150.982l21.631.074,6.325-6.255.446-11.47-8.6-7.071-19.172.192Zm7.517-7.708.3-11.242,8.634-.3,3.356,2.829-.111,6.779-3.389,2.238Zm45.121,7.852-.483-19.359-20.1-.144-.074,19.658Zm-14-14.3,6.782-.148-.154,8.155h-6.326Zm33.134,14.188-.409-14.406-7.034-.154.591,14.6-8.3.144L898.5,131.4l23.269-.219.446,19.7ZM933.8,123.613l-7.563-.144-.443,27.587,7.741-.148v-4.688l1.419-1.574,4.8,6.517H947.6l-8.416-11.124,6.963-8.2-7.926-.148-4.427,4.8Zm25.017,19.661.289,2.947h10.618l.627,4.688-18.051.148-1.118-19.7,18.467-.335.892,11.805Zm-.6-4.208,6.517-.373-.335-3.537-6.591.148Zm25.466.191h5.208l.3-8.453-15.08.144.074,20.071h7.034l-.07-15.262,2.533.074Zm9.229-8.718-.148,6.037,13.517-.265-12.433,4.765-.564,9.98h23.158v-6.628l-15.225.591,14.517-5.618.3-9.007Z" transform="translate(-55.769 -25.889)" fill="none" stroke="#000" stroke-width="8.154"/>
    <g id="Group_68" data-name="Group 68" transform="translate(786.513 100.374)">
      <g id="Group_67" data-name="Group 67">
        <path id="Path_40" data-name="Path 40" d="M842.278,152.514l21.638.081,6.336-6.256.442-11.463-8.6-7.074-19.168.175Zm7.531-7.705.3-11.248,8.644-.3,3.343,2.832-.108,6.779-3.4,2.228Z" transform="translate(-842.278 -127.802)" fill="#ff3131"/>
      </g>
    </g>
    <g id="Group_71" data-name="Group 71" transform="translate(818.492 105.73)">
      <g id="Group_70" data-name="Group 70">
        <path id="Path_41" data-name="Path 41" d="M912.536,155.624l-.483-19.369-20.107-.148-.081,19.664Zm-14-14.308,6.779-.148-.148,8.161h-6.335Z" transform="translate(-891.865 -136.107)" fill="#ff3131"/>
      </g>
    </g>
    <g id="Group_74" data-name="Group 74" transform="translate(842.726 105.287)">
      <g id="Group_73" data-name="Group 73" transform="translate(0)">
        <path id="Path_42" data-name="Path 42" d="M945.015,155.259l-.417-14.4-7.033-.148.6,14.591-8.308.148-.417-19.813,23.276-.215.457,19.691Z" transform="translate(-929.444 -135.42)" fill="#ff3131"/>
      </g>
    </g>
    <g id="Group_77" data-name="Group 77" transform="translate(870.014 97.569)">
      <g id="Group_76" data-name="Group 76">
        <path id="Path_43" data-name="Path 43" d="M979.77,123.613l-7.557-.161-.457,27.6,7.745-.148v-4.7l1.423-1.557,4.806,6.51h7.852l-8.416-11.128,6.966-8.188-7.933-.148-4.43,4.792Z" transform="translate(-971.757 -123.452)" fill="#ff3131"/>
      </g>
    </g>
    <g id="Group_80" data-name="Group 80" transform="translate(895.404 105.139)">
      <g id="Group_79" data-name="Group 79">
        <path id="Path_44" data-name="Path 44" d="M1018.765,147.432l.3,2.94h10.618l.631,4.7-18.054.148-1.127-19.692,18.47-.335.9,11.8Zm-.591-4.2,6.51-.376-.336-3.53-6.59.148Z" transform="translate(-1011.127 -135.191)" fill="#ff3131"/>
      </g>
    </g>
    <g id="Group_83" data-name="Group 83" transform="translate(918.336 104.911)">
      <g id="Group_82" data-name="Group 82">
        <path id="Path_45" data-name="Path 45" d="M1056.256,143.294h5.222l.3-8.457-15.087.148.081,20.067h7.033l-.067-15.261,2.524.067Z" transform="translate(-1046.686 -134.837)" fill="#ff3131"/>
      </g>
    </g>
    <g id="Group_86" data-name="Group 86" transform="translate(936.986 104.495)">
      <g id="Group_85" data-name="Group 85">
        <path id="Path_46" data-name="Path 46" d="M1075.767,134.353l-.161,6.027,13.517-.268-12.43,4.779-.564,9.973H1099.3v-6.632l-15.235.6,14.524-5.624.3-9.02Z" transform="translate(-1075.606 -134.192)" fill="#ff3131"/>
      </g>
    </g>
  </g>
</svg>
