<svg width="96" height="80" viewBox="0 0 96 80" fill="none" xmlns="http://www.w3.org/2000/svg">
<mask id="mask0_349_250" style="mask-type:luminance" maskUnits="userSpaceOnUse" x="0" y="0" width="96" height="80">
<path d="M95.356 0H0V79.071H95.356V0Z" fill="white"/>
</mask>
<g mask="url(#mask0_349_250)">
<path d="M74.7491 62.186C83.4241 56.515 87.068 51.625 89.799 47.454C91.226 45.279 98.071 34.128 93.105 27.867C90.447 24.522 87.813 23.82 86.068 23.82C85.413 23.807 84.7616 23.9197 84.149 24.152C83.7542 24.298 83.4334 24.5947 83.257 24.977C82.9531 25.3993 82.5441 25.7349 82.0705 25.9505C81.5969 26.166 81.0752 26.2541 80.557 26.206C79.958 26.1984 79.3624 26.1137 78.785 25.954C77.849 25.706 76.295 24.642 74.218 20.984C72.7578 18.268 71.4754 15.4601 70.379 12.578C70.064 11.796 69.791 11.122 69.55 10.555C68.2504 7.6683 66.2144 5.17423 63.6463 3.323C61.0783 1.47178 58.0685 0.328527 54.919 0.00795964C54.865 0.00795964 54.808 0.00195912 54.751 0.00195912C54.3062 0.000803332 53.8772 0.166787 53.549 0.467016C53.2208 0.767246 53.0174 1.17981 52.979 1.62296C52.8025 3.4188 52.3781 5.18154 51.718 6.86096C50.993 8.62296 49.95 10.039 48.577 10.039H48.477C48.272 10.033 48.067 10.025 47.866 10.025C47.665 10.025 47.46 10.032 47.255 10.039H47.155C44.413 10.039 43.014 4.41796 42.755 1.65996C42.7323 1.36762 42.6404 1.08487 42.487 0.834959C42.3261 0.580049 42.1032 0.370056 41.8391 0.22457C41.5751 0.0790831 41.2785 0.00284201 40.977 0.00295857C40.923 0.00295857 40.866 0.00295909 40.813 0.00895909C37.6635 0.329527 34.6538 1.47278 32.0857 3.324C29.5177 5.17523 27.4817 7.6693 26.182 10.556C25.94 11.123 25.669 11.797 25.349 12.579C24.2552 15.4615 22.9741 18.2695 21.514 20.985C19.437 24.643 17.8831 25.706 16.9471 25.955C16.3696 26.1144 15.774 26.1991 15.175 26.207C14.6569 26.2553 14.1351 26.1673 13.6615 25.9518C13.1878 25.7362 12.7788 25.4005 12.475 24.978C12.2981 24.5957 11.977 24.2991 11.582 24.153C10.9693 23.9211 10.318 23.8084 9.66305 23.821C7.91805 23.821 5.284 24.521 2.626 27.868C-2.34 34.13 4.50503 45.281 5.93203 47.455C8.57275 51.6368 11.8989 55.344 15.771 58.421C13.7878 58.5751 11.8607 59.1531 10.12 60.116C8.86383 60.9111 7.64863 61.7692 6.47903 62.687H6.37899C5.25448 62.687 4.17604 63.1337 3.38089 63.9288C2.58573 64.724 2.139 65.8024 2.139 66.927C2.139 68.0515 2.58573 69.1299 3.38089 69.9251C4.17604 70.7202 5.25448 71.167 6.37899 71.167C7.20839 71.169 8.01986 70.9254 8.71103 70.467H17.107C17.0654 70.9508 17.1108 71.4381 17.241 71.906C17.5458 72.9045 18.2015 73.759 19.087 74.312C19.8963 74.8441 20.823 75.1712 21.787 75.265L26.334 75.765C25.183 74.604 23.465 72.849 24.166 71.376C24.307 71.084 24.466 70.776 24.629 70.467H33.988C34.3507 71.2142 34.8555 71.8836 35.474 72.438L35.504 72.465C36.983 73.673 39.467 75.697 39.823 76.522C40.443 77.948 42.3761 78.985 44.4131 78.985C44.9814 78.9862 45.5468 78.9037 46.091 78.74C47.2501 78.3845 48.489 78.3845 49.648 78.74C50.1923 78.9037 50.7577 78.9862 51.326 78.985C53.363 78.985 55.296 77.948 55.917 76.522C56.272 75.697 58.753 73.673 60.235 72.465L60.265 72.438C60.882 71.8848 61.3856 71.2171 61.748 70.472H91.707L88.67 67.435C84.361 63.126 77.609 62.327 74.75 62.19" fill="black"/>
</g>
<path d="M58.1519 33.0262C59.4272 32.8978 60.7154 33.0197 61.9439 33.3853C61.7189 33.2613 54.4439 29.2642 47.8699 29.3022C41.2959 29.2652 34.021 33.2623 33.796 33.3853C35.0245 33.0198 36.3126 32.8978 37.588 33.0262C34.598 33.7382 31.152 37.9193 31.044 38.0503C31.081 38.0333 31.544 37.8252 34.984 36.2082C37.284 35.1312 41.8499 34.4303 44.8839 34.0643C46.8679 33.823 48.8739 33.823 50.8579 34.0643C53.8919 34.4303 58.4579 35.1312 60.7579 36.2082C64.2009 37.8252 64.6579 38.0343 64.6979 38.0503C64.5879 37.9183 61.1419 33.7382 58.1519 33.0262ZM91.7119 28.9763C89.4569 26.1303 87.3399 25.5972 86.0679 25.5972C85.6501 25.5866 85.2339 25.6526 84.84 25.7922C84.3919 26.5113 83.7568 27.0951 83.0025 27.481C82.2483 27.8669 81.4032 28.0405 80.5579 27.9832C79.8059 27.9764 79.0579 27.8715 78.333 27.6713C73.414 26.3713 69.6519 15.3052 67.9169 11.2542C66.7422 8.66237 64.9085 6.42374 62.5987 4.76159C60.2889 3.09943 57.5837 2.07183 54.7529 1.78125C54.7529 1.78125 53.8669 11.8182 48.5779 11.8182C48.5209 11.8182 48.4679 11.8182 48.4099 11.8182C48.2289 11.8122 48.0509 11.8083 47.8699 11.8083C47.6889 11.8083 47.511 11.8082 47.33 11.8182C47.273 11.8182 47.2189 11.8182 47.1619 11.8182C41.8729 11.8182 40.9869 1.78125 40.9869 1.78125C38.1564 2.07226 35.4516 3.10017 33.1422 4.76249C30.8327 6.4248 28.9994 8.66346 27.825 11.2552C26.09 15.3062 22.3249 26.3693 17.4089 27.6723C16.684 27.8723 15.936 27.9772 15.184 27.9842C14.3387 28.0415 13.4936 27.8679 12.7394 27.482C11.9851 27.0961 11.35 26.5123 10.9019 25.7932C10.5078 25.6542 10.0917 25.5881 9.67396 25.5982C8.40196 25.5982 6.28398 26.1313 4.02998 28.9773C0.414977 33.5313 4.68094 42.2833 7.42994 46.4773C10.333 51.0578 14.0741 55.0495 18.4569 58.2433H18.557L18.265 57.8533C17.965 57.4603 17.6649 57.0682 17.3649 56.6652C17.3586 56.6566 17.3559 56.646 17.3572 56.6354C17.3585 56.6248 17.3638 56.6151 17.372 56.6082C17.3794 56.6033 17.388 56.6007 17.3969 56.6007C17.4058 56.6007 17.4145 56.6033 17.4219 56.6082C17.8196 56.9184 18.1933 57.258 18.5399 57.6242C18.7109 57.8052 18.8789 57.9973 19.0399 58.1883L19.0809 58.2382C19.1749 58.2382 19.2649 58.2382 19.3599 58.2382C19.2489 58.1002 19.1409 57.9632 19.0339 57.8212C18.7882 57.503 18.5586 57.1725 18.346 56.8312C18.3404 56.8218 18.3387 56.8106 18.3413 56.7999C18.3439 56.7892 18.3506 56.78 18.3599 56.7743C18.3668 56.7694 18.375 56.7668 18.3834 56.7668C18.3918 56.7668 18.4 56.7694 18.4069 56.7743C18.7185 57.0292 19.0166 57.3002 19.2999 57.5862C19.4439 57.7272 19.5819 57.8682 19.7189 58.0162L19.924 58.2352L19.934 58.2482C20.072 58.2482 20.2029 58.2582 20.3339 58.2652C20.2599 58.1652 20.1899 58.0652 20.1119 57.9572C19.8839 57.6512 19.6489 57.3572 19.4119 57.0412C19.4086 57.0369 19.4062 57.032 19.4049 57.0267C19.4035 57.0214 19.4034 57.0159 19.4043 57.0105C19.4052 57.0052 19.4073 57 19.4103 56.9955C19.4134 56.991 19.4173 56.9872 19.4219 56.9842C19.429 56.9799 19.4371 56.9776 19.4454 56.9776C19.4537 56.9776 19.4619 56.9799 19.4689 56.9842C19.8004 57.1985 20.1067 57.4494 20.382 57.7323C20.519 57.8693 20.6529 58.0172 20.7819 58.1682L20.882 58.2993C21.023 58.3093 21.1639 58.3202 21.3049 58.3332C21.0616 58.1069 20.8059 57.8942 20.5389 57.6962C20.5345 57.6927 20.5309 57.6882 20.5281 57.6832C20.5254 57.6782 20.5237 57.6727 20.5231 57.667C20.5226 57.6613 20.5232 57.6556 20.5248 57.6501C20.5265 57.6447 20.5293 57.6396 20.533 57.6353C20.538 57.629 20.5447 57.6243 20.5523 57.6218C20.56 57.6193 20.5682 57.6191 20.5759 57.6213C20.9316 57.7235 21.2676 57.8848 21.57 58.0982C21.7025 58.1901 21.8291 58.2903 21.9489 58.3983C22.1969 58.4253 22.4379 58.4593 22.6699 58.4923C15.0019 53.3813 11.741 48.9983 9.28797 45.2543C8.86797 44.6173 8.46596 43.9492 8.08796 43.2642C8.08796 43.2702 8.08796 43.2742 8.08796 43.2812C7.88796 42.9282 7.69793 42.5692 7.51093 42.2072C7.56244 42.2439 7.61622 42.2773 7.67194 42.3072C7.67194 42.3072 4.87194 37.6992 5.88294 33.6692C6.89394 29.6392 9.38996 29.2973 9.38996 29.2973C9.38996 29.2973 13.4539 32.5292 16.0109 31.9612C16.7459 31.8002 18.0549 30.7292 19.5989 29.1422C21.8769 27.8572 23.781 25.2693 25.465 22.1023C27.43 19.5447 29.1037 16.7759 30.455 13.8472C31.1654 12.0929 32.2274 10.5025 33.5755 9.17402C34.9236 7.8455 36.5294 6.80693 38.294 6.12225C38.294 6.12225 42.8679 16.1023 47.8709 15.9543C52.8709 16.1023 57.4479 6.12225 57.4479 6.12225C59.2125 6.80693 60.8183 7.8455 62.1664 9.17402C63.5145 10.5025 64.5765 12.0929 65.2869 13.8472C66.6354 16.7765 68.3078 19.5455 70.273 22.1023C71.965 25.2703 73.864 27.8572 76.142 29.1422C77.686 30.7292 78.9939 31.8002 79.7299 31.9612C82.2869 32.5292 86.3469 29.2973 86.3469 29.2973C86.3469 29.2973 88.8569 29.6432 89.8569 33.6692C90.8569 37.6952 88.0679 42.3072 88.0679 42.3072C88.1219 42.2772 88.168 42.2432 88.226 42.2072C88.132 42.3842 88.0419 42.5663 87.9439 42.7443C87.8739 42.8753 87.803 43.0033 87.729 43.1343C87.705 43.1843 87.6789 43.2343 87.6519 43.2823C87.6519 43.2753 87.6519 43.2723 87.6519 43.2683C87.2699 43.9493 86.867 44.6173 86.452 45.2543C83.798 49.3083 80.197 54.1103 71.083 59.7713C69.6323 60.6603 68.1258 61.4549 66.5729 62.1502H67.486L67.5059 62.1402L68.2379 61.7242C68.4859 61.5872 68.7379 61.4563 68.9829 61.3243C69.2279 61.1923 69.4829 61.0693 69.7449 60.9513C69.7498 60.9488 69.7552 60.9474 69.7606 60.9471C69.7661 60.9469 69.7715 60.9478 69.7766 60.9497C69.7817 60.9517 69.7863 60.9547 69.7902 60.9586C69.794 60.9625 69.797 60.9671 69.799 60.9722C69.8033 60.9798 69.8047 60.9887 69.8029 60.9972C69.801 61.0057 69.796 61.0132 69.7889 61.0183C69.5669 61.1993 69.3389 61.3643 69.1149 61.5353C68.8909 61.7063 68.6579 61.8643 68.4269 62.0213L68.2349 62.1493H68.7349L68.9349 62.0053L69.6599 61.5053C69.9049 61.3413 70.15 61.1763 70.398 61.0183C70.646 60.8603 70.898 60.7032 71.156 60.5552C71.1651 60.5506 71.1757 60.5494 71.1856 60.552C71.1956 60.5546 71.2042 60.5607 71.21 60.5692C71.2147 60.5771 71.2166 60.5862 71.2155 60.5953C71.2144 60.6043 71.2103 60.6128 71.2039 60.6193C70.9929 60.8273 70.767 61.0192 70.546 61.2192C70.325 61.4192 70.0999 61.6052 69.8709 61.7902L69.421 62.1562H69.981L70.273 61.9213L70.9279 61.4042C71.1459 61.2332 71.3679 61.0653 71.5919 60.8983C71.8159 60.7313 72.045 60.5692 72.28 60.4142C72.2895 60.4092 72.3006 60.4078 72.3111 60.4104C72.3216 60.4129 72.3308 60.4193 72.3369 60.4282C72.3419 60.4356 72.3446 60.4444 72.3446 60.4533C72.3446 60.4622 72.3419 60.4709 72.3369 60.4783C72.1489 60.6863 71.951 60.8842 71.76 61.0852C71.569 61.2862 71.3599 61.4782 71.1599 61.6692C70.9879 61.8372 70.8109 61.9952 70.6359 62.1562H71.445C71.72 61.9952 71.992 61.8342 72.26 61.6662C81.807 55.7372 85.569 50.6733 88.317 46.4783C91.065 42.2833 95.325 33.5293 91.713 28.9763H91.7119ZM20.0499 65.6242H9.24592C9.19131 65.6963 9.14089 65.7714 9.09492 65.8492C9.08007 65.8731 9.06674 65.8978 9.05494 65.9232C9.02526 65.9755 8.99823 66.0293 8.97395 66.0842C8.96108 66.1106 8.94973 66.1376 8.93995 66.1653C8.91595 66.2193 8.89898 66.2733 8.87898 66.3293L8.85896 66.4032C8.84322 66.4537 8.83087 66.5052 8.82197 66.5573C8.82197 66.5743 8.81197 66.5942 8.80897 66.6142C8.80597 66.6342 8.80897 66.6313 8.80897 66.6413C8.79231 66.722 8.78225 66.8039 8.77894 66.8862C8.77707 66.8995 8.77707 66.913 8.77894 66.9263C8.77894 66.9973 8.77296 67.0643 8.77296 67.1313C8.77296 67.1513 8.77296 67.1682 8.77296 67.1882C8.77274 67.2524 8.77609 67.3165 8.78297 67.3802C8.78297 67.3972 8.78297 67.4102 8.78297 67.4272C8.78297 67.4442 8.78295 67.4612 8.78895 67.4812C8.79595 67.5382 8.80594 67.5953 8.81294 67.6523L9.69196 67.9843L9.72596 68.6752H10.6899L11.3309 67.8533H12.4949L12.616 68.6752H13.757L14.2429 67.9473H15.354L15.505 68.6752H16.1859L16.6859 68.0213L18.286 68.0582L18.3969 68.6752H18.551C18.8207 67.9199 19.1438 67.1847 19.518 66.4753C19.6769 66.1799 19.8549 65.8953 20.051 65.6232L20.0499 65.6242ZM26.728 62.1542C25.7109 61.2035 24.4302 60.5824 23.054 60.3722C22.3979 60.2406 21.7343 60.1498 21.067 60.1002C20.534 60.0572 19.9669 60.0263 19.3859 60.0203C19.2489 60.0203 19.111 60.0203 18.973 60.0203C18.6136 60.0203 18.2513 60.0272 17.8859 60.0412C15.3149 60.1412 12.6549 60.6143 11.0859 61.6153C10.0919 62.2493 9.26297 62.8303 8.60597 63.3153C8.85775 63.4688 9.09243 63.6488 9.30598 63.8523H10.413C11.6319 62.7362 13.1054 61.9352 14.705 61.5193C17.4514 61.3018 20.2095 61.2717 22.96 61.4292C23.7408 61.5519 24.4441 61.9714 24.9229 62.6002L22.9229 64.6002L21.9299 65.6303L19.6989 68.6942C19.4894 68.9679 19.3129 69.2653 19.1729 69.5802C19.0465 69.865 18.9585 70.1653 18.911 70.4733C18.78 71.4233 19.1289 72.5533 21.0109 73.3253L21.028 73.3313C21.0397 73.3348 21.0511 73.3394 21.062 73.3452L23.129 74.1673C21.864 73.0673 22.6559 70.4922 22.6959 70.3672C22.8209 70.1122 22.9549 69.8502 23.1019 69.5822C23.2629 69.2902 23.437 68.9913 23.622 68.6933C24.4191 67.4797 25.2872 66.3143 26.2219 65.2033C26.4299 64.9413 26.6219 64.7032 26.7899 64.4882C26.9579 64.2732 27.0899 64.0952 27.1899 63.9412C27.2322 63.8793 27.2712 63.8152 27.307 63.7492C27.3468 63.6845 27.3729 63.6124 27.3839 63.5373C27.3877 63.3716 27.3603 63.2067 27.3029 63.0513C27.1733 62.7163 26.9766 62.4114 26.7249 62.1552L26.728 62.1542ZM58.1149 40.6402C58.8759 42.1593 59.155 43.8744 58.9149 45.5562C58.6344 47.1064 57.8069 48.5045 56.583 49.4963C56.3756 49.662 56.149 49.802 55.908 49.9132C55.982 49.7692 56.0519 49.6212 56.1259 49.4702C57.5999 46.3152 57.9649 41.5103 58.0259 40.6213C58.0259 40.5313 58.0319 40.4803 58.0319 40.4803C58.0319 40.4803 58.0619 40.5372 58.1129 40.6412" fill="white"/>
<path d="M51.467 71.1084L51.481 71.0344V71.0284L51.515 70.8444H48.887C48.8884 70.8587 48.8884 70.8731 48.887 70.8874L48.877 70.9874L48.864 71.0874C48.854 71.1574 48.847 71.2244 48.837 71.2874C48.801 71.5453 48.69 71.7869 48.5179 71.9824C49.1807 71.947 49.8343 71.8121 50.457 71.5824C50.8076 71.456 51.1457 71.2973 51.467 71.1084ZM47.356 70.8434H44.2859C44.2859 70.8604 44.313 70.9544 44.313 70.9544L44.347 71.1354C44.5597 71.2606 44.7805 71.3715 45.0079 71.4674C45.6167 71.7297 46.2617 71.8983 46.921 71.9674H46.944C47.1682 71.9903 47.3935 72.0016 47.619 72.0014H47.736C47.6779 71.9358 47.6264 71.8648 47.582 71.7894C47.4953 71.6344 47.4373 71.465 47.4109 71.2894C47.3939 71.1894 47.3769 71.0814 47.3669 70.9774V70.9544L47.361 70.9404V70.8994C47.36 70.8804 47.356 70.8604 47.356 70.8434ZM80.749 65.3764C80.688 65.3564 80.624 65.3394 80.549 65.3164L80.187 65.2164C80.093 65.1894 80.002 65.1654 79.908 65.1424C79.639 65.0724 79.3639 65.0054 79.0889 64.9424C78.9989 64.9224 78.911 64.9024 78.821 64.8854C78.643 64.8444 78.4679 64.8114 78.2969 64.7774C78.1259 64.7434 77.9509 64.7134 77.7839 64.6874C77.6169 64.6614 77.452 64.6304 77.291 64.6064C76.848 64.5394 76.391 64.4824 75.942 64.4384C75.805 64.4214 75.6739 64.4114 75.5419 64.3974C75.2359 64.3704 74.942 64.3504 74.636 64.3364L74.499 64.3304L74.2939 64.3204C74.0059 64.3104 73.794 64.3074 73.66 64.3074H73.5599H59.032H59.012H57.7919C57.7719 64.3444 57.752 64.3814 57.722 64.4284C57.712 64.441 57.703 64.4544 57.6949 64.4684H57.2319C57.2219 64.484 57.2105 64.4987 57.1979 64.5124C57.1779 64.5394 57.158 64.5694 57.134 64.5964C57.11 64.6234 57.097 64.6374 57.077 64.6574C57.0169 64.7237 56.9517 64.7852 56.882 64.8414C56.835 64.8784 56.7879 64.9154 56.7339 64.9524C56.6999 64.9724 56.67 64.9894 56.644 65.0024C56.61 65.0194 56.5769 65.0364 56.5439 65.0494C57.0309 65.2004 57.389 65.3384 57.397 65.3384C57.405 65.3384 56.96 65.4154 56.528 65.5064C56.491 65.5124 56.4509 65.5234 56.4109 65.5294C56.1788 65.5715 55.9509 65.6345 55.73 65.7174C55.706 65.7304 55.6929 65.7434 55.7029 65.7544C55.7179 65.7647 55.735 65.7716 55.7529 65.7744C55.8169 65.7844 55.953 65.8114 56.139 65.8514C56.659 65.9654 57.5649 66.1734 58.3669 66.3584L59.991 66.7344H60.035L59.991 67.1094H49.2759C49.1949 67.1194 49.1149 67.1264 49.0309 67.1334L48.981 67.1394L48.827 67.1534L48.5989 67.1734L48.33 67.1874L47.837 67.1574C47.786 67.1574 47.7369 67.1514 47.6929 67.1434L47.5549 67.1334L47.371 67.1134H47.3409H34.45L34.3959 66.7384H34.45L34.543 66.7114L34.6639 66.6744L35.7239 66.3624L38.489 65.5504L38.509 65.5434L39.209 65.3434L38.2629 65.1114L38.142 65.0844L38.709 64.8634L39.4509 64.5744L39.384 64.4934C39.132 64.4934 38.884 64.4934 38.639 64.4874L38.8569 64.4034C38.8369 64.3734 38.817 64.3404 38.796 64.3034H29.3959L29.369 64.3834C29.369 64.3904 29.363 64.3934 29.363 64.4004C29.219 64.4004 29.084 64.4004 28.957 64.3944C28.943 64.4244 28.9299 64.4514 28.9169 64.4814C28.8699 64.5754 28.8169 64.6694 28.7529 64.7704C28.6619 64.9184 28.553 65.0704 28.431 65.2434C28.354 65.3434 28.267 65.4584 28.176 65.5754C28.146 65.6154 28.112 65.6564 28.082 65.6964C28.012 65.7834 27.9409 65.8714 27.8669 65.9644L27.843 65.9984C27.773 66.0824 27.6989 66.1734 27.6249 66.2674C27.5989 66.3014 27.571 66.3344 27.541 66.3674C27.535 66.3774 27.524 66.3874 27.514 66.4014C27.427 66.5124 27.333 66.6254 27.239 66.7434H27.722L27.53 66.9784C27.235 67.3444 26.866 67.8104 26.494 68.3034H86.437C84.7601 66.9504 82.8246 65.9544 80.749 65.3764ZM53.649 70.8434H53.069V70.9104C53.0618 71.0388 53.0451 71.1665 53.019 71.2924C53.019 71.2994 53.019 71.3094 53.019 71.3194L53.149 71.4404L53.2029 71.3864C53.3607 71.2133 53.5092 71.0321 53.6479 70.8434H53.649ZM42.7859 71.2894C42.7859 71.2694 42.7659 71.1954 42.7659 71.1954C42.7489 71.1144 42.736 71.0314 42.722 70.9474C42.722 70.9304 42.716 70.8574 42.712 70.8474H42.121C42.228 70.9914 42.321 71.1154 42.421 71.2234C42.498 71.3134 42.565 71.3874 42.621 71.4444L42.7859 71.2894ZM6.92297 64.9104C6.74901 64.8644 6.56988 64.8409 6.38995 64.8404C5.96643 64.8408 5.55307 64.9701 5.20477 65.211C4.85647 65.452 4.58971 65.7932 4.43994 66.1894C4.47867 66.1488 4.52527 66.1166 4.57684 66.0946C4.62841 66.0726 4.68386 66.0613 4.73993 66.0614C4.8174 66.0602 4.89343 66.0825 4.95795 66.1254C5.03619 66.173 5.09622 66.2455 5.12848 66.3312C5.16074 66.4169 5.16342 66.511 5.13599 66.5984C5.04448 66.9089 4.99599 67.2306 4.99194 67.5544C4.98757 67.6899 4.99229 67.8255 5.00598 67.9604L5.01593 68.0304C5.03009 67.6377 5.12366 67.2519 5.29095 66.8964C5.32505 66.8255 5.37835 66.7656 5.44482 66.7235C5.5113 66.6814 5.58826 66.6588 5.66693 66.6584H5.76697L5.84393 66.6954C5.92583 66.7347 5.99276 66.7995 6.03461 66.8801C6.07645 66.9607 6.09094 67.0528 6.07593 67.1424C6.05528 67.2701 6.04294 67.399 6.03894 67.5284C6.11299 67.466 6.20716 67.4326 6.30396 67.4344H6.34094H6.36798C6.42409 67.4425 6.47784 67.4623 6.52588 67.4925C6.57392 67.5226 6.61518 67.5624 6.64697 67.6094C6.54489 66.7025 6.70671 65.7855 7.11298 64.9684C7.05098 64.9504 6.98697 64.9284 6.92297 64.9104ZM55.316 61.2554C55.266 61.2924 55.2159 61.3324 55.1719 61.3734C55.2267 61.3431 55.2755 61.3031 55.316 61.2554ZM49.796 37.9234C49.665 37.9474 49.5209 37.9644 49.3699 37.9804L49.1949 37.8494L48.92 37.6414C48.732 37.6554 48.544 37.6624 48.356 37.6624H47.389C47.114 37.6624 46.842 37.6484 46.567 37.6214C46.379 37.6044 46.192 37.5844 46.007 37.5544L45.632 37.4974L46.3069 37.9734C47.1529 38.5674 48.1689 39.2624 49.1329 39.8734C49.8556 40.3485 50.6074 40.7777 51.384 41.1584C51.391 41.1584 51.3939 41.1584 51.3979 41.1584C51.4279 41.1724 51.4549 41.1844 51.4819 41.1954L51.556 41.2294C51.5854 41.2422 51.6154 41.2536 51.6459 41.2634C51.6659 41.2734 51.683 41.2804 51.7 41.2874C51.717 41.2944 51.7469 41.3044 51.7709 41.3104L51.834 41.3334C51.855 41.3404 51.875 41.3434 51.895 41.3504C51.915 41.3574 51.939 41.3644 51.959 41.3674C51.9896 41.3771 52.0211 41.3841 52.053 41.3884C52.0552 41.3874 52.0575 41.387 52.0599 41.387C52.0623 41.387 52.0647 41.3874 52.067 41.3884C52.795 41.5024 53.959 40.6704 55.295 40.4794C55.8257 40.4115 56.3624 40.4035 56.895 40.4554C57.063 40.4694 57.2239 40.4894 57.3719 40.5054C57.3732 40.4887 57.3732 40.472 57.3719 40.4554V40.4454L57.3849 40.1634L57.4559 38.7634L57.493 38.0324L58.127 39.2274L58.627 40.1674C58.637 40.1844 58.6869 40.2814 58.7579 40.4354C58.7979 40.5224 58.845 40.6264 58.895 40.7444L59.3849 40.7904C59.8145 40.964 60.259 41.0979 60.713 41.1904C61.0926 41.2693 61.4791 41.3108 61.8669 41.3144C62.5704 41.2712 63.2677 41.1566 63.9479 40.9724C63.8769 40.8584 63.8 40.7514 63.723 40.6404C63.696 40.6064 63.669 40.5734 63.642 40.5404C63.565 40.4404 63.4879 40.3354 63.4039 40.2344C63.2793 40.2881 63.1514 40.3339 63.0209 40.3714C62.0309 39.2699 60.7594 38.4591 59.343 38.0264C59.143 37.9624 58.9299 37.9024 58.7059 37.8484L58.437 37.4024C58.28 37.3724 58.1149 37.3454 57.9479 37.3184C57.7999 37.2954 57.648 37.2744 57.498 37.2544C57.4725 37.2506 57.4467 37.2486 57.421 37.2484C57.33 37.2344 57.2399 37.2244 57.1459 37.2144C57.1119 37.2144 57.079 37.2044 57.046 37.2004L56.9349 37.5694C56.7569 37.5524 56.579 37.5394 56.402 37.5294C55.969 37.5024 55.5289 37.4894 55.0959 37.4894C54.6269 37.4894 54.1269 37.5024 53.5959 37.5294C52.6359 37.5794 51.6259 37.6774 50.5959 37.8174C50.2859 37.8494 50.014 37.8894 49.796 37.9234ZM40.1719 46.1144C40.3877 46.1144 40.5987 46.0504 40.7781 45.9305C40.9575 45.8106 41.0974 45.6402 41.1799 45.4409C41.2625 45.2415 41.2841 45.0222 41.242 44.8105C41.1999 44.5989 41.096 44.4045 40.9434 44.2519C40.7908 44.0993 40.5965 43.9954 40.3848 43.9533C40.1732 43.9112 39.9538 43.9328 39.7545 44.0154C39.5551 44.098 39.3847 44.2378 39.2648 44.4172C39.145 44.5967 39.0809 44.8076 39.0809 45.0234C39.0815 45.3126 39.1966 45.5898 39.4011 45.7942C39.6055 45.9987 39.8827 46.1138 40.1719 46.1144ZM37.5309 39.8354C36.9105 39.9063 36.3102 40.0994 35.7648 40.4036C35.2193 40.7077 34.7395 41.1168 34.353 41.6074L34.105 41.9224L34.434 42.1504C34.5472 42.2389 34.6505 42.3395 34.7419 42.4504C34.6919 42.0974 34.649 41.8504 34.649 41.8504C34.8183 41.9793 34.9704 42.1291 35.1019 42.2964C35.5187 42.8194 35.7281 43.4777 35.6899 44.1454C35.6497 44.4837 35.5109 44.8028 35.2908 45.0629C35.0707 45.3231 34.779 45.5127 34.452 45.6084C34.1127 45.744 33.7575 45.8354 33.395 45.8804C33.6962 45.7079 33.9813 45.5088 34.2469 45.2854C33.96 45.3928 33.6618 45.4673 33.358 45.5074L32.558 45.5844L33.129 46.1484C33.5081 46.5109 33.9056 46.8537 34.3199 47.1754C33.9258 46.8117 33.6116 46.3709 33.395 45.8804C33.7719 46.2429 34.1675 46.5844 34.582 46.9034C35.2279 47.4118 35.9223 47.8556 36.655 48.2284C37.281 48.5562 37.9626 48.7645 38.665 48.8424H38.679C40.2975 48.9078 41.9023 48.5207 43.313 47.7244L43.1249 48.2444C42.9322 48.3749 42.7319 48.4938 42.525 48.6004C42.0786 48.8367 41.6003 49.0072 41.105 49.1064C40.857 49.1634 40.605 49.1804 40.343 49.2234C40.0634 49.2659 39.7876 49.3301 39.5179 49.4154C39.7492 49.6118 40.0283 49.7436 40.327 49.7974C40.6177 49.8473 40.914 49.8554 41.207 49.8214C41.8029 49.7733 42.3821 49.6006 42.907 49.3144C43.0454 49.2425 43.179 49.1616 43.3069 49.0724C44.1247 48.6737 44.785 48.012 45.1819 47.1934C45.0798 47.4564 44.9623 47.7132 44.83 47.9624C44.5045 48.5856 44.0423 49.1271 43.478 49.5464C42.909 49.9719 42.2248 50.2159 41.515 50.2464C41.5049 50.2469 41.4954 50.2509 41.4879 50.2576C41.4805 50.2644 41.4755 50.2735 41.4739 50.2834C41.4737 50.289 41.4746 50.2946 41.4765 50.2998C41.4784 50.3051 41.4813 50.3099 41.4852 50.314C41.489 50.3181 41.4936 50.3214 41.4987 50.3237C41.5038 50.326 41.5094 50.3272 41.515 50.3274C42.2587 50.3603 42.9939 50.1569 43.6149 49.7464C44.2376 49.3301 44.7566 48.7766 45.132 48.1284C45.5011 47.4861 45.7778 46.7949 45.954 46.0754C45.984 45.9474 46.0149 45.8234 46.0419 45.6964C46.1007 45.6213 46.1513 45.5402 46.1929 45.4544C46.3896 45.0046 46.4917 44.5192 46.493 44.0284C46.5609 44.5253 46.588 45.027 46.574 45.5284C46.765 45.0545 46.8667 44.5493 46.874 44.0384C46.8858 43.7539 46.8788 43.4689 46.853 43.1854L46.8099 42.7394L46.377 42.8634C45.6009 43.0827 44.8024 43.2135 43.9969 43.2534C43.9399 43.2534 43.883 43.2534 43.829 43.2534C43.1759 43.0431 42.5721 42.703 42.054 42.2534C42.0583 42.2323 42.0606 42.2109 42.061 42.1894C42.0645 42.1346 42.0567 42.0798 42.0381 42.0281C42.0196 41.9765 41.9906 41.9293 41.9529 41.8894C41.6697 41.5775 41.3693 41.2817 41.053 41.0034C40.7178 40.7087 40.3484 40.4552 39.9529 40.2484C39.5388 40.0293 39.0892 39.8851 38.6249 39.8224C38.4771 39.8025 38.3281 39.7925 38.179 39.7924C38.085 39.7924 37.991 39.7984 37.894 39.8064C37.817 39.8124 37.7419 39.8264 37.6689 39.8404C37.6209 39.8394 37.574 39.8354 37.532 39.8354H37.5309ZM47.575 47.7054C47.511 47.7954 46.0919 49.9054 45.7289 50.5874L45.715 50.6114C46.3473 49.6427 47.0731 48.7384 47.882 47.9114C47.882 47.9114 46.4159 50.0894 46.0599 50.7574L46.04 50.7974C45.765 51.3414 45.2039 52.9454 44.8719 53.8714C44.7639 54.1714 44.6769 54.3984 44.6329 54.4954C44.6096 54.5997 44.6241 54.7088 44.674 54.8034C44.9799 55.355 45.3557 55.8648 45.7919 56.3204C45.7919 56.3204 47.0839 55.2064 47.1279 54.6734C47.1531 54.3182 47.1531 53.9616 47.1279 53.6064L47.8829 54.0964L48.6409 53.6064C48.6135 53.9615 48.6135 54.3182 48.6409 54.6734C48.6849 55.2064 49.973 56.3204 49.973 56.3204C50.4095 55.8643 50.7861 55.3546 51.0939 54.8034C51.1448 54.7091 51.1581 54.599 51.131 54.4954C51.088 54.3954 51.0039 54.1694 50.8959 53.8714C50.5609 52.9424 49.996 51.3284 49.725 50.7904C49.718 50.7797 49.7123 50.7683 49.7079 50.7564C49.3519 50.0894 47.882 47.9114 47.882 47.9114C48.6913 48.7382 49.4174 49.6416 50.05 50.6104L50.04 50.5864C49.678 49.9084 48.255 47.7944 48.194 47.7044L47.882 47.2414L47.575 47.7054ZM51.475 54.3494C51.432 54.2554 51.338 53.9934 51.257 53.7684C51.334 54.1784 51.4109 54.5264 51.4819 54.8254C51.5379 54.6717 51.5361 54.5029 51.4769 54.3504L51.475 54.3494ZM44.2839 54.8254C44.3539 54.5254 44.432 54.1784 44.509 53.7684C44.432 53.9804 44.334 54.2554 44.291 54.3494C44.2309 54.5031 44.2291 54.6734 44.2859 54.8284L44.2839 54.8254ZM38.355 49.1784L38.613 49.0874C37.8975 49.0034 37.1951 48.8311 36.522 48.5744C37.0987 48.8686 37.7163 49.0724 38.355 49.1784ZM30.455 48.8364C30.449 48.5214 30.4489 48.1894 30.4449 47.8434C30.4449 47.2434 30.451 46.6024 30.459 45.9104C30.4644 44.8948 30.6121 43.8849 30.8979 42.9104C31.272 41.6848 31.9429 40.5705 32.8511 39.6665C33.7593 38.7625 34.8766 38.0967 36.1039 37.7284C36.1509 37.7654 36.204 37.8024 36.252 37.8364C36.322 37.8934 36.3929 37.9474 36.4639 38.0004C36.6519 38.1444 36.8399 38.2854 37.0339 38.4194C37.1009 38.4664 37.1689 38.5134 37.2339 38.5574L37.308 38.6074C37.439 38.6974 37.5699 38.7884 37.7079 38.8754C37.5569 38.9194 37.4079 38.9694 37.2579 39.0234L37.637 39.2824C37.7914 39.3888 37.9539 39.4831 38.123 39.5644C38.3229 39.6542 38.5342 39.7161 38.751 39.7484L39.285 39.8324L39.1769 39.3024C39.1664 39.2422 39.152 39.1827 39.134 39.1244C39.1011 39.0171 39.0593 38.9127 39.009 38.8124C38.972 38.7424 38.936 38.6754 38.895 38.6124C38.8907 38.6064 38.886 38.6007 38.881 38.5954C38.75 38.6224 38.616 38.6454 38.481 38.6764C38.4751 38.6677 38.4684 38.6597 38.4609 38.6524C38.4069 38.5884 38.3529 38.5284 38.2969 38.4684C38.2913 38.4636 38.2866 38.4578 38.283 38.4514L38.2629 38.4314C38.2359 38.4074 38.2089 38.3814 38.1819 38.3574C37.9721 38.1466 37.749 37.9496 37.514 37.7674C37.508 37.7645 37.5023 37.7612 37.4969 37.7574C37.3546 37.6483 37.2056 37.5481 37.051 37.4574C37.222 37.4164 37.3999 37.3834 37.5779 37.3494L37.816 37.3094C37.87 37.2994 37.9159 37.2894 37.9739 37.2824C38.0409 37.3434 38.105 37.3994 38.174 37.4574C38.282 37.5474 38.389 37.6384 38.496 37.7254C38.66 37.8664 38.8309 38.0004 39.0049 38.1254C39.0289 38.1454 39.0519 38.1624 39.0729 38.1794C39.0939 38.1964 39.093 38.1964 39.103 38.2024C39.241 38.3024 39.3819 38.3974 39.5229 38.4914C39.3509 38.5144 39.17 38.5414 38.983 38.5754C39.097 38.6564 39.208 38.7324 39.322 38.8104C39.483 38.9184 39.647 39.0224 39.812 39.1224L39.903 39.1834C40.1941 39.3748 40.5132 39.5199 40.8489 39.6134C40.9694 39.6435 41.0917 39.6658 41.215 39.6804L41.749 39.7374L41.6149 39.1874C41.6149 39.1874 41.585 39.1104 41.571 39.0874C41.655 39.1414 41.739 39.1874 41.822 39.2444C42.1994 39.4913 42.619 39.6665 43.0599 39.7614L41.624 38.7104L41.3519 38.5104L41.171 38.3764C41.171 38.3764 40.949 38.3764 40.587 38.3934C40.56 38.3664 40.533 38.3434 40.506 38.3194C40.419 38.2394 40.328 38.1654 40.241 38.0874C40.221 38.0704 40.2009 38.0534 40.1799 38.0334C40.1719 38.026 40.1632 38.0193 40.1539 38.0134C39.9699 37.8554 39.784 37.7014 39.59 37.5534C39.585 37.5479 39.5793 37.5431 39.5729 37.5394C39.4989 37.4824 39.422 37.4284 39.345 37.3754C39.268 37.3224 39.177 37.2514 39.093 37.1944C39.076 37.1844 39.063 37.1714 39.046 37.1604C39.14 37.1544 39.2369 37.1504 39.3309 37.1434C39.4249 37.1364 39.495 37.1334 39.579 37.1264C39.643 37.1874 39.7099 37.2404 39.7789 37.2984C39.8152 37.3336 39.8533 37.367 39.8929 37.3984C40.0439 37.5264 40.193 37.6504 40.35 37.7714C40.376 37.7944 40.407 37.8184 40.434 37.8384C40.511 37.8994 40.5909 37.9554 40.6689 38.0134C40.7469 38.0714 40.84 38.1444 40.928 38.2074C41.069 38.3074 41.216 38.4074 41.364 38.5074C41.458 38.5684 41.5519 38.6314 41.6459 38.6884C41.7739 38.7694 41.897 38.8494 42.025 38.9274C42.3843 39.1696 42.7897 39.335 43.2159 39.4134L43.28 39.4234L43.2499 39.3624C43.0946 39.0703 42.8919 38.806 42.65 38.5804C42.633 38.5664 42.616 38.5504 42.6 38.5364C42.543 38.4824 42.4829 38.4294 42.4219 38.3794C42.2769 38.2554 42.134 38.1344 41.986 38.0134C41.794 37.8594 41.6 37.7054 41.402 37.5574C41.295 37.4764 41.187 37.3964 41.077 37.3224C40.967 37.2484 40.872 37.1814 40.765 37.1104C40.865 37.1104 40.973 37.1104 41.077 37.1104H41.114C44.134 39.0104 50.114 43.3924 51.158 44.1614C51.1564 44.178 51.1564 44.1947 51.158 44.2114L51.188 44.4494C51.211 44.6074 51.235 44.7614 51.269 44.9154C51.316 45.1344 51.3759 45.3444 51.4429 45.5564C51.4499 45.5834 51.46 45.6064 51.467 45.6334C51.49 45.6974 51.5069 45.7644 51.5309 45.8284C51.6433 46.1231 51.777 46.4092 51.931 46.6844C52.085 46.9568 52.2612 47.216 52.4579 47.4594C52.463 47.4665 52.4705 47.4714 52.479 47.4733C52.4875 47.4751 52.4964 47.4737 52.504 47.4694C52.509 47.4673 52.5135 47.4643 52.5173 47.4604C52.5211 47.4565 52.5241 47.4519 52.5261 47.4469C52.528 47.4418 52.5289 47.4364 52.5287 47.431C52.5286 47.4256 52.5273 47.4203 52.525 47.4154L52.504 47.3684C52.3734 47.1109 52.2569 46.8465 52.155 46.5764C52.0448 46.2953 51.9496 46.0086 51.8699 45.7174C51.8499 45.6364 51.829 45.5534 51.813 45.4694C52.0796 46.0718 52.3939 46.652 52.7529 47.2044C52.9009 47.4355 53.0611 47.6585 53.233 47.8724C53.7726 48.5427 54.4988 49.0379 55.3199 49.2954C55.3699 49.3124 55.4199 49.3224 55.4739 49.3354C55.4309 49.4264 55.384 49.5164 55.34 49.6044L54.7529 50.7114L54.478 51.2314L56.178 50.5314C56.7574 50.2573 57.2772 49.872 57.7079 49.3974C58.0365 49.3439 58.3615 49.2701 58.681 49.1764C58.881 49.1194 59.074 49.0554 59.265 48.9814C59.6698 48.8308 60.0603 48.6444 60.4319 48.4244C61.0739 48.0665 61.6251 47.5659 62.043 46.9614C62.1577 46.7845 62.2523 46.5953 62.325 46.3974C63.083 44.2774 63.525 42.7534 63.525 42.7534L64.0889 42.5534L64.666 42.3454C64.723 42.4934 64.774 42.6454 64.824 42.7984C65.0618 43.5581 65.2091 44.3432 65.2629 45.1374C65.2799 45.3894 65.297 45.6444 65.3 45.9094C65.346 49.8094 65.2999 52.3554 64.4639 53.1004C64.4087 53.1479 64.348 53.1885 64.283 53.2214C64.2559 53.2378 64.2266 53.2503 64.196 53.2584C64.1943 53.2605 64.1922 53.2623 64.1898 53.2635C64.1873 53.2647 64.1847 53.2653 64.1819 53.2654C64.052 53.3027 63.9171 53.3196 63.782 53.3154H63.725C63.719 53.3154 63.712 53.3154 63.705 53.3154H63.668L63.6819 53.2944L63.7319 53.2274L63.7659 53.1814C63.8229 53.1044 63.874 53.0204 63.924 52.9364C64.1238 52.6065 64.274 52.249 64.3699 51.8754C64.4885 51.4065 64.526 50.9209 64.481 50.4394C64.4572 49.9496 64.2552 49.4855 63.913 49.1344C63.8656 49.4411 63.8355 49.7503 63.8229 50.0604L63.803 50.4534C63.7914 50.6266 63.771 50.7992 63.7419 50.9704C63.7046 51.2066 63.6531 51.4403 63.588 51.6704C63.4792 52.0648 63.3328 52.4479 63.1509 52.8144L63.124 52.8614L62.9999 53.0854L62.9189 53.2264L62.819 53.2064C62.712 53.1864 62.6079 53.1654 62.4969 53.1394C62.5029 53.1294 62.51 53.1184 62.517 53.1054C62.5821 53.0066 62.6403 52.9033 62.691 52.7964L62.7009 52.7764C62.7453 52.6837 62.7834 52.5881 62.8149 52.4904C62.9198 52.1678 62.9675 51.8294 62.9559 51.4904C62.9606 51.3152 62.9273 51.1411 62.8583 50.98C62.7892 50.819 62.6861 50.6748 62.556 50.5574C62.4966 50.6803 62.4452 50.8069 62.402 50.9364C62.3605 51.0696 62.3271 51.2052 62.3019 51.3424C62.2949 51.3724 62.288 51.4034 62.282 51.4364C62.255 51.5704 62.2209 51.7014 62.1819 51.8364C62.1449 51.9674 62.1019 52.0914 62.0549 52.2184C61.9623 52.4711 61.8534 52.7177 61.7289 52.9564C61.6219 52.9294 61.508 52.9024 61.394 52.8754L60.921 52.7654C60.9418 52.7352 60.9609 52.7038 60.978 52.6714C61.002 52.6344 61.022 52.5974 61.046 52.5574L61.0859 52.4764C61.118 52.4043 61.1461 52.3306 61.17 52.2554C61.2255 52.0939 61.2591 51.9258 61.27 51.7554C61.2717 51.7221 61.2717 51.6887 61.27 51.6554C61.2728 51.5328 61.2425 51.4117 61.1823 51.3049C61.1221 51.1981 61.0343 51.1095 60.928 51.0484C60.881 51.1114 60.844 51.1724 60.811 51.2254C60.7424 51.3256 60.6841 51.4325 60.637 51.5444C60.6238 51.5706 60.6125 51.5977 60.603 51.6254C60.536 51.7894 60.448 51.9474 60.358 52.1184C60.321 52.1894 60.2839 52.2624 60.2469 52.3404C60.2409 52.3574 60.2329 52.3704 60.2269 52.3874C60.1929 52.4544 60.163 52.5244 60.127 52.5994C59.963 52.5654 59.801 52.5424 59.644 52.5184C59.3574 52.4735 59.068 52.4488 58.778 52.4444C58.6442 52.4445 58.5105 52.4536 58.3779 52.4714C58.1907 52.4927 58.0083 52.5447 57.838 52.6254C57.7962 52.6428 57.7558 52.6632 57.717 52.6864C57.582 52.7762 57.4542 52.8765 57.335 52.9864C56.4537 53.9764 55.767 55.1238 55.311 56.3684C56.3573 56.1373 57.4246 56.0147 58.496 56.0024C58.543 56.0024 58.59 56.0024 58.637 56.0024C58.704 56.0024 58.771 56.0024 58.837 56.0024C58.8568 56.024 58.8745 56.0474 58.89 56.0724C58.9179 56.1112 58.9437 56.1516 58.967 56.1934C59.0734 56.3631 59.1696 56.5391 59.2549 56.7204C59.2849 56.7774 59.3119 56.8344 59.3389 56.8924C59.3859 56.9924 59.43 57.1074 59.473 57.2144C59.534 57.3584 59.587 57.5064 59.645 57.6544C59.662 57.7084 59.6819 57.7544 59.6979 57.8084C59.8004 58.1611 59.9817 58.4859 60.228 58.7584C60.2697 58.6593 60.3031 58.557 60.3279 58.4524C60.3881 58.1899 60.3969 57.9182 60.3539 57.6524C60.3309 57.4944 60.301 57.3374 60.264 57.1754C60.2175 56.9706 60.1546 56.77 60.0759 56.5754C60.0419 56.4984 60.0059 56.4214 59.9689 56.3434C59.9419 56.2934 59.912 56.2434 59.881 56.1924C59.871 56.1754 59.858 56.1554 59.847 56.1384C59.8402 56.1217 59.8315 56.1059 59.821 56.0914H59.855C59.999 56.1154 60.137 56.1454 60.274 56.1754L60.311 56.1854C60.341 56.2464 60.3709 56.3064 60.4039 56.3634C60.4919 56.5314 60.599 56.6784 60.679 56.8434C60.8408 57.1744 60.9659 57.5221 61.0519 57.8804C61.1432 58.2564 61.2127 58.6373 61.2599 59.0214C61.2903 59.4438 61.402 59.8563 61.5889 60.2364C61.6776 60.0957 61.7485 59.9445 61.8 59.7864C61.8826 59.5302 61.9277 59.2635 61.934 58.9944C61.9455 58.7665 61.9435 58.5381 61.928 58.3104C61.9126 58.1034 61.8822 57.8979 61.837 57.6954C61.7537 57.318 61.6047 56.9582 61.397 56.6324C61.7105 56.8253 61.9702 57.0943 62.152 57.4144C62.2116 57.5205 62.2612 57.632 62.3 57.7474C62.6299 59.3358 62.6264 60.9754 62.29 62.5624C61.797 62.4744 61.2899 62.3944 60.7629 62.3234C60.6729 62.3134 60.5789 62.3034 60.4839 62.2894L60.004 62.2284C59.9278 62.1 59.861 61.9663 59.804 61.8284C59.609 61.8084 59.418 61.7884 59.233 61.7714L59.139 61.7614H58.871C58.958 61.4694 59.0319 61.1974 59.0989 60.9294C59.1659 60.6614 59.216 60.4164 59.256 60.1914L58.556 59.9394L58.5419 59.9694L58.556 59.9434L58.2269 60.5814C58.1929 60.6484 58.157 60.7114 58.127 60.7814C58.191 60.7274 58.251 60.6734 58.308 60.6234C58.643 60.3234 58.8849 60.1304 58.8849 60.1304L58.563 60.7544C58.429 61.0224 58.288 61.2914 58.15 61.5544C58.05 61.7484 57.942 61.9464 57.838 62.1384C57.818 62.1724 57.798 62.2054 57.778 62.2384C57.717 62.3494 57.654 62.4604 57.59 62.5704C57.553 62.6314 57.5199 62.6944 57.4899 62.7554L57.4999 62.6884L57.507 62.6314C57.5131 62.5314 57.5107 62.431 57.4999 62.3314C57.4999 62.3233 57.4979 62.3154 57.494 62.3084C57.4861 62.257 57.4747 62.2062 57.46 62.1564C57.4592 62.1548 57.4589 62.1531 57.4589 62.1514C57.4589 62.1496 57.4592 62.1479 57.46 62.1464C57.4584 62.1418 57.4584 62.1369 57.46 62.1324C57.4524 62.1085 57.4434 62.0851 57.433 62.0624C57.423 62.0354 57.409 62.0084 57.399 61.9814C57.3966 61.9752 57.3932 61.9695 57.389 61.9644C57.3678 61.916 57.342 61.8698 57.312 61.8264C57.291 61.8004 57.2679 61.7694 57.2449 61.7424C57.2239 61.7664 57.211 61.7864 57.194 61.8094C57.1446 61.8691 57.1011 61.9334 57.064 62.0014C57.064 62.0014 57.064 62.0074 57.064 62.0114C57.038 62.0544 57.0169 62.0914 56.9969 62.1324C56.9769 62.1734 56.971 62.1894 56.96 62.2194C56.9519 62.2344 56.9452 62.2502 56.9399 62.2664C56.905 62.3431 56.8778 62.4232 56.8589 62.5054C56.8582 62.5069 56.8578 62.5086 56.8578 62.5104C56.8578 62.5121 56.8582 62.5138 56.8589 62.5154L56.829 62.6154L56.7919 62.7294L56.782 62.7664C56.752 62.8534 56.7179 62.9414 56.6819 63.0284C56.6379 63.1424 56.592 63.2564 56.541 63.3704C56.541 63.3704 56.541 63.3704 56.541 63.3764C56.495 63.4874 56.441 63.5984 56.39 63.7054C56.373 63.7424 56.3529 63.7794 56.3329 63.8164C56.3129 63.8534 56.3029 63.8704 56.2889 63.8974L56.2789 63.9174C56.278 63.9226 56.2756 63.9275 56.272 63.9314C56.199 64.0724 56.118 64.2134 56.03 64.3504C56.03 64.3504 56.03 64.3574 56.03 64.3604C55.963 64.3774 55.896 64.3864 55.83 64.3974L55.722 64.4074C55.6717 64.4106 55.6213 64.4106 55.571 64.4074C55.383 64.4074 55.171 64.3774 54.936 64.3604C54.896 64.3604 54.852 64.3604 54.812 64.3534C54.792 64.3534 54.772 64.3534 54.751 64.3534C54.761 64.3034 54.765 64.2534 54.772 64.1964C54.778 64.1594 54.7849 64.1194 54.7889 64.0794C54.7906 64.0524 54.7906 64.0253 54.7889 63.9984C54.7906 63.9737 54.7906 63.949 54.7889 63.9244C54.7889 63.8574 54.7889 63.7904 54.7889 63.7244C54.7796 63.5048 54.7481 63.2867 54.6949 63.0734C54.6949 63.0594 54.6889 63.0474 54.6849 63.0364C54.6376 62.8492 54.5533 62.6734 54.437 62.5194C54.3494 62.4034 54.2383 62.3073 54.111 62.2374C54.0816 62.3474 54.0602 62.4593 54.0469 62.5724C54.027 62.7259 54.018 62.8806 54.02 63.0354C54.0182 63.0466 54.0182 63.0581 54.02 63.0694V63.1694C54.02 63.2574 54.02 63.3444 54.02 63.4314C54.014 63.5954 54.003 63.7604 53.986 63.9244C53.986 63.9384 53.986 63.9514 53.98 63.9684V64.0024C53.956 64.1734 53.933 64.3444 53.903 64.5154C53.8923 64.5184 53.8822 64.5232 53.873 64.5294C53.843 64.5464 53.8089 64.5634 53.7729 64.5794C53.7669 64.5524 53.7559 64.5224 53.7469 64.4884C53.7099 64.3604 53.656 64.2034 53.595 64.0254C53.588 64.1066 53.5767 64.1874 53.561 64.2674C53.511 64.2974 53.461 64.3244 53.41 64.3614L53.1949 64.5164C53.1223 64.5774 53.0447 64.6323 52.963 64.6804C52.9086 64.7156 52.8483 64.7407 52.785 64.7544H52.775C52.709 64.767 52.6421 64.7737 52.575 64.7744C52.575 64.7614 52.575 64.7244 52.575 64.7244V64.7014C52.5611 64.5117 52.5276 64.3241 52.475 64.1414L52.462 64.0974C52.439 64.0274 52.4149 63.9564 52.3879 63.8894C52.3879 63.8894 52.371 63.8454 52.368 63.8324L52.3439 63.7754C52.3161 63.7087 52.2847 63.6436 52.2499 63.5804C52.237 63.5562 52.2227 63.5328 52.207 63.5104C52.187 63.6314 52.166 63.7554 52.15 63.8764C52.144 63.9134 52.14 63.9464 52.137 63.9764C52.127 64.0534 52.116 64.1314 52.11 64.2084C52.1088 64.2116 52.1088 64.2152 52.11 64.2184C52.11 64.2184 52.11 64.2124 52.11 64.2084C52.089 64.1444 52.0689 64.0814 52.0419 64.0174C52.038 64.0011 52.0323 63.9854 52.025 63.9704C52.025 63.9604 52.015 63.9504 52.012 63.9364C52.009 63.9224 52.0119 63.9264 52.0049 63.9224C51.9819 63.8654 51.955 63.8084 51.928 63.7544C51.907 63.7204 51.8869 63.6904 51.8669 63.6604C51.8469 63.6304 51.843 63.6264 51.83 63.6134L51.816 63.5994C51.7761 63.5626 51.7333 63.5292 51.688 63.4994C51.674 63.4894 51.6579 63.4764 51.6409 63.4654C51.5695 63.424 51.4913 63.3955 51.41 63.3814C51.3639 63.4767 51.3302 63.5775 51.3099 63.6814C51.2958 63.7612 51.2911 63.8424 51.296 63.9234C51.2975 63.9333 51.2975 63.9434 51.296 63.9534C51.306 64.0234 51.317 64.0904 51.33 64.1614C51.356 64.3614 51.376 64.5614 51.397 64.7614C51.4006 64.7815 51.4026 64.8019 51.403 64.8224C51.403 64.8564 51.409 64.8864 51.413 64.9224C51.413 64.9224 51.413 64.9224 51.413 64.9284C51.423 65.0364 51.436 65.1474 51.447 65.2544C51.356 65.2744 51.2689 65.2884 51.1819 65.3084L51.1409 65.3184C51.1149 65.2374 51.084 65.1304 51.041 65.0094C51.0342 64.9931 51.0285 64.9764 51.024 64.9594L50.6849 65.0404C50.5039 65.0844 50.3119 65.1174 50.1479 65.1484L49.91 65.1884C49.685 65.2254 49.4299 65.2584 49.1379 65.2884H49.121V65.2714C49.1204 65.2503 49.1184 65.2292 49.1149 65.2084V65.1314C49.1089 65.0314 49.098 64.9314 49.085 64.8314C49.072 64.7314 49.064 64.6674 49.051 64.5924C49.0351 64.4734 49.0035 64.357 48.957 64.2464C48.9262 64.1733 48.888 64.1036 48.843 64.0384C48.833 64.1254 48.823 64.2154 48.816 64.3034C48.799 64.4944 48.79 64.6854 48.782 64.8674C48.782 64.9844 48.782 65.0994 48.782 65.2064C48.782 65.3914 48.782 65.5594 48.788 65.6964H48.7579H48.741H48.731C48.731 65.6564 48.737 65.6124 48.741 65.5724C48.747 65.4984 48.7469 65.4244 48.7469 65.3504C48.7469 65.3274 48.7469 65.3034 48.7469 65.2834C48.7435 65.2578 48.7415 65.2321 48.741 65.2064C48.7377 65.0962 48.7277 64.9863 48.7109 64.8774L48.681 64.6564C48.6675 64.5657 48.644 64.4769 48.611 64.3914C48.5732 64.298 48.5198 64.2117 48.4529 64.1364C48.4313 64.1101 48.4079 64.0854 48.3829 64.0624C48.3723 64.0485 48.3598 64.036 48.3459 64.0254C48.2651 64.0957 48.1959 64.1784 48.1409 64.2704C48.1311 64.285 48.1224 64.3004 48.1149 64.3164C48.0828 64.3801 48.058 64.4471 48.041 64.5164C48.0343 64.5303 48.0296 64.5451 48.027 64.5604C48.021 64.5904 48.013 64.6244 48.007 64.6604C47.993 64.7544 47.98 64.8524 47.967 64.9484C47.954 65.0444 47.9459 65.1534 47.9429 65.2544V65.2914C47.9402 65.4226 47.9459 65.5539 47.96 65.6844V65.6984L47.876 65.6914C47.856 65.5644 47.8319 65.4134 47.8019 65.2494C47.7609 65.0274 47.7109 64.7764 47.6509 64.5244C47.645 64.5511 47.6406 64.5781 47.6379 64.6054C47.6209 64.7054 47.6079 64.8054 47.5939 64.9054C47.5799 65.0264 47.571 65.1374 47.567 65.2474V65.2844L47.235 65.2434C47.098 65.2234 46.967 65.2064 46.835 65.1834C46.55 65.1364 46.295 65.0834 46.063 65.0314L45.663 64.9314L45.697 64.8374H45.67C45.677 64.8074 45.68 64.7764 45.687 64.7494C45.694 64.7034 45.7039 64.6494 45.7109 64.6054C45.7579 64.4054 45.801 64.1994 45.845 63.9944L45.8649 63.9134C45.8849 63.8134 45.9089 63.7184 45.9349 63.6244V63.6044C45.9719 63.4564 46.0119 63.3044 46.0519 63.1584C45.97 63.2986 45.9029 63.4471 45.8519 63.6014C45.6852 64.1214 45.5749 64.6578 45.5229 65.2014L45.5129 65.2824C45.4955 65.2759 45.4774 65.2712 45.459 65.2684C45.365 65.2484 45.267 65.2284 45.173 65.2114C45.19 65.1704 45.203 65.1344 45.217 65.0974C45.2241 65.0823 45.2298 65.0665 45.2339 65.0504C45.2842 64.8799 45.3223 64.7062 45.348 64.5304C45.391 64.3224 45.4349 64.1174 45.4819 63.9164C45.5079 63.7854 45.539 63.6544 45.572 63.5264C45.572 63.5264 45.572 63.5264 45.572 63.5204C45.613 63.3564 45.6569 63.1914 45.7029 63.0304C45.7499 62.8664 45.803 62.7044 45.864 62.5474C45.905 62.4564 45.938 62.3664 45.972 62.2724C45.998 62.2524 46.026 62.2284 46.053 62.2084C46.08 62.1884 46.1069 62.1644 46.1329 62.1414C46.2039 62.0804 46.2709 62.0204 46.3409 61.9604C46.4774 61.8221 46.6577 61.7354 46.851 61.7154C47.1208 61.7597 47.3743 61.8742 47.5859 62.0474C47.6289 62.0814 47.676 62.1114 47.72 62.1414L47.861 62.2524C47.888 62.2754 47.915 62.2954 47.942 62.3194C47.9935 62.357 48.0429 62.3974 48.09 62.4404C48.1754 62.5118 48.2795 62.5573 48.39 62.5714C48.4566 62.5809 48.5246 62.5775 48.59 62.5614C48.679 62.5405 48.7618 62.499 48.832 62.4404C48.942 62.3464 49.0729 62.2404 49.2079 62.1404C49.2539 62.1064 49.308 62.0704 49.355 62.0404C49.5617 61.8716 49.8094 61.7605 50.0729 61.7184C50.2828 61.7428 50.477 61.8418 50.6199 61.9974C50.6769 62.0444 50.7339 62.0974 50.7919 62.1454C50.8773 62.2226 50.9694 62.2922 51.067 62.3534C51.141 62.403 51.225 62.4359 51.3131 62.4497C51.4012 62.4635 51.4913 62.4579 51.577 62.4334C51.6211 62.4207 51.6639 62.4039 51.705 62.3834C51.822 62.3242 51.9269 62.2435 52.014 62.1454C52.051 62.1044 52.084 62.0644 52.114 62.0214C52.314 61.7564 52.453 61.4514 52.694 61.3404C52.7286 61.3237 52.7673 61.3174 52.8054 61.3222C52.8435 61.327 52.8795 61.3427 52.9089 61.3674C53.1209 61.5244 53.295 62.0254 53.709 62.1454C53.732 62.1514 53.7629 62.1554 53.7859 62.1624C53.7972 62.1607 53.8087 62.1607 53.8199 62.1624C53.8814 62.1695 53.9435 62.1695 54.0049 62.1624C54.0249 62.1624 54.0449 62.1524 54.0649 62.1494H54.072C54.0845 62.1486 54.0969 62.1466 54.1089 62.1434C54.2683 62.1064 54.4188 62.0384 54.5519 61.9434C54.6388 61.882 54.7216 61.8152 54.8 61.7434L54.9709 61.5824C54.9909 61.5624 55.012 61.5454 55.032 61.5254C55.086 61.4714 55.143 61.4184 55.2 61.3684C55.2581 61.3388 55.3095 61.2976 55.351 61.2474L55.442 61.6604C55.5022 61.623 55.5573 61.578 55.606 61.5264C55.626 61.5124 55.653 61.4964 55.676 61.4794C55.7154 61.454 55.7573 61.4326 55.801 61.4154C55.8328 61.3993 55.8663 61.3869 55.9009 61.3784L55.931 61.3684C55.9782 61.3575 56.0265 61.3518 56.075 61.3514C56.226 61.3598 56.3741 61.3961 56.512 61.4584C56.62 61.5065 56.7358 61.535 56.8539 61.5424C56.8875 61.5425 56.9211 61.5392 56.954 61.5324L56.907 61.5934C56.846 61.669 56.7921 61.75 56.746 61.8354L56.739 61.8454C56.7108 61.891 56.6852 61.9381 56.662 61.9864C56.648 62.0164 56.6349 62.0474 56.6249 62.0764L56.595 62.1404C56.5575 62.2298 56.5261 62.3217 56.501 62.4154L56.4869 62.4554C56.4969 62.4454 56.501 62.4384 56.511 62.4294C56.578 62.3424 56.6549 62.2484 56.7419 62.1544C56.8519 62.0264 56.98 61.8924 57.114 61.7614C57.225 61.6474 57.3389 61.5374 57.4559 61.4264L57.2809 61.2314C57.3048 61.1555 57.3129 61.0755 57.3049 60.9964C57.2946 60.8929 57.2756 60.7906 57.248 60.6904C57.1836 60.4259 57.0321 60.1908 56.8179 60.0228C56.6037 59.8548 56.3392 59.7638 56.067 59.7644C55.9024 59.7549 55.7384 59.7921 55.5941 59.8717C55.4497 59.9513 55.3308 60.0701 55.251 60.2144C55.1723 60.1816 55.0881 60.1643 55.0029 60.1634C54.9694 60.1636 54.9359 60.1669 54.903 60.1734C54.779 60.1964 54.6663 60.26 54.5825 60.3541C54.4986 60.4483 54.4485 60.5676 54.4399 60.6934C54.4342 60.7238 54.4265 60.7539 54.4169 60.7834C54.3255 60.8247 54.2249 60.8419 54.1249 60.8334H54.084C53.9303 60.8338 53.7783 60.8017 53.6378 60.7394C53.4974 60.677 53.3717 60.5857 53.269 60.4714C53.116 60.2959 52.9009 60.1866 52.6689 60.1664C52.3499 60.1664 52.075 60.4484 51.655 60.9144C51.565 61.0144 51.444 61.1464 51.355 61.2364C51.271 61.1524 51.1739 61.0364 51.0959 60.9444C50.7369 60.5254 50.4249 60.1664 50.0729 60.1664C49.8729 60.1664 49.63 60.2664 49.046 60.7904C49.002 60.8274 48.958 60.8644 48.918 60.9044C48.804 61.0044 48.6929 61.1124 48.5959 61.2044C48.5593 61.2402 48.5103 61.2606 48.459 61.2614C48.4205 61.2627 48.3826 61.2507 48.3519 61.2274C48.3409 61.2211 48.3309 61.2134 48.322 61.2044C48.164 61.0534 47.9319 60.8354 47.7079 60.6474C47.2309 60.2474 47.017 60.1644 46.842 60.1644C46.49 60.1644 46.178 60.5234 45.819 60.9424C45.745 61.0334 45.644 61.1504 45.564 61.2344C45.47 61.1434 45.349 61.0094 45.264 60.9124C44.842 60.4464 44.564 60.1644 44.251 60.1644C44.0194 60.1857 43.8047 60.2948 43.6509 60.4694C43.5485 60.584 43.4228 60.6755 43.2823 60.7379C43.1419 60.8003 42.9897 60.8322 42.8359 60.8314H42.795C42.695 60.8398 42.5944 60.8226 42.5029 60.7814C42.4934 60.7521 42.4867 60.7219 42.483 60.6914C42.4671 60.5768 42.4246 60.4676 42.3589 60.3724L42.3489 60.3554L42.312 60.3184C42.2327 60.2394 42.1305 60.1876 42.02 60.1704C41.987 60.1641 41.9535 60.1607 41.92 60.1604C41.8348 60.161 41.7505 60.1783 41.6719 60.2114C41.6481 60.1605 41.6175 60.1131 41.5809 60.0704L41.5469 60.0034L41.48 59.9694C41.3039 59.8298 41.0846 59.7563 40.86 59.7614C40.5871 59.7601 40.3218 59.8508 40.1068 60.0188C39.8918 60.1868 39.7397 60.4223 39.675 60.6874C39.6302 60.794 39.6096 60.9092 39.6147 61.0248C39.6199 61.1403 39.6507 61.2532 39.705 61.3554L39.7449 61.4124L39.775 61.4334C39.8583 61.5048 39.9652 61.5429 40.075 61.5404C40.1932 61.5337 40.3091 61.5052 40.4169 61.4564C40.5549 61.3945 40.703 61.3583 40.8539 61.3494C40.9073 61.349 40.9604 61.3557 41.012 61.3694L41.0419 61.3794C41.2903 61.4843 41.5118 61.644 41.6899 61.8464C41.9331 62.1173 42.2347 62.3293 42.572 62.4664L42.4949 62.4964C42.3367 62.5594 42.1939 62.6556 42.0759 62.7784C42.0312 62.8275 41.9895 62.8793 41.9509 62.9334L41.934 62.9594C41.8825 63.0433 41.8419 63.1333 41.813 63.2274L41.8069 63.2514C41.7899 63.3124 41.7729 63.3654 41.7599 63.4224L41.743 63.4894C41.73 63.5664 41.7159 63.6404 41.7059 63.7174L41.6849 63.8984C41.6846 63.9255 41.6826 63.9525 41.679 63.9794L41.562 63.9894C41.451 63.9994 41.354 64.0094 41.262 64.0124C41.238 63.9424 41.171 63.7574 41.171 63.7574L41.0939 63.5294L40.8489 62.8414L40.832 62.7804C40.7454 62.4407 40.5449 62.141 40.264 61.9314L40.009 61.7364L39.774 61.9584C39.76 61.9754 39.747 61.9844 39.733 62.0014C39.6541 62.0809 39.5868 62.1711 39.533 62.2694C39.517 62.2979 39.5027 62.3273 39.4899 62.3574C39.4159 62.2264 39.342 62.0954 39.265 61.9574L39.231 61.8964C39.076 61.6174 38.9219 61.3364 38.7679 61.0544L38.704 60.9334C38.66 60.8524 38.489 60.5434 38.489 60.5434L38.415 60.4094C38.355 60.2984 38.294 60.1874 38.231 60.0774L38.1609 59.9464L37.4609 60.1704V60.1944C37.4869 60.3944 37.524 60.6004 37.571 60.8454C37.635 61.1544 37.709 61.4634 37.796 61.7654H36.4869C36.5129 61.8224 36.5369 61.8764 36.5599 61.9294C36.59 61.9969 36.6105 62.0682 36.621 62.1414H35.926C35.926 62.1244 35.916 62.1114 35.912 62.0944C35.868 61.8694 35.821 61.6484 35.757 61.4304C35.7586 61.4258 35.7586 61.4209 35.757 61.4164C35.7564 61.4084 35.7544 61.4006 35.751 61.3934C35.69 61.1784 35.617 60.9674 35.551 60.7524C35.5297 60.6861 35.5049 60.6211 35.4769 60.5574C35.4486 60.4954 35.4152 60.4358 35.377 60.3794C35.3176 60.2865 35.2464 60.2017 35.165 60.1274C35.1524 60.1132 35.1379 60.1007 35.1219 60.0904C34.9448 60.308 34.8591 60.5858 34.8829 60.8654C34.8888 61.0715 34.9112 61.2768 34.95 61.4794C34.957 61.5264 34.9669 61.5734 34.9769 61.6164C34.9829 61.6434 34.9939 61.6704 34.9999 61.6974C35.0406 61.8482 35.091 61.9961 35.1509 62.1404H34.618C34.612 61.9524 34.5949 61.7674 34.5809 61.5764C34.5809 61.5664 34.5809 61.5564 34.5809 61.5424C34.5639 61.2904 34.5539 61.0424 34.5469 60.7904C34.5399 60.5904 34.533 60.3974 34.53 60.1994C34.523 59.7394 34.509 59.2804 34.53 58.8164C34.5657 58.3739 34.5451 57.9287 34.4689 57.4914C34.4629 57.4544 34.455 57.4174 34.446 57.3774C34.3156 57.5356 34.2051 57.7093 34.1169 57.8944C33.9947 58.1627 33.9076 58.4457 33.858 58.7364C33.7866 59.1376 33.7418 59.5432 33.7239 59.9504C33.7239 60.0344 33.714 60.1184 33.717 60.2024C33.717 60.3094 33.7169 60.4174 33.7239 60.5244C33.7239 60.5484 33.7239 60.5714 33.7239 60.5954C33.7309 60.7464 33.748 60.8954 33.765 61.0454C33.788 61.2574 33.8219 61.4644 33.8649 61.6694C33.8779 61.7434 33.892 61.8174 33.912 61.8934C33.912 61.9004 33.912 61.9104 33.912 61.9204C33.912 61.9304 33.926 61.9674 33.933 61.9944C33.947 62.0414 33.956 62.0884 33.97 62.1354H33.564C33.564 62.1354 33.558 62.1254 33.554 62.1214C33.5391 62.1019 33.5253 62.0815 33.5129 62.0604L33.507 62.0544C33.4668 61.9942 33.4333 61.9298 33.407 61.8624C33.407 61.8424 33.407 61.8254 33.4 61.8084V61.7984C33.386 61.6844 33.374 61.5734 33.36 61.4624C33.36 61.4194 33.3499 61.3754 33.3459 61.3314C33.3359 61.2214 33.326 61.1104 33.316 61.0024L33.306 60.8714C33.296 60.7714 33.289 60.6604 33.283 60.5564C33.283 60.5134 33.283 60.4694 33.277 60.4254C33.27 60.3254 33.2669 60.2254 33.2629 60.1254C33.2629 60.0784 33.2629 60.0314 33.2629 59.9884C33.2629 59.8944 33.2629 59.8044 33.2629 59.7134V59.5624C33.2629 59.4814 33.2629 59.3984 33.2629 59.3204C33.2629 59.2604 33.2689 59.1994 33.2729 59.1434C33.2769 59.0874 33.28 59.0084 33.283 58.9434C33.293 58.8224 33.303 58.7044 33.317 58.5934C33.3491 58.3031 33.4097 58.0167 33.498 57.7384C33.661 57.3362 33.9246 56.9826 34.2637 56.7117C34.6027 56.4408 35.0057 56.2616 35.434 56.1914C35.578 56.1544 35.7339 56.1204 35.8799 56.0914C35.8159 56.2284 35.763 56.3704 35.712 56.5074C35.762 56.4974 35.812 56.4844 35.856 56.4734L35.9429 56.4594C36.3944 56.3854 36.8514 56.3496 37.309 56.3524C38.3497 56.365 39.3864 56.4839 40.403 56.7074L41.084 56.8714L40.8459 56.2144C40.3727 54.9119 39.6525 53.713 38.725 52.6834C38.5916 52.5587 38.4481 52.4453 38.296 52.3444C38.2527 52.3155 38.2068 52.2907 38.1589 52.2704L38.129 52.2574C37.9287 52.1618 37.7142 52.0994 37.494 52.0724C37.3396 52.05 37.1839 52.0386 37.028 52.0384C36.0891 52.0899 35.1587 52.2431 34.2529 52.4954L34.061 52.3114C33.95 52.2034 33.833 52.0934 33.702 51.9794C33.6253 51.914 33.5277 51.8785 33.4269 51.8794H33.4H33.366C33.2818 51.8912 33.2032 51.9285 33.1409 51.9864C33.1069 51.9294 33.071 51.8694 33.041 51.8054C33.0062 51.7396 32.9546 51.6844 32.8913 51.6454C32.828 51.6064 32.7554 51.5851 32.6811 51.5837C32.6068 51.5823 32.5334 51.6008 32.4687 51.6373C32.4039 51.6738 32.3502 51.727 32.313 51.7914C32.2277 51.6219 32.1568 51.4456 32.101 51.2644C32.074 51.1809 32.0217 51.108 31.9512 51.0558C31.8807 51.0036 31.7956 50.9748 31.7079 50.9734H31.632C31.6306 50.6952 31.6564 50.4175 31.709 50.1444C31.7251 50.0503 31.7087 49.9534 31.6623 49.87C31.6159 49.7865 31.5424 49.7214 31.454 49.6854L31.387 49.6584H31.296C31.2126 49.6576 31.131 49.6823 31.0621 49.7291C30.9931 49.7759 30.9401 49.8426 30.91 49.9204C30.8951 49.9527 30.8828 49.9861 30.873 50.0204C30.849 49.6144 30.836 49.1984 30.829 48.8024C30.823 48.5134 30.8229 48.2084 30.8229 47.8964C30.5909 48.4494 30.4569 48.8024 30.4529 48.8094L30.455 48.8364ZM32.579 57.2794C33.2133 56.2704 33.5335 55.0957 33.499 53.9044C33.099 54.0344 32.6659 54.1694 32.2469 54.2634C32.1871 54.7849 32.013 55.2868 31.7369 55.7334C30.9309 57.0564 29.5019 57.6564 28.5419 57.0724C27.5819 56.4884 27.4549 54.9444 28.2599 53.6194C28.6012 53.0362 29.1085 52.568 29.717 52.2744C29.71 52.2304 29.707 52.1864 29.7 52.1464L29.616 52.1694L29.416 52.2434C29.1528 52.3495 28.9028 52.4857 28.671 52.6494C28.4378 52.8178 28.2251 53.0128 28.037 53.2304C27.8427 53.4525 27.6771 53.698 27.5439 53.9614C27.539 53.9705 27.5308 53.9774 27.5209 53.9806C27.511 53.9838 27.5003 53.983 27.491 53.9784C27.4823 53.9743 27.4752 53.9675 27.4709 53.959C27.4665 53.9505 27.4652 53.9408 27.467 53.9314C27.5471 53.631 27.6729 53.3446 27.84 53.0824C28.0101 52.8185 28.2169 52.5802 28.454 52.3744C28.6951 52.1654 28.9644 51.9913 29.254 51.8574L29.476 51.7674L29.647 51.7104C29.641 51.6644 29.6369 51.6204 29.6299 51.5734C29.5429 51.6034 29.456 51.6304 29.368 51.6644C29.103 51.7644 28.848 51.8854 28.58 52.0164C28.5754 52.0193 28.5703 52.0211 28.5649 52.0218C28.5596 52.0225 28.5542 52.0221 28.549 52.0204C28.5439 52.0188 28.5391 52.0161 28.5352 52.0125C28.5312 52.0088 28.528 52.0044 28.5259 51.9994C28.5211 51.9931 28.5184 51.9853 28.5184 51.9774C28.5184 51.9694 28.5211 51.9617 28.5259 51.9554C28.712 51.7114 28.9433 51.5053 29.207 51.3484C29.3308 51.2727 29.4597 51.2058 29.593 51.1484L29.5829 51.0174C28.2791 51.475 27.1831 52.3861 26.4949 53.5844C25.0859 55.9034 25.304 58.6084 26.985 59.6274C28.666 60.6464 31.1719 59.5944 32.5779 57.2794H32.579ZM44.579 64.4794C44.579 64.4384 44.5859 64.3954 44.5859 64.3554C44.5959 64.2214 44.606 64.0834 44.623 63.9454C44.64 63.8074 44.6629 63.6834 44.6899 63.5554C44.7069 63.4814 44.724 63.4074 44.743 63.3374C44.757 63.2904 44.773 63.2434 44.787 63.1964C44.801 63.1504 44.8139 63.1024 44.8309 63.0594C44.915 62.8257 45.0194 62.5998 45.1429 62.3844C45.0767 62.3508 45.0157 62.3076 44.962 62.2564C44.9261 62.2293 44.8926 62.1992 44.8619 62.1664C44.763 62.0531 44.6734 61.9321 44.5939 61.8044C44.5669 61.7644 44.544 61.7274 44.517 61.6934C44.4352 61.5548 44.3182 61.4403 44.178 61.3614C44.06 61.3962 43.9472 61.447 43.843 61.5124C43.829 61.5324 43.813 61.5534 43.799 61.5764C43.785 61.5994 43.766 61.6174 43.752 61.6374L43.671 61.7474C43.6644 61.7533 43.6587 61.76 43.6539 61.7674C43.6239 61.8074 43.59 61.8484 43.554 61.8884C43.554 61.8884 43.554 61.8954 43.548 61.8954C43.4786 61.978 43.3958 62.0483 43.303 62.1034C43.303 62.1034 43.3029 62.1034 43.2969 62.1034C43.4748 62.095 43.653 62.1097 43.827 62.1474C43.7313 62.2558 43.6193 62.3486 43.4949 62.4224L43.4739 62.4324C43.4207 62.4637 43.3644 62.4895 43.306 62.5094L43.2889 62.5164H43.269C43.2328 62.5284 43.1957 62.5371 43.158 62.5424L43.0679 62.5524C43.0309 62.5524 42.994 62.5524 42.957 62.5524C42.9132 62.5535 42.8694 62.5515 42.8259 62.5464L42.8959 62.6464L42.933 62.7034C42.957 62.7444 42.9769 62.7844 42.9999 62.8314C43.0117 62.8529 43.0217 62.8753 43.03 62.8984L43.0469 62.9284L43.054 62.9454C43.067 62.9824 43.0799 63.0154 43.0909 63.0564L43.097 63.0764C43.1101 63.1203 43.1201 63.1651 43.127 63.2104C43.1398 63.2679 43.1475 63.3265 43.15 63.3854V63.3984C43.15 63.4424 43.15 63.4824 43.15 63.5264V63.6404C43.15 63.7314 43.156 63.8184 43.163 63.9154L43.173 64.0864L43.187 64.2814C43.2271 64.3026 43.2653 64.3273 43.301 64.3554L43.522 64.5164L43.5889 64.5664C43.6416 64.6063 43.6963 64.6434 43.7529 64.6774C43.8083 64.7107 43.8699 64.7325 43.934 64.7414C44.0132 64.7523 44.093 64.759 44.173 64.7614H44.2029C44.2011 64.7548 44.2011 64.7479 44.2029 64.7414V64.4534C44.2029 64.4264 44.21 64.3224 44.21 64.3224C44.22 64.1504 44.2329 64.0134 44.2499 63.8854C44.2669 63.7574 44.291 63.6134 44.324 63.4634V63.4394C44.341 63.3654 44.357 63.2914 44.377 63.2244C44.387 63.1944 44.397 63.1634 44.407 63.1374C44.407 63.2374 44.417 63.3554 44.42 63.4724C44.426 63.7514 44.426 64.0464 44.42 64.3344C44.42 64.4224 44.42 64.5064 44.413 64.5894C44.413 64.6504 44.413 64.7104 44.407 64.7674C44.4 64.9014 44.393 65.0294 44.39 65.1424C44.471 65.1494 44.5579 65.1524 44.6409 65.1634C44.6269 65.1224 44.6149 65.0824 44.6039 65.0424C44.5929 65.0024 44.5979 64.9854 44.5939 64.9614C44.5848 64.9015 44.5804 64.841 44.5809 64.7804C44.579 64.7638 44.579 64.747 44.5809 64.7304C44.5809 64.6844 44.5809 64.6364 44.5809 64.5894L44.579 64.4794ZM40.321 73.1574L40.301 73.0734C40.2574 73.0866 40.2154 73.1047 40.176 73.1274L40.321 73.1574ZM55.858 70.4724H59.6669C59.5174 70.6903 59.3403 70.888 59.14 71.0604C58.127 71.8894 57.04 72.7684 56.15 73.5974C55.3996 74.2184 54.7663 74.9685 54.28 75.8124C54.2091 75.9677 54.109 76.1079 53.985 76.2254C53.2519 76.8738 52.3026 77.2245 51.324 77.2084C51.21 77.2084 51.092 77.2024 50.975 77.1914C50.965 77.1914 50.958 77.1914 50.952 77.1914C50.946 77.1914 50.9109 77.1854 50.8909 77.1854C50.8269 77.1784 50.7629 77.1684 50.7029 77.1584C50.6748 77.1568 50.6467 77.1535 50.619 77.1484L50.519 77.1244C50.432 77.109 50.3459 77.0889 50.261 77.0644C50.237 77.0644 50.211 77.0474 50.184 77.0404C50.096 77.0164 50.009 76.9864 49.925 76.9564C49.925 76.9564 49.9249 76.9564 49.9189 76.9564C49.9129 76.9564 49.9119 76.9564 49.9089 76.9564C49.8189 76.9194 49.7249 76.8864 49.6299 76.8564C49.4333 76.792 49.2329 76.7396 49.03 76.6994L48.9899 76.6894L48.946 76.6794C48.885 76.6324 48.8289 76.5794 48.7679 76.5314C48.6599 76.4374 48.56 76.3374 48.462 76.2314C48.2627 76.21 48.0624 76.1986 47.8619 76.1974C47.2422 76.1984 46.6263 76.2949 46.0359 76.4834C46.0359 76.4834 45.9929 76.4974 45.9789 76.5034C45.8879 76.5334 45.791 76.5674 45.697 76.6034L45.6669 76.6134H45.6609H45.6509L45.634 76.6194C45.4899 76.6704 45.343 76.7131 45.194 76.7474C44.9374 76.8062 44.6752 76.8367 44.412 76.8384C43.5193 76.8573 42.6528 76.5355 41.989 75.9384C41.9113 75.8617 41.8476 75.772 41.801 75.6734C41.3864 74.9033 40.8347 74.2153 40.173 73.6434L39.9949 73.4754L39.968 73.4214L39.9039 73.3874C39.9039 73.3874 39.9039 73.3874 39.8979 73.3874C39.8368 73.4675 39.7852 73.5544 39.744 73.6464C39.7316 73.6735 39.7215 73.7016 39.7139 73.7304L39.6899 73.7064C39.6029 73.6224 39.5119 73.5384 39.4219 73.4554C39.4079 73.4454 39.3949 73.4324 39.3779 73.4184C39.3609 73.4044 39.3549 73.3944 39.3409 73.3844C39.2299 73.2844 39.116 73.1844 39.002 73.0844C38.992 73.0744 38.982 73.0674 38.972 73.0584C38.855 72.9584 38.737 72.8534 38.613 72.7494L38.5889 72.7264C38.4649 72.6264 38.345 72.5184 38.22 72.4104C38.21 72.4044 38.1999 72.3934 38.1899 72.3874L37.8179 72.0754L37.7679 72.0354L37.415 71.7434C37.348 71.6894 37.281 71.6324 37.215 71.5754C37.149 71.5184 37.0869 71.4754 37.0229 71.4204C36.8859 71.3064 36.7439 71.1924 36.6069 71.0784C36.4066 70.9051 36.2286 70.7075 36.077 70.4904H37.093C37.1095 70.5076 37.1252 70.5256 37.14 70.5444L37.382 70.8164C37.563 71.0164 37.748 71.2164 37.942 71.4034C38.053 71.5034 38.1699 71.6084 38.2839 71.7124C38.3569 71.7764 38.4319 71.8404 38.5079 71.9044C38.5989 71.9854 38.693 72.0614 38.787 72.1394C39.0813 72.4027 39.4367 72.5883 39.821 72.6794C39.821 72.6694 39.815 72.6624 39.811 72.6524C39.7892 72.5622 39.7611 72.4736 39.7269 72.3874C39.7269 72.3814 39.7269 72.3774 39.7209 72.3704C39.6079 72.1084 39.4525 71.8669 39.261 71.6554C39.086 71.4504 38.9089 71.2494 38.7239 71.0554C38.6979 71.0254 38.667 70.9954 38.64 70.9654C38.597 70.9184 38.556 70.8714 38.509 70.8274C38.395 70.7104 38.277 70.5994 38.16 70.4924H38.449C38.542 70.6234 38.643 70.7544 38.749 70.8744L38.8259 70.9624C38.8599 71.0024 38.894 71.0434 38.926 71.0794C38.999 71.1564 39.0769 71.2304 39.1539 71.3004C39.2539 71.4004 39.3689 71.4924 39.4789 71.5864L39.533 71.6294C39.5385 71.6355 39.5453 71.6403 39.553 71.6434C39.6019 71.6803 39.6533 71.7137 39.707 71.7434C39.779 71.7851 39.8555 71.8186 39.9349 71.8434C40.0298 71.8728 40.1278 71.8909 40.2269 71.8974C40.2269 71.8564 40.2269 71.8164 40.2269 71.7764C40.2115 71.5658 40.1409 71.3629 40.022 71.1884C40.0077 71.1642 39.992 71.1408 39.975 71.1184C39.918 71.0344 39.858 70.9544 39.798 70.8704C39.71 70.7534 39.6199 70.6354 39.5229 70.5284C39.5089 70.5114 39.4929 70.4984 39.4789 70.4814H39.855C40.7771 71.6068 41.8077 72.6388 42.9319 73.5624C42.9719 73.5884 43.009 73.6164 43.046 73.6434C43.1619 73.7229 43.2843 73.7925 43.412 73.8514L43.449 73.2674L43.4659 72.9784L43.48 72.7784L43.4899 72.6174V72.5474C44.0977 72.9614 44.7494 73.3072 45.433 73.5784C46.1883 73.9642 47.0243 74.1653 47.8724 74.1653C48.7206 74.1653 49.5566 73.9642 50.312 73.5784C50.9956 73.3074 51.6472 72.9616 52.2549 72.5474L52.265 72.9964L52.2789 73.6784C53.3305 73.0191 54.2827 72.2133 55.1069 71.2854C55.4029 70.9604 55.665 70.6784 55.86 70.4674L55.858 70.4724ZM67.509 53.6234C68.315 54.9494 68.1869 56.4924 67.2269 57.0764C66.2669 57.6604 64.838 57.0594 64.032 55.7374C63.7564 55.2904 63.5814 54.7888 63.519 54.2674C63.419 54.2444 63.311 54.2174 63.204 54.1904C63.214 54.3114 63.224 54.4314 63.244 54.5524C63.2857 54.8247 63.3527 55.0925 63.444 55.3524C63.5325 55.6159 63.6445 55.871 63.7789 56.1144C63.9153 56.3632 64.0726 56.6001 64.249 56.8224C64.2553 56.831 64.258 56.8417 64.2567 56.8523C64.2554 56.8628 64.2501 56.8725 64.2419 56.8794C64.2345 56.8841 64.2258 56.8866 64.217 56.8866C64.2081 56.8866 64.1994 56.8841 64.192 56.8794C63.9601 56.6964 63.7527 56.4843 63.575 56.2484C63.3931 56.0113 63.2388 55.7543 63.1149 55.4824C62.9907 55.2069 62.8962 54.9189 62.8329 54.6234C62.8059 54.4754 62.7829 54.3234 62.7659 54.1774C62.7673 54.1383 62.7653 54.0991 62.7599 54.0604C62.7567 54.0591 62.7532 54.0591 62.7499 54.0604V54.2684L62.764 54.5974L62.804 54.9264C62.872 55.3653 62.9984 55.7931 63.1799 56.1984C63.362 56.6091 63.5974 56.9941 63.8799 57.3434C64.1633 57.6994 64.4956 58.0135 64.8669 58.2764C64.875 58.2833 64.8801 58.2931 64.8812 58.3037C64.8823 58.3143 64.8794 58.3249 64.873 58.3334C64.868 58.3416 64.86 58.3476 64.8507 58.3502C64.8414 58.3528 64.8315 58.3518 64.8229 58.3474C64.4051 58.1294 64.0247 57.8462 63.696 57.5084C63.3638 57.167 63.0844 56.7781 62.8669 56.3544C62.6455 55.9289 62.4872 55.4735 62.397 55.0024L62.343 54.6434L62.316 54.2844C62.323 54.1674 62.306 54.0424 62.316 53.9224L62.2789 53.9124C62.2429 55.1033 62.5618 56.2781 63.1949 57.2874C64.6039 59.6034 67.1079 60.6574 68.7889 59.6324C70.4699 58.6074 70.6889 55.9084 69.2789 53.5894C68.59 52.3917 67.4944 51.4809 66.191 51.0224C66.1905 51.0481 66.1885 51.0739 66.1849 51.0994L66.2659 51.1464C66.4012 51.2358 66.529 51.3361 66.6479 51.4464C66.8847 51.666 67.0733 51.9322 67.202 52.2284C67.2042 52.2335 67.2053 52.239 67.2053 52.2445C67.2053 52.2501 67.2041 52.2556 67.2018 52.2607C67.1996 52.2657 67.1963 52.2703 67.1922 52.274C67.1881 52.2778 67.1833 52.2806 67.178 52.2824C67.1707 52.2853 67.1627 52.2862 67.155 52.285C67.1472 52.2838 67.14 52.2804 67.134 52.2754C66.9123 52.0738 66.676 51.8889 66.4269 51.7224C66.3359 51.6654 66.2419 51.6084 66.1479 51.5584C66.1479 51.5984 66.1409 51.6394 66.1349 51.6824L66.178 51.7164C66.292 51.8164 66.403 51.9114 66.514 52.0164C66.7354 52.2191 66.9438 52.4355 67.1379 52.6644C67.1444 52.6735 67.1473 52.6846 67.146 52.6957C67.1447 52.7068 67.1394 52.717 67.131 52.7244C67.1251 52.7294 67.118 52.7326 67.1104 52.7339C67.1028 52.7351 67.0951 52.7342 67.088 52.7314C66.8154 52.6051 66.5518 52.4605 66.299 52.2984C66.225 52.2524 66.151 52.2044 66.077 52.1544C66.071 52.1974 66.0669 52.2414 66.0599 52.2854C66.6638 52.5779 67.1684 53.0415 67.511 53.6184L67.509 53.6234ZM42.283 25.5374C42.4283 25.1599 42.6827 24.8343 43.0138 24.6019C43.3448 24.3695 43.7376 24.2409 44.142 24.2324C44.3203 24.2258 44.4981 24.2564 44.6641 24.3222C44.83 24.3879 44.9805 24.4874 45.106 24.6144L47.23 23.6344L45.424 22.7654C45.1276 22.9716 44.775 23.0816 44.4139 23.0804C43.6829 23.0804 43.2399 22.6314 43.4139 22.1144C43.5439 21.8485 43.7489 21.6265 44.0035 21.4756C44.2582 21.3248 44.5513 21.2517 44.847 21.2654C45.488 21.2654 45.947 21.6314 45.881 22.1144C45.8668 22.2065 45.8359 22.2953 45.79 22.3764L47.874 23.3394L49.9579 22.3764C49.912 22.2953 49.8811 22.2065 49.8669 22.1144C49.7969 21.6304 50.2599 21.2654 50.8979 21.2654C51.194 21.2513 51.4878 21.3242 51.7429 21.4751C51.9981 21.626 52.2036 21.8482 52.334 22.1144C52.505 22.6314 52.062 23.0804 51.334 23.0804C50.973 23.0816 50.6203 22.9716 50.324 22.7654L48.5179 23.6344L50.642 24.6144C50.7673 24.4875 50.9176 24.388 51.0834 24.3223C51.2491 24.2565 51.4268 24.2259 51.605 24.2324C52.0092 24.2414 52.4017 24.3702 52.7327 24.6026C53.0636 24.8349 53.3181 25.1602 53.4639 25.5374C53.5346 25.7192 53.5574 25.9162 53.5302 26.1094C53.5029 26.3026 53.4266 26.4856 53.3083 26.6409C53.1901 26.7961 53.034 26.9184 52.855 26.9961C52.676 27.0737 52.4801 27.1041 52.2859 27.0844C51.8384 27.0822 51.405 26.9278 51.0568 26.6467C50.7086 26.3656 50.4664 25.9744 50.3699 25.5374C50.3502 25.4069 50.3523 25.2741 50.376 25.1444L47.876 23.9444L45.376 25.1444C45.4 25.2741 45.402 25.407 45.382 25.5374C45.2857 25.9745 45.0435 26.3658 44.6953 26.6469C44.3471 26.9281 43.9135 27.0824 43.4659 27.0844C43.2718 27.1041 43.0759 27.0737 42.8969 26.9961C42.7179 26.9184 42.5618 26.7961 42.4436 26.6409C42.3254 26.4856 42.249 26.3026 42.2217 26.1094C42.1945 25.9162 42.2173 25.7192 42.288 25.5374" fill="#F61414"/>
<path d="M39.386 64.4961C39.235 64.3041 39.1379 63.9321 38.8619 63.9161C38.5029 63.8961 38.1269 63.9331 37.7619 63.9331H30.8119C30.3789 63.9331 29.9359 63.9591 29.5029 63.9331C29.4029 63.9271 29.2179 63.8691 29.1269 63.9391C29.0699 63.9831 29.08 64.0501 29.066 64.1141C29.0403 64.2116 29.0044 64.3062 28.959 64.3961C31.6703 64.4295 34.3806 64.4565 37.0899 64.4771L39.386 64.4961ZM7.64395 64.8081C7.44813 64.6921 7.23709 64.6039 7.01694 64.5461C6.54274 64.4201 6.04167 64.439 5.57828 64.6003C5.11489 64.7616 4.71039 65.0579 4.4169 65.4511C4.12342 65.8443 3.95442 66.3164 3.93161 66.8065C3.9088 67.2966 4.03322 67.7824 4.28891 68.2011C4.26494 67.6867 4.35903 67.1736 4.56394 66.7011C4.58794 66.6441 4.66393 66.4091 4.75193 66.4361C4.83993 66.4631 4.73093 66.7361 4.71793 66.7981C4.59188 67.3176 4.58167 67.8583 4.68796 68.3821C4.70923 68.5873 4.80194 68.7785 4.94992 68.9221C5.14444 69.0716 5.36526 69.1831 5.60092 69.2511C5.41361 68.7748 5.35133 68.2584 5.41996 67.7511C5.43331 67.6251 5.45666 67.5004 5.4899 67.3781C5.5109 67.3111 5.55095 67.1101 5.61795 67.0781C5.71195 67.0341 5.68492 67.1781 5.68192 67.2621C5.64708 67.7375 5.69343 68.2153 5.81894 68.6751C5.86209 68.8797 5.94316 69.0744 6.05796 69.2491C6.20196 69.4401 6.41691 69.3901 6.62491 69.3701C6.46743 69.1153 6.35609 68.8346 6.29593 68.5411C6.26637 68.4133 6.24828 68.2832 6.24192 68.1521C6.24192 68.0911 6.22191 67.8641 6.28891 67.8301C6.35591 67.7961 6.4199 68.0651 6.4299 68.1121C6.51565 68.3994 6.64019 68.6735 6.79996 68.9271C6.89996 69.0811 7.0349 69.3201 7.2529 69.2331C7.4919 69.1331 7.2729 68.7661 7.2269 68.5921C7.04391 67.9686 6.97353 67.3174 7.01895 66.6691C7.07168 66.0063 7.28629 65.3666 7.64395 64.8061V64.8081ZM47.7079 65.0081C47.6439 64.6821 47.5669 64.3641 47.4729 64.0451C47.3479 63.6151 47.114 62.6961 46.506 62.7661C45.966 62.8331 45.7879 63.5581 45.6869 63.9911C45.6099 64.3201 45.566 64.6561 45.506 64.9911C45.489 65.0911 45.4459 65.2161 45.5199 65.3061C45.6139 65.4171 45.8019 65.3801 45.9289 65.4141C46.5826 65.5576 47.2451 65.6578 47.912 65.7141C47.8834 65.7026 47.8561 65.6879 47.8309 65.6701C47.7939 65.6301 47.7969 65.5491 47.7909 65.4961C47.7619 65.3351 47.7389 65.1701 47.7079 65.0061V65.0081ZM52.9759 65.0781C53.0952 65.0283 53.2081 64.9641 53.3119 64.8871C53.4195 64.8244 53.5237 64.756 53.6239 64.6821C53.8239 64.5111 53.6499 64.2601 53.5739 64.0711C53.4599 63.7891 53.3739 63.5011 53.2549 63.2221C53.1549 62.9941 52.955 62.4221 52.644 62.4221C52.258 62.4221 52.178 63.2511 52.144 63.5161C52.0898 63.7416 52.0603 63.9723 52.0559 64.2041C52.0699 64.3551 52.1369 64.5101 52.1559 64.6641C52.1715 64.837 52.1739 65.0109 52.1629 65.1841C52.4381 65.1879 52.7123 65.1515 52.9769 65.0761L52.9759 65.0781ZM49.2759 62.7931C48.8159 63.0751 48.8129 63.8331 48.7759 64.3061C48.7499 64.6281 48.7529 64.9541 48.7359 65.2791C48.7359 65.3531 48.6489 65.6791 48.7129 65.7221C49.516 65.6519 50.3131 65.5242 51.0979 65.3401C50.9287 64.7316 50.7016 64.1405 50.42 63.5751C50.222 63.1941 49.7989 62.4691 49.2759 62.7911V62.7931ZM52.6819 71.0171C52.6771 71.0924 52.6637 71.1669 52.6419 71.2391C52.6249 71.2961 52.5809 71.3461 52.5879 71.4101C52.6009 71.5341 52.7559 71.5941 52.8359 71.6691C52.9159 71.7441 52.9929 71.8941 53.1209 71.9111C53.2489 71.9281 53.3319 71.7901 53.4099 71.7061C53.5169 71.5891 53.6279 71.4741 53.7249 71.3511C53.9529 71.0691 54.1469 70.7571 54.3659 70.4681H52.678C52.678 70.6471 52.6979 70.8311 52.6819 71.0161V71.0171ZM58.3639 66.3731L59.1329 66.5511C58.8729 66.4891 58.6179 66.4281 58.3629 66.3721L58.3639 66.3731ZM42.3709 71.7151C42.4479 71.7961 42.5389 71.9391 42.6709 71.9151C42.8029 71.8911 42.8489 71.7511 42.9259 71.6731C43.0029 71.5951 43.1469 71.5421 43.1939 71.4251C43.2509 71.2841 43.1439 71.1341 43.1129 70.9991C43.0796 70.8235 43.0662 70.6448 43.0729 70.4661H41.4079C41.5877 70.7607 41.7882 71.042 42.0079 71.3081C42.1179 71.4491 42.2419 71.5801 42.3699 71.7141L42.3709 71.7151ZM47.855 75.3291C47.7964 75.2101 47.7512 75.085 47.7199 74.9561C47.6939 74.8621 47.6859 74.7751 47.5929 74.7281C47.4951 74.7024 47.3933 74.6956 47.2929 74.7081C47.1508 74.6953 47.0095 74.674 46.8699 74.6441C45.8508 74.4249 44.885 74.0066 44.0279 73.4131C44.1089 73.7131 44.2359 74.0001 44.3099 74.3021C44.3438 74.4198 44.3359 74.5455 44.2876 74.658C44.2393 74.7704 44.1536 74.8627 44.045 74.9191C43.7736 75.008 43.484 75.0257 43.2038 74.9705C42.9237 74.9153 42.6624 74.7892 42.4449 74.6041C42.196 74.4351 41.9684 74.2367 41.7669 74.0131C41.5839 73.7877 41.3755 73.584 41.1459 73.4061C40.9235 73.2286 40.6608 73.1087 40.381 73.0571C40.2849 73.0679 40.1925 73.1005 40.1111 73.1525C40.0296 73.2045 39.9611 73.2745 39.9109 73.3571C39.8709 73.4141 39.6759 73.6091 39.6859 73.6831C39.6959 73.7571 39.938 73.9221 39.998 73.9831C40.119 74.1001 40.2399 74.2151 40.3569 74.3351C40.5747 74.5567 40.7797 74.7904 40.9709 75.0351C41.1453 75.2829 41.3033 75.5418 41.4439 75.8101C41.8076 76.3026 42.2954 76.6897 42.8576 76.932C43.4198 77.1743 44.0363 77.263 44.644 77.1891C45.3327 77.0607 46.0129 76.8904 46.6809 76.6791C47.4234 76.5203 48.1902 76.5122 48.9359 76.6551C48.8749 76.6081 48.8189 76.5551 48.7579 76.5071C48.3772 76.1817 48.0689 75.7801 47.8529 75.3281L47.855 75.3291ZM48.5259 70.6171C48.5259 70.7721 48.409 72.0871 48.019 71.8021C47.865 71.6911 47.8189 71.4021 47.7809 71.2281C47.7517 71.0846 47.736 70.9386 47.7339 70.7921C47.7339 70.7081 47.778 70.5601 47.717 70.4921C47.656 70.4241 47.576 70.4551 47.493 70.4621C47.349 70.4751 47.201 70.4681 47.053 70.4681H43.808C43.849 70.6161 43.8919 70.7681 43.9219 70.9211C43.9258 71.0727 43.9598 71.2219 44.0219 71.3601C44.1024 71.4523 44.2059 71.5213 44.3219 71.5601C44.4799 71.6341 44.6339 71.7151 44.7919 71.7851C45.4087 72.056 46.0621 72.2346 46.7309 72.3151C48.0863 72.5062 49.468 72.3563 50.7509 71.8791C51.0773 71.774 51.3878 71.625 51.6739 71.4361C51.732 71.3887 51.7792 71.3293 51.8124 71.262C51.8455 71.1947 51.8638 71.1211 51.8659 71.0461C51.9158 70.856 51.9492 70.662 51.9659 70.4661H48.5259C48.5284 70.5161 48.5278 70.5662 48.524 70.6161L48.5259 70.6171ZM87.2259 68.5031C84.5679 65.9631 80.9259 64.7651 77.3529 64.2341C75.1712 63.9698 72.9727 63.8695 70.7759 63.9341H60.3399C59.7159 63.9341 59.091 63.9401 58.467 63.9341C58.2042 63.9002 57.9383 63.8979 57.675 63.9271C57.46 63.9841 57.3529 64.3101 57.2289 64.4711H67.269C68.961 64.4711 70.6519 64.4311 72.3399 64.4711C73.969 64.5533 75.5851 64.805 77.162 65.2221C78.944 65.6455 80.7023 66.1535 82.4369 66.7461H63.5679C62.6949 66.7461 61.826 66.7461 60.954 66.7461C60.515 66.7645 60.0753 66.7373 59.6419 66.6651C59.4709 66.6281 59.2999 66.5881 59.1319 66.5481C59.4139 66.6151 59.7019 66.6781 59.9869 66.7481C56.6419 66.7481 53.299 66.7381 49.954 66.7481C49.564 66.7481 49.1789 66.7681 48.7889 66.7911C48.3827 66.8098 47.9757 66.7998 47.571 66.7611C46.736 66.7041 45.8999 66.7441 45.0609 66.7481C43.3999 66.7481 41.7389 66.7481 40.0779 66.7481H34.451C34.4816 66.7369 34.513 66.7279 34.545 66.7211C34.2372 66.7752 33.9233 66.7844 33.6129 66.7481C33.2769 66.7411 32.9379 66.7481 32.6029 66.7481H30.6079C29.9569 66.7481 29.3079 66.7481 28.6549 66.7481C28.3429 66.7481 28.0239 66.7611 27.7119 66.7481C27.5781 66.723 27.4412 66.7183 27.3059 66.7341C27.1849 66.7711 27.129 66.8851 27.058 66.9821C26.649 67.5661 26.1729 68.1031 25.7579 68.6821H61.8659C65.8759 68.6821 69.8836 68.6821 73.8889 68.6821H87.4079C87.3469 68.6231 87.2829 68.5631 87.2189 68.5061L87.2259 68.5031ZM39.071 38.1771C39.151 38.2381 39.2349 38.2981 39.3149 38.3511C39.2889 38.3311 39.261 38.3141 39.235 38.2911C39.182 38.2541 39.1349 38.1771 39.0649 38.1771H39.071ZM39.4709 38.4561C39.4169 38.4221 39.371 38.3891 39.313 38.3561C39.359 38.3881 39.413 38.4221 39.467 38.4551L39.4709 38.4561ZM60.4809 62.3051L60.0279 62.2441C60.0343 62.2492 60.041 62.2539 60.0479 62.2581C60.188 62.294 60.3324 62.3101 60.4769 62.3061L60.4809 62.3051ZM51.1589 39.3051C51.4379 39.5131 51.7259 39.7111 51.9939 39.9291C52.0917 40.0379 52.2123 40.124 52.347 40.1811C52.491 40.2151 52.647 40.1101 52.777 40.0601C53.4141 39.8187 54.0756 39.6477 54.7499 39.5501C55.0848 39.4937 55.4234 39.4623 55.7629 39.4561C55.9879 39.4561 56.3229 39.5871 56.4239 39.3251C56.4614 39.2094 56.4918 39.0915 56.5149 38.9721C56.5649 38.7771 56.6289 38.5861 56.6889 38.3921C56.8059 37.9921 56.924 37.5871 57.045 37.1921C55.6762 37.076 54.3001 37.074 52.9309 37.1861C52.2529 37.2361 51.5772 37.3028 50.9039 37.3861C50.2429 37.4701 49.5889 37.5981 48.9239 37.6381C49.0719 37.7521 49.2239 37.8631 49.3739 37.9771C49.9639 38.4221 50.5579 38.8681 51.1549 39.3061L51.1589 39.3051ZM59.8369 39.6051C60.1915 39.8473 60.5748 40.0445 60.9779 40.1921C61.4228 40.3881 61.9048 40.4854 62.3909 40.4771C62.7424 40.4534 63.0868 40.367 63.4079 40.2221C62.1186 38.7455 60.3684 37.7476 58.441 37.3901C58.7 37.8201 58.9649 38.2461 59.2129 38.6791C59.352 39.0283 59.5633 39.3442 59.8329 39.6061L59.8369 39.6051ZM40.1759 46.4871C40.4794 46.4874 40.7755 46.3935 41.0233 46.2184C41.2712 46.0433 41.4587 45.7957 41.56 45.5096C41.6612 45.2236 41.6713 44.9131 41.5887 44.6211C41.5062 44.3291 41.3351 44.0699 41.0991 43.8791C40.8631 43.6884 40.5737 43.5755 40.2708 43.5561C39.968 43.5367 39.6666 43.6117 39.4081 43.7708C39.1497 43.9298 38.9469 44.1651 38.8278 44.4442C38.7087 44.7233 38.679 45.0325 38.743 45.3291C38.8176 45.6542 38.9988 45.9449 39.2578 46.1551C39.5167 46.3653 39.8385 46.4829 40.1719 46.4891L40.1759 46.4871ZM33.3969 45.8701C33.8201 46.7964 34.5372 47.5571 35.4369 48.0341C36.4063 48.6157 37.4929 48.9743 38.618 49.0841C38.218 49.2221 37.8179 49.3591 37.4179 49.4971C38.1628 50.0542 39.0124 50.4551 39.9159 50.6759C40.8194 50.8967 41.7581 50.9328 42.6759 50.7821C43.5866 50.6577 44.4364 50.2546 45.1089 49.6281C45.796 48.8989 46.2512 47.9822 46.4169 46.9941C46.5358 46.3886 46.5898 45.7721 46.5779 45.1551C46.5719 44.8431 46.5439 44.5351 46.5209 44.2221C46.4939 43.8931 46.5069 43.5571 46.4769 43.2281C45.7802 43.4419 45.0623 43.5793 44.3359 43.6381C44.0079 43.6685 43.6773 43.6286 43.3659 43.5211C43.0537 43.386 42.7578 43.2159 42.4839 43.0141C41.3529 42.2631 40.3089 41.3701 39.1139 40.7141C39.7371 40.9059 40.3212 41.2069 40.839 41.6031C41.047 41.7511 41.2389 41.9121 41.4299 42.0761C41.4799 42.1191 41.6649 42.2841 41.6579 42.1401C41.6579 42.0561 41.5139 41.9401 41.4629 41.8881C41.3489 41.7671 41.224 41.6601 41.097 41.5491C40.845 41.3311 40.5839 41.1191 40.3179 40.9141C39.8871 40.5989 39.3968 40.3743 38.8767 40.254C38.3566 40.1337 37.8174 40.1201 37.2919 40.2141C36.664 40.3125 36.0715 40.5689 35.5699 40.9591C35.3319 41.1401 35.107 41.3381 34.886 41.5331C34.789 41.6056 34.7136 41.7031 34.6679 41.8151C34.653 41.9845 34.6748 42.155 34.7319 42.3151C34.7919 42.6971 34.8319 43.0901 34.8689 43.4761C34.9274 43.8274 34.9149 44.1868 34.8319 44.5331C34.5236 45.134 34.0144 45.6078 33.3929 45.8721L33.3969 45.8701ZM46.873 49.0411C46.3597 49.6475 45.8971 50.295 45.4899 50.9771C45.0702 51.6402 44.777 52.3753 44.6249 53.1451C44.5609 53.5271 44.4869 53.9071 44.4059 54.2861C44.3176 54.6171 44.2508 54.9535 44.2059 55.2931C44.1725 55.5952 44.2084 55.9008 44.3108 56.1869C44.4132 56.4729 44.5795 56.7319 44.7969 56.9441C45.0283 57.1607 45.3094 57.3171 45.6155 57.3995C45.9215 57.482 46.243 57.488 46.5519 57.4171C47.1089 57.2153 47.5802 56.8294 47.8879 56.3231C48.2011 56.8299 48.675 57.2172 49.2339 57.4231C49.5205 57.4915 49.8191 57.4919 50.1057 57.4241C50.3924 57.3564 50.6593 57.2225 50.8849 57.0331C51.1162 56.8385 51.3003 56.5939 51.4235 56.3178C51.5466 56.0417 51.6056 55.7413 51.5959 55.4391C51.5665 55.0933 51.5012 54.7514 51.4009 54.4191C51.3169 54.0701 51.264 53.7191 51.201 53.3621C50.9132 52.0514 50.3289 50.8239 49.493 49.7741C49.06 49.1941 48.5799 48.6601 48.1039 48.1201C48.0269 48.0331 47.9529 47.9151 47.8219 47.9621C47.7079 48.0061 47.6409 48.1621 47.5699 48.2541C47.3429 48.5291 47.0909 48.7741 46.8699 49.0431L46.873 49.0411ZM30.4969 50.0281C30.4799 49.7391 30.4499 49.4511 30.4469 49.1591C30.4597 48.885 30.526 48.6159 30.6419 48.3671C30.8659 47.8001 31.1049 47.2401 31.3489 46.6791C31.8219 45.5791 32.3329 44.4791 32.9029 43.4271C33.4001 42.4311 34.0153 41.4984 34.735 40.6491C35.546 39.7971 36.5737 39.1821 37.7079 38.8701C37.5739 38.7831 37.443 38.6921 37.308 38.6021C37.508 38.5651 37.7139 38.8731 37.8579 38.9741C38.1391 39.1777 38.463 39.3145 38.8049 39.3741C38.7635 39.1019 38.642 38.8481 38.4559 38.6451C38.8113 38.6161 39.1644 38.5636 39.5129 38.4881C39.4959 38.4781 39.4789 38.4641 39.4659 38.4541C39.6539 38.5751 39.8419 38.7021 40.0329 38.8201C40.3965 39.0671 40.8105 39.23 41.2449 39.2971C41.0917 38.9488 40.8636 38.6384 40.5769 38.3881C40.8329 38.3435 41.0964 38.3784 41.3319 38.4881C41.6319 38.6631 41.8959 38.9041 42.1739 39.1091C42.7379 39.5281 43.3079 39.9411 43.8739 40.3581C45.0486 41.2201 46.2223 42.0811 47.3949 42.9411C47.9649 43.3571 48.5316 43.7735 49.0949 44.1901C49.5679 44.5391 50.1519 44.8341 50.3949 45.3901C50.9045 46.5472 51.6068 47.6093 52.472 48.5311C52.74 48.8171 53.0189 49.0881 53.3139 49.3471C53.4466 49.4683 53.5855 49.5824 53.73 49.6891C53.824 49.7561 53.9719 49.8131 54.0089 49.9341C54.0559 50.0711 53.9489 50.2421 53.9089 50.3731C53.8589 50.5541 53.8249 50.7461 53.7849 50.9301C53.6969 51.3231 53.6069 51.7151 53.5199 52.1081C54.6396 51.9801 55.7267 51.6494 56.7279 51.1321C56.9899 51.0041 57.2449 50.8701 57.4969 50.7261C57.7067 50.5843 57.9335 50.4694 58.1719 50.3841C58.7359 50.2121 59.2989 50.0621 59.8489 49.8471C59.7149 50.2261 59.5779 50.6051 59.4629 50.9921C59.4347 51.148 59.3849 51.2991 59.3149 51.4411C59.2379 51.5551 59.1069 51.5481 58.9829 51.5651C57.9797 51.7071 57.0379 52.1329 56.2687 52.7924C55.4994 53.4518 54.9346 54.3174 54.6409 55.2871C54.5329 55.6491 54.5129 56.0221 54.4259 56.3871C54.3619 56.6391 54.3049 56.9571 54.5799 57.1081C54.9389 57.3081 55.4489 57.0011 55.8009 56.9081C56.393 56.8342 56.9935 56.9412 57.5236 57.215C58.0537 57.4888 58.4885 57.9166 58.7709 58.4421C59.1406 59.1577 59.3777 59.9342 59.4709 60.7341C59.5511 61.1358 59.6656 61.5299 59.813 61.9121C59.8404 62.0402 59.9109 62.155 60.0129 62.2371C59.8129 62.2111 59.6129 62.1831 59.4129 62.1671C59.0539 62.1411 58.6919 62.1471 58.3299 62.1471C58.5619 61.493 58.7392 60.8206 58.86 60.1371C58.266 60.6167 57.6969 61.1264 57.1549 61.6641C56.642 62.2052 56.1803 62.7927 55.7759 63.4191C55.6849 63.0031 55.5949 62.5901 55.5079 62.1741C55.4709 61.9991 55.44 61.8211 55.394 61.6501C55.36 61.5291 55.2699 61.3711 55.3169 61.2441C55.3909 61.0601 55.7169 61.0091 55.8839 60.9861C56.0272 60.9661 56.1731 60.9749 56.313 61.0121C56.4477 61.0753 56.5884 61.1249 56.7329 61.1601C57.0329 61.1801 56.8739 60.7781 56.7969 60.6401C56.7382 60.5186 56.6528 60.4119 56.547 60.328C56.4412 60.2442 56.3177 60.1854 56.1859 60.1561C55.8939 60.0961 55.5649 60.1831 55.5279 60.5121C55.5139 60.6121 55.5109 60.7671 55.3769 60.7601C55.2629 60.7501 55.1769 60.6191 55.0879 60.5681C54.7879 60.4041 54.7729 60.8301 54.6549 60.9911C54.5502 61.0947 54.4198 61.1685 54.2771 61.205C54.1344 61.2416 53.9846 61.2395 53.8429 61.1991C53.4978 61.1266 53.1823 60.9525 52.9369 60.6991C52.6889 60.4781 52.4699 60.5451 52.2489 60.7631C52.0139 60.9981 51.8089 61.2631 51.5879 61.5011C51.3669 61.7391 51.182 61.7011 50.98 61.4781C50.715 61.1781 50.366 60.4171 49.873 60.5851C49.608 60.7157 49.3753 60.9036 49.1919 61.1351C48.9869 61.3351 48.7619 61.6041 48.4569 61.6251C48.1519 61.6461 47.897 61.3861 47.688 61.1881C47.495 60.9663 47.2702 60.7742 47.0209 60.6181C46.4969 60.3521 46.1419 61.1181 45.8629 61.4361C45.6819 61.6441 45.4969 61.7451 45.2629 61.5501C45.0755 61.3657 44.9048 61.1649 44.7529 60.9501C44.5849 60.7501 44.3529 60.4871 44.0619 60.5911C43.7709 60.6951 43.598 60.9841 43.313 61.1041C43.0162 61.2414 42.6772 61.2557 42.3699 61.1441C42.2624 61.093 42.1734 61.0098 42.1149 60.9061C42.0579 60.8061 42.0509 60.6211 41.9429 60.5571C41.7279 60.4261 41.4599 60.9121 41.3189 60.6571C41.2898 60.5678 41.2654 60.477 41.2459 60.3851C41.2208 60.3259 41.1818 60.2737 41.1322 60.2328C41.0826 60.1919 41.0238 60.1635 40.9609 60.1501C40.8216 60.1224 40.6775 60.1304 40.542 60.1732C40.4065 60.216 40.2841 60.2924 40.1859 60.3951C40.0255 60.5555 39.9288 60.7688 39.9139 60.9951C39.9339 61.3011 40.3629 61.0391 40.5209 61.0051C40.6853 60.9755 40.8541 60.9798 41.0168 61.0178C41.1795 61.0558 41.3327 61.1267 41.467 61.2261C41.91 61.5261 42.2449 62.0821 42.8059 62.1761C42.944 62.2005 43.0862 62.1853 43.2159 62.1321C43.3774 62.0689 43.5545 62.0571 43.7229 62.0981C43.8608 62.1163 43.9907 62.1729 44.098 62.2613C44.2053 62.3496 44.2857 62.4664 44.3299 62.5981C44.42 62.9546 44.4617 63.3216 44.454 63.6891C44.4603 64.0567 44.4412 64.4242 44.3969 64.7891C44.3869 64.8661 44.3159 65.0681 44.3869 65.1281C44.3915 65.1325 44.3976 65.135 44.4039 65.1351C44.2058 65.1389 44.008 65.1208 43.8139 65.0811C43.5975 65 43.3951 64.8856 43.214 64.7421C43.077 64.6551 42.8849 64.6081 42.8139 64.4421C42.786 64.327 42.7779 64.208 42.79 64.0901C42.784 63.9491 42.7729 63.8081 42.7669 63.6701C42.7899 63.412 42.7426 63.1525 42.6299 62.9191C42.4989 62.7471 42.318 62.9761 42.23 63.0931C42.0073 63.4627 41.9239 63.8996 41.9949 64.3251C41.7159 64.3151 41.445 64.3791 41.17 64.3821C40.97 64.3821 40.8879 64.2751 40.8179 64.1001C40.6299 63.6311 40.5289 63.1301 40.3179 62.6701C40.2009 62.4021 39.9519 62.0531 39.7579 62.4861C39.6449 62.8775 39.6696 63.2958 39.8279 63.6711C39.0646 62.535 38.3764 61.3502 37.7679 60.1241C37.8649 60.807 38.0232 61.4797 38.2409 62.1341C37.8009 62.1341 37.3579 62.1071 36.9189 62.1341C36.8009 62.1401 36.6269 62.1911 36.5429 62.0801C36.5124 62.0252 36.493 61.9646 36.4859 61.9021C36.4497 61.786 36.4049 61.6727 36.3519 61.5631C35.9925 60.7967 35.7146 59.9947 35.5229 59.1701C35.3461 58.3316 35.3739 57.4627 35.6039 56.6371C35.6301 56.4755 35.6846 56.3198 35.7649 56.1771C35.8649 56.0491 36.017 56.0601 36.165 56.0461C36.6116 56.0091 37.0598 55.9957 37.5079 56.0061C38.4945 56.0245 39.4766 56.1458 40.438 56.3681C40.1801 55.6648 39.8563 54.9875 39.4709 54.3451C39.164 53.7654 38.7441 53.2529 38.2359 52.8381C37.0109 51.9591 35.6019 52.7041 34.2969 52.8991C33.8969 52.9601 33.7729 52.5201 33.4709 52.3551C33.3439 52.2851 33.3339 52.3721 33.3609 52.4891C33.416 52.689 33.5079 52.8769 33.6319 53.0431C33.4439 53.0891 33.2599 52.8511 33.1549 52.7311C33.0039 52.5501 32.8799 52.3481 32.7419 52.1601C32.7219 52.1371 32.6609 52.0261 32.6209 52.0261C32.5439 52.0261 32.577 52.1901 32.584 52.2381C32.6347 52.5849 32.7796 52.9111 33.0029 53.1811C32.8119 53.2211 32.6739 53.0441 32.5639 52.9161C32.4042 52.7387 32.2571 52.5503 32.1239 52.3521C31.9831 52.1473 31.8724 51.9233 31.795 51.6871C31.778 51.6271 31.7339 51.3681 31.6369 51.3871C31.4759 51.4311 31.6609 51.9711 31.6869 52.0751C31.8035 52.5258 32.0295 52.9408 32.3449 53.2831C32.2139 53.2971 32.0659 53.3641 31.9389 53.2971C31.8309 53.2401 31.7809 53.1021 31.7309 52.9971C31.5893 52.7116 31.477 52.4124 31.3959 52.1041C31.2694 51.4789 31.2434 50.8375 31.3189 50.2041C31.3249 50.1431 31.3359 50.0261 31.2459 50.0931C31.1849 50.1341 31.1649 50.3081 31.1459 50.3721C31.0575 50.6827 31.0055 51.0025 30.9909 51.3251C30.9568 51.9484 31.0792 52.5703 31.347 53.1341C31.331 53.1135 31.3099 53.0974 31.2859 53.0871C30.9615 52.7381 30.756 52.2952 30.6989 51.8221C30.5857 51.2305 30.5172 50.6311 30.4939 50.0291L30.4969 50.0281ZM44.4729 65.1551C44.5314 65.1549 44.5898 65.1582 44.6479 65.1651C44.6309 65.1171 44.5369 65.1461 44.4699 65.1571L44.4729 65.1551ZM44.4229 65.1551C44.4399 65.1551 44.4569 65.1551 44.4729 65.1551C44.4563 65.1569 44.4396 65.1569 44.4229 65.1551Z" fill="white"/>
<path d="M10.4039 68.6756H12.6109C12.6778 68.3191 12.7967 67.9744 12.9639 67.6526H10.8359C10.6391 67.9688 10.4933 68.314 10.4039 68.6756ZM87.6489 43.2866C87.6489 43.2796 87.6489 43.2766 87.6489 43.2696C87.6489 43.2696 87.6519 43.2796 87.6519 43.2866H87.6489ZM90.8769 33.2466V33.2126C90.8709 33.0126 90.8539 32.8226 90.8299 32.6356C90.8094 32.4277 90.7759 32.2213 90.7299 32.0176C90.7294 32.0085 90.727 31.9997 90.7229 31.9916C90.6969 31.8776 90.6659 31.7666 90.6329 31.6556C90.6329 31.6416 90.6259 31.6326 90.6229 31.6186C90.5899 31.5106 90.5529 31.4066 90.5089 31.3036C90.5054 31.295 90.5034 31.2858 90.5029 31.2766C90.3691 30.9456 90.1897 30.6349 89.9699 30.3536C88.2619 28.1996 86.8449 27.8336 86.1209 27.8206C85.4216 28.5964 84.5625 29.2114 83.6026 29.6231C82.6427 30.0349 81.605 30.2336 80.5609 30.2056C79.6149 30.1972 78.6739 30.0675 77.7609 29.8196C72.8419 28.5196 69.5799 21.3196 66.6609 14.0676C66.3559 13.3056 66.0939 12.6516 65.8689 12.1276C64.9993 10.2264 63.7177 8.54235 62.117 7.19746C60.5163 5.85258 58.6366 4.88048 56.6139 4.35156C55.9139 7.91556 53.9259 14.0366 48.5729 14.0366C48.4889 14.0366 48.4019 14.0366 48.3179 14.0366C48.1672 14.0292 48.0162 14.0259 47.8649 14.0266C47.7136 14.0272 47.5626 14.0306 47.4119 14.0366C47.3249 14.0366 47.2409 14.0366 47.1569 14.0366C41.8039 14.0366 39.8179 7.91556 39.1159 4.35156C37.0932 4.88048 35.2135 5.85258 33.6128 7.19746C32.0122 8.54235 30.7306 10.2264 29.8609 12.1276C29.6359 12.6516 29.3739 13.3056 29.0689 14.0676C26.1529 21.3226 22.8909 28.5176 17.9689 29.8196C17.0559 30.0675 16.1149 30.1972 15.1689 30.2056C14.1248 30.2336 13.0871 30.0349 12.1272 29.6231C11.1674 29.2114 10.3082 28.5964 9.60893 27.8206C8.88393 27.8336 7.4679 28.1996 5.7559 30.3536C5.53804 30.6351 5.36067 30.9458 5.22892 31.2766C5.22892 31.2866 5.21891 31.2936 5.21891 31.3036C5.17491 31.4036 5.1379 31.5116 5.1049 31.6186C5.1049 31.6326 5.09789 31.6416 5.09489 31.6556C5.05789 31.7666 5.03092 31.8776 5.00492 31.9916C5.00114 31.9998 4.99875 32.0086 4.99791 32.0176C4.95406 32.2069 4.9207 32.3985 4.89793 32.5916C4.87193 32.7916 4.85488 33.0016 4.84788 33.2126V33.2416C4.84788 33.3626 4.84188 33.4896 4.84788 33.6166C4.84788 33.6506 4.84788 33.6876 4.84788 33.7246C4.84788 33.8246 4.85489 33.9246 4.85789 34.0336C4.85789 34.0836 4.8639 34.1336 4.8679 34.1776C4.8749 34.2716 4.88189 34.3696 4.89189 34.4666C4.89789 34.5206 4.90192 34.5736 4.90892 34.6306C4.91892 34.7206 4.93191 34.8116 4.94291 34.9056C4.95291 34.9656 4.95991 35.0226 4.96891 35.0826C4.98191 35.1736 4.99592 35.2636 5.01292 35.3546C5.02292 35.4186 5.03292 35.4786 5.04692 35.5466C5.06392 35.6336 5.08093 35.7236 5.10093 35.8146C5.13093 35.9656 5.16491 36.1196 5.20091 36.2746C5.21391 36.3316 5.2239 36.3886 5.2379 36.4456L5.31889 36.7456C5.33189 36.7996 5.34492 36.8536 5.36192 36.9066C5.38892 37.0066 5.41893 37.1186 5.44993 37.2216C5.46693 37.2716 5.4799 37.3216 5.4929 37.3726C5.5269 37.4836 5.55994 37.5946 5.59294 37.7056C5.60594 37.7486 5.61891 37.7926 5.63591 37.8396C5.67291 37.9566 5.71291 38.0746 5.75291 38.1916C5.76251 38.2255 5.77385 38.2588 5.78691 38.2916C5.83091 38.4226 5.87791 38.5536 5.92491 38.6916C5.92887 38.6963 5.93098 38.7024 5.93089 38.7086C6.02189 38.9506 6.11892 39.1956 6.21592 39.4436C6.21592 39.4436 6.21588 39.4536 6.22288 39.4606C6.24888 39.5276 6.27993 39.5976 6.30693 39.6606C6.38793 39.8556 6.46791 40.0506 6.55491 40.2446C6.57791 40.3016 6.60491 40.3626 6.62791 40.4196C6.72791 40.6476 6.83589 40.8766 6.94389 41.1006C6.97789 41.1746 7.01093 41.2446 7.04393 41.3196L7.0839 41.3996C7.1509 41.5436 7.22194 41.6886 7.29594 41.8286C7.34894 41.9286 7.39589 42.0406 7.45689 42.1446C7.47689 42.1906 7.5039 42.2346 7.5269 42.2786C7.5499 42.3226 7.5569 42.3356 7.5709 42.3656C7.6379 42.4936 7.70492 42.6206 7.77092 42.7446C7.83692 42.8686 7.91493 43.0066 7.98893 43.1376C8.01593 43.1846 8.0389 43.2376 8.0659 43.2816L8.02488 43.2006C8.03542 43.2229 8.04785 43.2443 8.06193 43.2646C7.91393 42.9456 7.77991 42.6266 7.64891 42.3086C7.63891 42.2846 7.62794 42.2586 7.61894 42.2316C7.56594 42.1006 7.51092 41.9666 7.46092 41.8316C7.40092 41.6736 7.3439 41.5166 7.2899 41.3586C7.2599 41.3016 7.23291 41.2446 7.20591 41.1876C6.73714 40.2147 6.37471 39.1942 6.12492 38.1436C6.07792 37.9316 6.0349 37.7216 6.0009 37.5096C5.9769 37.3486 5.94792 37.1876 5.92692 37.0296L5.88688 36.5426L5.86992 36.2976V36.0566V35.5696C5.89703 34.9196 5.99766 34.2748 6.1699 33.6476C6.35102 33.0228 6.6204 32.4271 6.96989 31.8786C7.05389 31.7416 7.15392 31.6136 7.24492 31.4786C7.33592 31.3436 7.44493 31.2236 7.55693 31.1096C7.77211 30.8667 8.01433 30.6493 8.27891 30.4616C8.28321 30.4582 8.28815 30.4558 8.29344 30.4545C8.29873 30.4532 8.30424 30.453 8.30961 30.4539C8.31498 30.4548 8.3201 30.4569 8.32463 30.4599C8.32915 30.463 8.33302 30.4669 8.33592 30.4716C8.34078 30.48 8.3428 30.4898 8.34172 30.4995C8.34064 30.5092 8.33654 30.5184 8.32994 30.5256C7.37223 31.3577 6.70168 32.4709 6.41392 33.7066C6.26617 34.3179 6.18631 34.9437 6.17588 35.5726L6.1959 36.2726L6.22288 36.5076L6.27293 36.9736C6.29593 37.1306 6.32991 37.2856 6.35691 37.4396C6.39391 37.6476 6.44394 37.8596 6.49394 38.0636C6.38152 37.2331 6.4362 36.3886 6.65489 35.5796C6.65489 35.4456 6.67491 35.3116 6.67491 35.1796L6.7219 34.7736L6.79594 34.3736C6.91325 33.8444 7.10052 33.3332 7.35289 32.8536C7.60734 32.3786 7.92087 31.9378 8.28593 31.5416C8.65269 31.153 9.07447 30.8205 9.53788 30.5546C9.54233 30.5519 9.54733 30.5501 9.55247 30.5494C9.55761 30.5486 9.56282 30.5489 9.56785 30.5502C9.57288 30.5515 9.57764 30.5538 9.58177 30.5569C9.5859 30.5601 9.58932 30.5641 9.5919 30.5686C9.59721 30.5772 9.59912 30.5875 9.59727 30.5975C9.59542 30.6075 9.58994 30.6164 9.58189 30.6226C9.16733 30.9338 8.79519 31.2979 8.4749 31.7056C8.1524 32.1029 7.88189 32.5398 7.6699 33.0056C7.45855 33.4688 7.3031 33.9556 7.20689 34.4556L7.20091 34.4856C8.72091 32.4086 10.0599 32.0526 10.7539 32.0356C11.4531 32.7932 12.3046 33.3944 13.2524 33.7999C14.2003 34.2054 15.2231 34.406 16.2539 34.3886C17.1627 34.3814 18.0666 34.2539 18.9419 34.0096C21.4419 33.3286 23.4519 30.9866 25.1799 27.8356C24.7799 28.3926 24.3679 28.9426 23.9349 29.4726C23.0266 30.6384 21.9269 31.6416 20.6829 32.4396C19.4262 33.2328 17.9463 33.5977 16.4649 33.4796C16.4542 33.4785 16.4443 33.4734 16.4374 33.4651C16.4305 33.4569 16.4271 33.4463 16.4279 33.4356C16.428 33.4304 16.4292 33.4253 16.4314 33.4206C16.4335 33.4159 16.4366 33.4117 16.4405 33.4082C16.4443 33.4048 16.4488 33.4021 16.4537 33.4005C16.4586 33.3988 16.4638 33.3982 16.4689 33.3986C17.1912 33.4378 17.9148 33.3501 18.6069 33.1396C19.2955 32.9256 19.9516 32.6185 20.5569 32.2266C21.7524 31.4198 22.8009 30.4143 23.6569 29.2536C24.5479 28.1091 25.3745 26.9159 26.1329 25.6796C26.3209 25.3706 26.5089 25.0556 26.6899 24.7396C27.6029 22.6826 28.4449 20.4396 29.2639 18.1756C29.5459 17.3936 29.7909 16.7156 29.9989 16.1756C31.2839 12.8566 32.2869 9.28956 36.8579 8.05156C37.5418 10.7422 38.9441 13.1963 40.9149 15.1516C40.6259 14.7256 40.3549 14.2856 40.0989 13.8356C39.5634 12.8891 39.0991 11.904 38.7099 10.8886C38.3237 9.87592 38.0207 8.83346 37.8039 7.77156C37.8024 7.7663 37.802 7.7608 37.8027 7.75538C37.8034 7.74997 37.8053 7.74476 37.8081 7.74007C37.8109 7.73539 37.8146 7.73133 37.8191 7.72814C37.8235 7.72496 37.8286 7.72272 37.8339 7.72156C37.844 7.72036 37.8542 7.7227 37.8628 7.72816C37.8713 7.73363 37.8777 7.7419 37.8809 7.75156C38.1615 8.79071 38.5147 9.80888 38.9379 10.7986C39.3539 11.7875 39.8429 12.7442 40.4009 13.6606C40.9549 14.5769 41.5713 15.454 42.2459 16.2856L42.3169 16.3696C43.6946 17.4675 45.391 18.0892 47.1519 18.1416C47.2359 18.1416 47.3199 18.1416 47.4029 18.1356C47.5539 18.1286 47.7029 18.1286 47.8529 18.1286C48.0029 18.1286 48.1529 18.1286 48.2989 18.1356C48.3859 18.1356 48.4669 18.1416 48.5509 18.1416C49.9304 18.117 51.2777 17.7207 52.4509 16.9946C52.806 16.7418 53.1475 16.4704 53.4739 16.1816C54.2884 15.46 55.012 14.642 55.6289 13.7456C56.2483 12.847 56.7541 11.8753 57.1349 10.8526C57.523 9.82605 57.7869 8.75678 57.9209 7.66756C57.9229 7.65694 57.9289 7.64748 57.9376 7.64114C57.9464 7.63481 57.9572 7.6321 57.9679 7.63356C57.9778 7.63493 57.9868 7.63966 57.9936 7.64695C58.0003 7.65425 58.0043 7.66365 58.0049 7.67356C57.934 8.78388 57.7195 9.88033 57.3669 10.9356C57.0417 11.9025 56.6073 12.8291 56.0719 13.6976C57.398 12.0384 58.346 10.1099 58.8499 8.04656C63.4209 9.28456 64.4239 12.8516 65.7089 16.1706C65.9169 16.7106 66.1619 17.3886 66.4439 18.1706C66.4439 18.1706 66.4439 18.1766 66.4439 18.1806C67.2599 19.7646 68.0553 21.3596 68.8299 22.9656C69.6577 24.9099 70.6559 26.7772 71.8129 28.5456C72.4224 29.4178 73.1612 30.192 74.0039 30.8416C74.8369 31.4906 75.8029 31.9479 76.8329 32.1806C76.8383 32.1814 76.8434 32.1833 76.8479 32.1861C76.8525 32.189 76.8565 32.1927 76.8597 32.197C76.8628 32.2014 76.8651 32.2063 76.8663 32.2116C76.8676 32.2168 76.8678 32.2222 76.8669 32.2276C76.8645 32.238 76.8585 32.2472 76.8498 32.2534C76.8412 32.2597 76.8306 32.2626 76.8199 32.2616C75.7652 32.0535 74.7695 31.615 73.9039 30.9776C73.0385 30.3434 72.2739 29.5821 71.6359 28.7196C70.4414 26.9559 69.4041 25.0907 68.5359 23.1456C68.2359 22.5456 67.9359 21.9516 67.6359 21.3536C70.0119 27.5186 72.7499 32.9316 76.7869 34.0286C77.6623 34.2729 78.5661 34.4004 79.4749 34.4076C80.5057 34.4247 81.5284 34.224 82.4762 33.8185C83.424 33.413 84.2755 32.8119 84.9749 32.0546C85.6749 32.0716 87.0279 32.4306 88.5659 34.5546C88.9907 35.1844 89.233 35.9195 89.2659 36.6786C89.2975 36.4358 89.3155 36.1914 89.3199 35.9466C89.383 34.9099 89.0626 33.8863 88.4199 33.0706C88.0812 32.6733 87.6872 32.3268 87.2499 32.0416C86.8099 31.7526 86.3439 31.4976 85.8739 31.2496C85.8692 31.2471 85.8651 31.2438 85.8617 31.2398C85.8584 31.2358 85.8558 31.2311 85.8542 31.2261C85.8527 31.2211 85.8521 31.2158 85.8525 31.2106C85.853 31.2053 85.8545 31.2002 85.8569 31.1956C85.8613 31.1866 85.8688 31.1795 85.878 31.1756C85.8872 31.1718 85.8974 31.1714 85.9069 31.1746C86.9157 31.5596 87.8347 32.1478 88.6069 32.9026C88.9713 33.3154 89.2476 33.7982 89.4189 34.3216C89.5842 34.8447 89.6692 35.3899 89.6709 35.9386C89.6487 36.9759 89.4536 38.0023 89.0939 38.9756C89.0599 39.1436 89.0269 39.3116 88.9859 39.4826C88.9629 39.5826 88.9359 39.6826 88.9129 39.7826C88.8919 39.8596 88.8759 39.9336 88.8559 40.0076C88.8499 40.0276 88.8459 40.0446 88.8389 40.0646C88.8049 40.1786 88.7719 40.2996 88.7389 40.4176C88.7249 40.4576 88.7159 40.4976 88.7019 40.5386C88.6549 40.6956 88.6019 40.8576 88.5469 41.0186C88.5409 41.0356 88.5369 41.0556 88.5299 41.0726C88.2889 41.7876 87.9969 42.5156 87.6649 43.2506L87.6549 43.2716C87.6819 43.2306 87.7049 43.1876 87.7289 43.1436C87.8029 43.0126 87.8729 42.8846 87.9439 42.7536C88.0549 42.5536 88.1589 42.3536 88.2659 42.1536C88.2999 42.0866 88.3369 42.0156 88.3659 41.9456C88.3829 41.9116 88.3999 41.8786 88.4159 41.8456C88.4899 41.7016 88.5639 41.5566 88.6339 41.4126C88.6479 41.3826 88.6609 41.3526 88.6739 41.3256C88.7069 41.2556 88.7419 41.1886 88.7739 41.1176C88.8809 40.8896 88.9849 40.6646 89.0889 40.4356C89.1119 40.3786 89.1359 40.3216 89.1619 40.2616C89.2459 40.0666 89.3299 39.8716 89.4099 39.6776V39.6616C89.4399 39.5876 89.4709 39.5176 89.5009 39.4466C89.5069 39.4226 89.5179 39.3996 89.5239 39.3766C89.6149 39.1546 89.7019 38.9336 89.7829 38.7086L89.7929 38.6886C89.8399 38.5576 89.8839 38.4296 89.9309 38.2986C89.9449 38.2646 89.9539 38.2316 89.9649 38.1986C90.0049 38.0816 90.0459 37.9636 90.0819 37.8466C90.0989 37.8026 90.1119 37.7556 90.1259 37.7126C90.1629 37.6016 90.1959 37.4906 90.2259 37.3836C90.2429 37.3296 90.2559 37.2836 90.2729 37.2286C90.3029 37.1286 90.3329 37.0166 90.3599 36.9136C90.3769 36.8596 90.3899 36.8066 90.4029 36.7526C90.4299 36.6526 90.4569 36.5526 90.4799 36.4526C90.4969 36.3956 90.5069 36.3356 90.5209 36.2776C90.5579 36.1236 90.5909 35.9696 90.6209 35.8186C90.6409 35.7276 90.6579 35.6406 90.6749 35.5536C90.6889 35.4896 90.6979 35.4256 90.7089 35.3616C90.7219 35.2706 90.7389 35.1806 90.7529 35.0896C90.7629 35.0296 90.7699 34.9686 90.7759 34.9126C90.7899 34.8186 90.8029 34.7276 90.8129 34.6376C90.8129 34.5806 90.8229 34.5266 90.8299 34.4736C90.8399 34.3736 90.8469 34.2786 90.8539 34.1846C90.8539 34.1386 90.8599 34.0906 90.8639 34.0406C90.8709 33.9406 90.8739 33.8356 90.8739 33.7316C90.8739 33.6946 90.8739 33.6576 90.8739 33.6206C90.8869 33.4946 90.8839 33.3696 90.8799 33.2416L90.8769 33.2466ZM8.81291 67.6516C8.8145 67.6595 8.8145 67.6676 8.81291 67.6756C8.82991 67.7626 8.84692 67.8496 8.86692 67.9376C8.86963 67.9441 8.87192 67.9508 8.87388 67.9576C8.91244 68.1222 8.96056 68.2845 9.01793 68.4436C9.02493 68.4576 9.02789 68.4706 9.03489 68.4846C9.05789 68.5516 9.08489 68.6186 9.10789 68.6756H9.7219C9.78849 68.319 9.90747 67.9743 10.0749 67.6526L8.81291 67.6516ZM16.6209 67.6516C16.4242 67.9683 16.2771 68.3133 16.1849 68.6746H18.3959C18.4071 68.602 18.4228 68.5302 18.4429 68.4596C18.5156 68.1798 18.6178 67.9086 18.7479 67.6506L16.6209 67.6516ZM22.9569 61.4236C20.2064 61.266 17.4483 61.2961 14.7019 61.5136C13.1024 61.9295 11.6289 62.7305 10.4099 63.8466H12.0239C12.0239 63.8466 12.4929 63.5136 13.0099 63.2116C13.0182 63.2056 13.0273 63.2009 13.0369 63.1976C13.2841 63.0468 13.5445 62.919 13.8149 62.8156C13.8172 62.815 13.8196 62.815 13.8219 62.8156C13.882 62.7928 13.9435 62.7738 14.0059 62.7586C14.0119 62.7586 14.0229 62.7586 14.0329 62.7586C14.0349 62.758 14.037 62.758 14.0389 62.7586C15.6196 62.5029 17.2168 62.3628 18.8179 62.3396H18.9279C19.3109 62.3396 19.6939 62.3396 20.0619 62.3526H20.0719C21.8369 62.4166 23.5619 62.5166 24.3939 62.5716C24.7229 62.5916 24.9179 62.6056 24.9179 62.6056C24.4413 61.9734 23.7386 61.5492 22.9569 61.4236ZM13.2959 68.6746H15.5039C15.5727 68.3183 15.6923 67.9738 15.8589 67.6516H13.7309C13.5331 67.968 13.3863 68.3135 13.2959 68.6756V68.6746ZM66.1449 43.9606L66.5339 46.3056C66.7114 46.3048 66.8888 46.2934 67.0649 46.2716C67.4937 46.2586 67.9141 46.1493 68.295 45.9518C68.6758 45.7543 69.0073 45.4736 69.2649 45.1306C68.4812 44.9807 67.7137 44.756 66.9729 44.4596C66.6715 44.3394 66.3919 44.1709 66.1449 43.9606ZM72.1179 39.7986C72.1179 39.7986 70.8829 42.8856 69.1749 43.3826C68.3895 43.5983 67.5585 43.5823 66.7819 43.3366C66.5046 43.256 66.2365 43.1468 65.9819 43.0106L65.8819 41.9106L65.8749 41.8566C65.9265 41.8599 65.9783 41.8599 66.0299 41.8566C66.1109 41.8566 66.2139 41.8566 66.3519 41.8466C66.4899 41.8366 66.6239 41.8326 66.8089 41.8196C67.1973 41.8127 67.5776 41.7076 67.9144 41.514C68.2512 41.3204 68.5335 41.0447 68.7349 40.7126C67.6633 40.6793 66.6029 40.4837 65.5899 40.1326L65.4389 39.2266C65.9721 38.9491 66.5643 38.8042 67.1654 38.8042C67.7665 38.8042 68.3587 38.9491 68.8919 39.2266C69.8682 39.7881 71.0096 39.9921 72.1199 39.8036" fill="#F61414"/>
</svg>
